<?xml version="1.0" encoding="UTF-8"?>
<svg version="1.1" xmlns="http://www.w3.org/2000/svg" width="512" height="512">
<path d="M0 0 C0.721875 0.00257812 1.44375 0.00515625 2.1875 0.0078125 C2.909375 0.00523438 3.63125 0.00265625 4.375 0 C6.1875 0.1328125 6.1875 0.1328125 7.1875 1.1328125 C7.25929964 2.65209288 7.27142007 4.17448732 7.25 5.6953125 C7.24097656 6.52160156 7.23195312 7.34789062 7.22265625 8.19921875 C7.21105469 8.83730469 7.19945312 9.47539063 7.1875 10.1328125 C8.1775 10.2153125 9.1675 10.2978125 10.1875 10.3828125 C18.93992769 11.68599087 26.43035015 17.21522649 31.73046875 24.15234375 C35.07333168 29.27937399 37.1875 33.91603871 37.1875 40.1328125 C38.56035156 40.09800781 38.56035156 40.09800781 39.9609375 40.0625 C41.14945312 40.04445312 42.33796875 40.02640625 43.5625 40.0078125 C44.74585938 39.98460937 45.92921875 39.96140625 47.1484375 39.9375 C50.1875 40.1328125 50.1875 40.1328125 52.1875 42.1328125 C52.44146729 44.0682373 52.44146729 44.0682373 52.44628906 46.45898438 C52.45259338 47.35331177 52.45889771 48.24763916 52.46539307 49.16906738 C52.4613446 50.13679077 52.45729614 51.10451416 52.453125 52.1015625 C52.45503845 53.09281128 52.4569519 54.08406006 52.45892334 55.10534668 C52.46028585 57.20353448 52.45658482 59.30173069 52.44824219 61.39990234 C52.43754371 64.61965796 52.44813536 67.83885558 52.4609375 71.05859375 C52.45961592 73.09375124 52.45705355 75.12890838 52.453125 77.1640625 C52.45717346 78.13178589 52.46122192 79.09950928 52.46539307 80.09655762 C52.45593658 81.43804871 52.45593658 81.43804871 52.44628906 82.80664062 C52.44469788 83.59558716 52.44310669 84.38453369 52.44146729 85.1973877 C52.1875 87.1328125 52.1875 87.1328125 50.1875 89.1328125 C45.8975 89.1328125 41.6075 89.1328125 37.1875 89.1328125 C37.1875 102.0028125 37.1875 114.8728125 37.1875 128.1328125 C41.4775 128.1328125 45.7675 128.1328125 50.1875 128.1328125 C57.50946088 135.45477338 52.1875 148.77799612 52.1875 159.1328125 C99.0475 159.1328125 145.9075 159.1328125 194.1875 159.1328125 C194.1875 149.5628125 194.1875 139.9928125 194.1875 130.1328125 C194.8475 129.4728125 195.5075 128.8128125 196.1875 128.1328125 C200.4775 128.1328125 204.7675 128.1328125 209.1875 128.1328125 C209.1875 115.2628125 209.1875 102.3928125 209.1875 89.1328125 C204.8975 89.1328125 200.6075 89.1328125 196.1875 89.1328125 C193.76363655 86.70894905 193.93539792 86.12219838 193.92871094 82.80664062 C193.92240662 81.91231323 193.91610229 81.01798584 193.90960693 80.09655762 C193.91567963 78.64497253 193.91567963 78.64497253 193.921875 77.1640625 C193.91996155 76.17281372 193.9180481 75.18156494 193.91607666 74.16027832 C193.91471415 72.06209052 193.91841518 69.96389431 193.92675781 67.86572266 C193.93745629 64.64596704 193.92686464 61.42676942 193.9140625 58.20703125 C193.91538408 56.17187376 193.91794645 54.13671662 193.921875 52.1015625 C193.91782654 51.13383911 193.91377808 50.16611572 193.90960693 49.16906738 C193.91906342 47.82757629 193.91906342 47.82757629 193.92871094 46.45898438 C193.93030212 45.67003784 193.93189331 44.88109131 193.93353271 44.0682373 C194.1875 42.1328125 194.1875 42.1328125 196.1875 40.1328125 C199.2265625 39.9375 199.2265625 39.9375 202.8125 40.0078125 C204.00101563 40.02585938 205.18953125 40.04390625 206.4140625 40.0625 C207.78691406 40.09730469 207.78691406 40.09730469 209.1875 40.1328125 C209.27 39.1428125 209.3525 38.1528125 209.4375 37.1328125 C210.74067837 28.38038481 216.26991399 20.88996235 223.20703125 15.58984375 C228.33406149 12.24698082 232.97072621 10.1328125 239.1875 10.1328125 C239.17589844 9.49472656 239.16429687 8.85664062 239.15234375 8.19921875 C239.13880859 6.95978516 239.13880859 6.95978516 239.125 5.6953125 C239.11339844 4.87160156 239.10179687 4.04789063 239.08984375 3.19921875 C239.1875 1.1328125 239.1875 1.1328125 240.1875 0.1328125 C242 0 242 0 244.1875 0.0078125 C244.909375 0.00523438 245.63125 0.00265625 246.375 0 C248.1875 0.1328125 248.1875 0.1328125 249.1875 1.1328125 C249.25929964 2.65209288 249.27142007 4.17448732 249.25 5.6953125 C249.24097656 6.52160156 249.23195313 7.34789062 249.22265625 8.19921875 C249.20525391 9.15634766 249.20525391 9.15634766 249.1875 10.1328125 C250.1775 10.2153125 251.1675 10.2978125 252.1875 10.3828125 C260.93992769 11.68599087 268.43035015 17.21522649 273.73046875 24.15234375 C277.07333168 29.27937399 279.1875 33.91603871 279.1875 40.1328125 C280.56035156 40.09800781 280.56035156 40.09800781 281.9609375 40.0625 C283.14945312 40.04445312 284.33796875 40.02640625 285.5625 40.0078125 C286.74585938 39.98460937 287.92921875 39.96140625 289.1484375 39.9375 C292.1875 40.1328125 292.1875 40.1328125 294.1875 42.1328125 C294.44146729 44.0682373 294.44146729 44.0682373 294.44628906 46.45898438 C294.45259338 47.35331177 294.45889771 48.24763916 294.46539307 49.16906738 C294.45932037 50.62065247 294.45932037 50.62065247 294.453125 52.1015625 C294.45503845 53.09281128 294.4569519 54.08406006 294.45892334 55.10534668 C294.46028585 57.20353448 294.45658482 59.30173069 294.44824219 61.39990234 C294.43754371 64.61965796 294.44813536 67.83885558 294.4609375 71.05859375 C294.45961592 73.09375124 294.45705355 75.12890838 294.453125 77.1640625 C294.45717346 78.13178589 294.46122192 79.09950928 294.46539307 80.09655762 C294.45593658 81.43804871 294.45593658 81.43804871 294.44628906 82.80664062 C294.44469788 83.59558716 294.44310669 84.38453369 294.44146729 85.1973877 C294.1875 87.1328125 294.1875 87.1328125 292.1875 89.1328125 C287.8975 89.1328125 283.6075 89.1328125 279.1875 89.1328125 C279.1875 102.0028125 279.1875 114.8728125 279.1875 128.1328125 C283.4775 128.1328125 287.7675 128.1328125 292.1875 128.1328125 C294.62878669 130.57409919 294.439687 131.20362064 294.44628906 134.55078125 C294.45259338 135.46512939 294.45889771 136.37947754 294.46539307 137.3215332 C294.45932037 138.80592896 294.45932037 138.80592896 294.453125 140.3203125 C294.45503845 141.33375732 294.4569519 142.34720215 294.45892334 143.39135742 C294.46028591 145.53662362 294.45658447 147.68189803 294.44824219 149.82714844 C294.43754382 153.11932822 294.44813519 156.41096228 294.4609375 159.703125 C294.45961592 161.78385538 294.45705355 163.86458541 294.453125 165.9453125 C294.45717346 166.93490967 294.46122192 167.92450684 294.46539307 168.9440918 C294.45593658 170.31561401 294.45593658 170.31561401 294.44628906 171.71484375 C294.44469788 172.52155518 294.44310669 173.3282666 294.44146729 174.15942383 C294.1875 176.1328125 294.1875 176.1328125 292.1875 178.1328125 C287.8975 178.1328125 283.6075 178.1328125 279.1875 178.1328125 C279.1875 191.0028125 279.1875 203.8728125 279.1875 217.1328125 C283.4775 217.1328125 287.7675 217.1328125 292.1875 217.1328125 C294.61136345 219.55667595 294.43960208 220.14342662 294.44628906 223.45898438 C294.45259338 224.35331177 294.45889771 225.24763916 294.46539307 226.16906738 C294.45932037 227.62065247 294.45932037 227.62065247 294.453125 229.1015625 C294.45503845 230.09281128 294.4569519 231.08406006 294.45892334 232.10534668 C294.46028585 234.20353448 294.45658482 236.30173069 294.44824219 238.39990234 C294.43754371 241.61965796 294.44813536 244.83885558 294.4609375 248.05859375 C294.45961592 250.09375124 294.45705355 252.12890838 294.453125 254.1640625 C294.45717346 255.13178589 294.46122192 256.09950928 294.46539307 257.09655762 C294.45593658 258.43804871 294.45593658 258.43804871 294.44628906 259.80664062 C294.44469788 260.59558716 294.44310669 261.38453369 294.44146729 262.1973877 C294.1875 264.1328125 294.1875 264.1328125 292.1875 266.1328125 C289.1484375 266.328125 289.1484375 266.328125 285.5625 266.2578125 C284.37398438 266.23976563 283.18546875 266.22171875 281.9609375 266.203125 C280.58808594 266.16832031 280.58808594 266.16832031 279.1875 266.1328125 C279.19026538 267.20460031 279.19026538 267.20460031 279.19308662 268.29804039 C279.23720997 285.66509601 279.2703294 303.03213743 279.29112434 320.39923668 C279.3014473 328.79775375 279.31552704 337.19623347 279.33837891 345.59472656 C279.35828165 352.9128362 279.37120901 360.23091879 279.37567699 367.54905474 C279.37828967 371.42577691 279.38445162 375.30242169 279.39896011 379.17911911 C279.41249489 382.82504052 279.41673102 386.47085235 279.41371536 390.11679649 C279.41453136 392.09882883 279.42531441 394.08084912 279.43634033 396.06285095 C279.433591 397.23516769 279.43084167 398.40748444 279.42800903 399.61532593 C279.43077441 401.15011125 279.43077441 401.15011125 279.43359566 402.71590233 C279.1875 405.1328125 279.1875 405.1328125 277.1875 407.1328125 C274.96649933 407.38351083 274.96649933 407.38351083 272.13684082 407.38449478 C271.06120628 407.38971028 269.98557175 407.39492577 268.87734222 407.40029931 C267.68612007 407.39583787 266.49489792 407.39137642 265.26757812 407.38677979 C263.38053036 407.39145976 263.38053036 407.39145976 261.45536041 407.39623427 C257.95201968 407.40461897 254.44878725 407.40044046 250.94544601 407.39426184 C247.17171223 407.38975329 243.39799761 407.39671313 239.62426758 407.40222168 C232.22701493 407.41113447 224.82980278 407.4091853 217.43254852 407.4033964 C211.42288377 407.39888731 205.41323041 407.39826373 199.40356445 407.40044403 C198.1226202 407.40090373 198.1226202 407.40090373 196.81579828 407.40137272 C195.08121681 407.40201214 193.34663534 407.40266057 191.61205387 407.4033179 C175.33084855 407.40902672 159.04966572 407.40245466 142.76846409 407.39171717 C128.78573563 407.38278115 114.80304036 407.38433304 100.8203125 407.39355469 C84.5990316 407.40424759 68.37777044 407.40847734 52.15648651 407.40233016 C50.42813619 407.40169303 48.69978587 407.40106429 46.97143555 407.40044403 C45.6957237 407.3999812 45.6957237 407.3999812 44.3942399 407.39950903 C38.38887974 407.39777914 32.38353206 407.40070349 26.37817383 407.40540314 C19.06382681 407.41100111 11.74952274 407.40951846 4.43518066 407.39884165 C0.7003035 407.39357026 -3.03450196 407.39155299 -6.76937866 407.39813995 C-10.81050812 407.40515946 -14.85145508 407.39680197 -18.89257812 407.38677979 C-20.08380028 407.39124123 -21.27502243 407.39570267 -22.50234222 407.40029931 C-23.57797676 407.39508382 -24.6536113 407.38986832 -25.76184082 407.38449478 C-26.69562813 407.38417008 -27.62941544 407.38384537 -28.59149933 407.38351083 C-30.8125 407.1328125 -30.8125 407.1328125 -32.8125 405.1328125 C-33.05859566 402.71590233 -33.05859566 402.71590233 -33.05300903 399.61532593 C-33.05575836 398.44300919 -33.05850769 397.27069244 -33.06134033 396.06285095 C-33.05414978 394.77028885 -33.04695923 393.47772675 -33.03955078 392.14599609 C-33.03898686 390.77626046 -33.03930285 389.40652422 -33.04043579 388.03678894 C-33.04101107 384.31176692 -33.02922862 380.58687296 -33.01528788 376.86188078 C-33.00280954 372.9714545 -33.00161231 369.08102548 -32.99923706 365.19058228 C-32.99301375 357.82055768 -32.97659146 350.45059222 -32.95653808 343.08059371 C-32.93420551 334.69135612 -32.92319231 326.30211576 -32.91314721 317.91285586 C-32.89222594 300.65280717 -32.85703349 283.39281608 -32.8125 266.1328125 C-33.72773437 266.15601563 -34.64296875 266.17921875 -35.5859375 266.203125 C-36.77445313 266.22117187 -37.96296875 266.23921875 -39.1875 266.2578125 C-40.37085937 266.28101563 -41.55421875 266.30421875 -42.7734375 266.328125 C-45.8125 266.1328125 -45.8125 266.1328125 -47.8125 264.1328125 C-48.06646729 262.1973877 -48.06646729 262.1973877 -48.07128906 259.80664062 C-48.07759338 258.91231323 -48.08389771 258.01798584 -48.09039307 257.09655762 C-48.0863446 256.12883423 -48.08229614 255.16111084 -48.078125 254.1640625 C-48.08003845 253.17281372 -48.0819519 252.18156494 -48.08392334 251.16027832 C-48.08528585 249.06209052 -48.08158482 246.96389431 -48.07324219 244.86572266 C-48.06254371 241.64596704 -48.07313536 238.42676942 -48.0859375 235.20703125 C-48.08461592 233.17187376 -48.08205355 231.13671662 -48.078125 229.1015625 C-48.08419769 227.64997742 -48.08419769 227.64997742 -48.09039307 226.16906738 C-48.08408875 225.27473999 -48.07778442 224.3804126 -48.07128906 223.45898438 C-48.06969788 222.67003784 -48.06810669 221.88109131 -48.06646729 221.0682373 C-47.8125 219.1328125 -47.8125 219.1328125 -45.8125 217.1328125 C-41.5225 217.1328125 -37.2325 217.1328125 -32.8125 217.1328125 C-32.8125 204.2628125 -32.8125 191.3928125 -32.8125 178.1328125 C-37.1025 178.1328125 -41.3925 178.1328125 -45.8125 178.1328125 C-48.25378669 175.69152581 -48.064687 175.06200436 -48.07128906 171.71484375 C-48.08074554 170.34332153 -48.08074554 170.34332153 -48.09039307 168.9440918 C-48.0863446 167.95449463 -48.08229614 166.96489746 -48.078125 165.9453125 C-48.08003845 164.93186768 -48.0819519 163.91842285 -48.08392334 162.87426758 C-48.08528591 160.72900138 -48.08158447 158.58372697 -48.07324219 156.43847656 C-48.06254382 153.14629678 -48.07313519 149.85466272 -48.0859375 146.5625 C-48.08461592 144.48176962 -48.08205355 142.40103959 -48.078125 140.3203125 C-48.08217346 139.33071533 -48.08622192 138.34111816 -48.09039307 137.3215332 C-48.08408875 136.40718506 -48.07778442 135.49283691 -48.07128906 134.55078125 C-48.06969788 133.74406982 -48.06810669 132.9373584 -48.06646729 132.10620117 C-47.8125 130.1328125 -47.8125 130.1328125 -45.8125 128.1328125 C-41.5225 128.1328125 -37.2325 128.1328125 -32.8125 128.1328125 C-32.8125 115.2628125 -32.8125 102.3928125 -32.8125 89.1328125 C-37.1025 89.1328125 -41.3925 89.1328125 -45.8125 89.1328125 C-48.23636345 86.70894905 -48.06460208 86.12219838 -48.07128906 82.80664062 C-48.07759338 81.91231323 -48.08389771 81.01798584 -48.09039307 80.09655762 C-48.0863446 79.12883423 -48.08229614 78.16111084 -48.078125 77.1640625 C-48.08003845 76.17281372 -48.0819519 75.18156494 -48.08392334 74.16027832 C-48.08528585 72.06209052 -48.08158482 69.96389431 -48.07324219 67.86572266 C-48.06254371 64.64596704 -48.07313536 61.42676942 -48.0859375 58.20703125 C-48.08461592 56.17187376 -48.08205355 54.13671662 -48.078125 52.1015625 C-48.08419769 50.64997742 -48.08419769 50.64997742 -48.09039307 49.16906738 C-48.08408875 48.27473999 -48.07778442 47.3804126 -48.07128906 46.45898438 C-48.06969788 45.67003784 -48.06810669 44.88109131 -48.06646729 44.0682373 C-47.8125 42.1328125 -47.8125 42.1328125 -45.8125 40.1328125 C-42.7734375 39.9375 -42.7734375 39.9375 -39.1875 40.0078125 C-37.99898437 40.02585938 -36.81046875 40.04390625 -35.5859375 40.0625 C-34.21308594 40.09730469 -34.21308594 40.09730469 -32.8125 40.1328125 C-32.73 39.1428125 -32.6475 38.1528125 -32.5625 37.1328125 C-31.25932163 28.38038481 -25.73008601 20.88996235 -18.79296875 15.58984375 C-13.66593851 12.24698082 -9.02927379 10.1328125 -2.8125 10.1328125 C-2.82410156 9.49472656 -2.83570313 8.85664062 -2.84765625 8.19921875 C-2.85667969 7.37292969 -2.86570313 6.54664063 -2.875 5.6953125 C-2.88660156 4.87160156 -2.89820313 4.04789063 -2.91015625 3.19921875 C-2.78580037 0.56784823 -2.63135505 0.19281481 0 0 Z M-14.8125 27.1328125 C-18.0713845 30.56785292 -21.8125 35.20087914 -21.8125 40.1328125 C-5.9725 40.1328125 9.8675 40.1328125 26.1875 40.1328125 C23.35665955 31.64029114 20.00185273 27.02142414 12.375 22.4453125 C2.26042077 18.28048576 -6.38029543 20.63494439 -14.8125 27.1328125 Z M227.1875 27.1328125 C223.9286155 30.56785292 220.1875 35.20087914 220.1875 40.1328125 C236.0275 40.1328125 251.8675 40.1328125 268.1875 40.1328125 C265.35665955 31.64029114 262.00185273 27.02142414 254.375 22.4453125 C244.26042077 18.28048576 235.61970457 20.63494439 227.1875 27.1328125 Z M-37.8125 50.1328125 C-37.8125 59.7028125 -37.8125 69.2728125 -37.8125 79.1328125 C-11.4125 79.1328125 14.9875 79.1328125 42.1875 79.1328125 C42.1875 69.5628125 42.1875 59.9928125 42.1875 50.1328125 C15.7875 50.1328125 -10.6125 50.1328125 -37.8125 50.1328125 Z M204.1875 50.1328125 C204.1875 59.7028125 204.1875 69.2728125 204.1875 79.1328125 C230.5875 79.1328125 256.9875 79.1328125 284.1875 79.1328125 C284.1875 69.5628125 284.1875 59.9928125 284.1875 50.1328125 C257.7875 50.1328125 231.3875 50.1328125 204.1875 50.1328125 Z M-22.8125 89.1328125 C-22.8125 102.0028125 -22.8125 114.8728125 -22.8125 128.1328125 C-16.2125 128.1328125 -9.6125 128.1328125 -2.8125 128.1328125 C-2.8125 115.2628125 -2.8125 102.3928125 -2.8125 89.1328125 C-9.4125 89.1328125 -16.0125 89.1328125 -22.8125 89.1328125 Z M7.1875 89.1328125 C7.1875 102.0028125 7.1875 114.8728125 7.1875 128.1328125 C13.7875 128.1328125 20.3875 128.1328125 27.1875 128.1328125 C27.1875 115.2628125 27.1875 102.3928125 27.1875 89.1328125 C20.5875 89.1328125 13.9875 89.1328125 7.1875 89.1328125 Z M219.1875 89.1328125 C219.1875 102.0028125 219.1875 114.8728125 219.1875 128.1328125 C225.7875 128.1328125 232.3875 128.1328125 239.1875 128.1328125 C239.1875 115.2628125 239.1875 102.3928125 239.1875 89.1328125 C232.5875 89.1328125 225.9875 89.1328125 219.1875 89.1328125 Z M249.1875 89.1328125 C249.1875 102.0028125 249.1875 114.8728125 249.1875 128.1328125 C255.7875 128.1328125 262.3875 128.1328125 269.1875 128.1328125 C269.1875 115.2628125 269.1875 102.3928125 269.1875 89.1328125 C262.5875 89.1328125 255.9875 89.1328125 249.1875 89.1328125 Z M-37.8125 139.1328125 C-37.8125 148.3728125 -37.8125 157.6128125 -37.8125 167.1328125 C-11.4125 167.1328125 14.9875 167.1328125 42.1875 167.1328125 C42.1875 157.8928125 42.1875 148.6528125 42.1875 139.1328125 C15.7875 139.1328125 -10.6125 139.1328125 -37.8125 139.1328125 Z M204.1875 139.1328125 C204.1875 148.3728125 204.1875 157.6128125 204.1875 167.1328125 C230.5875 167.1328125 256.9875 167.1328125 284.1875 167.1328125 C284.1875 157.8928125 284.1875 148.6528125 284.1875 139.1328125 C257.7875 139.1328125 231.3875 139.1328125 204.1875 139.1328125 Z M52.1875 169.1328125 C52.043125 170.2671875 51.89875 171.4015625 51.75 172.5703125 C51.1875 176.1328125 51.1875 176.1328125 50.1875 177.1328125 C45.86259147 177.5980417 41.52814463 177.83781723 37.1875 178.1328125 C37.1875 184.7328125 37.1875 191.3328125 37.1875 198.1328125 C44.1175 198.1328125 51.0475 198.1328125 58.1875 198.1328125 C58.1875 188.5628125 58.1875 178.9928125 58.1875 169.1328125 C56.2075 169.1328125 54.2275 169.1328125 52.1875 169.1328125 Z M68.1875 169.1328125 C68.1875 178.7028125 68.1875 188.2728125 68.1875 198.1328125 C74.7875 198.1328125 81.3875 198.1328125 88.1875 198.1328125 C88.1875 188.5628125 88.1875 178.9928125 88.1875 169.1328125 C81.5875 169.1328125 74.9875 169.1328125 68.1875 169.1328125 Z M98.1875 169.1328125 C98.1875 178.7028125 98.1875 188.2728125 98.1875 198.1328125 C104.7875 198.1328125 111.3875 198.1328125 118.1875 198.1328125 C118.1875 188.5628125 118.1875 178.9928125 118.1875 169.1328125 C111.5875 169.1328125 104.9875 169.1328125 98.1875 169.1328125 Z M128.1875 169.1328125 C128.1875 178.7028125 128.1875 188.2728125 128.1875 198.1328125 C134.7875 198.1328125 141.3875 198.1328125 148.1875 198.1328125 C148.1875 188.5628125 148.1875 178.9928125 148.1875 169.1328125 C141.5875 169.1328125 134.9875 169.1328125 128.1875 169.1328125 Z M158.1875 169.1328125 C158.1875 178.7028125 158.1875 188.2728125 158.1875 198.1328125 C164.7875 198.1328125 171.3875 198.1328125 178.1875 198.1328125 C178.1875 188.5628125 178.1875 178.9928125 178.1875 169.1328125 C171.5875 169.1328125 164.9875 169.1328125 158.1875 169.1328125 Z M188.1875 169.1328125 C188.1875 178.7028125 188.1875 188.2728125 188.1875 198.1328125 C195.1175 198.1328125 202.0475 198.1328125 209.1875 198.1328125 C209.1875 191.5328125 209.1875 184.9328125 209.1875 178.1328125 C207.063125 177.9884375 204.93875 177.8440625 202.75 177.6953125 C196.3125 177.2578125 196.3125 177.2578125 195.1875 176.1328125 C194.81989269 173.80463286 194.48508419 171.470974 194.1875 169.1328125 C192.2075 169.1328125 190.2275 169.1328125 188.1875 169.1328125 Z M-22.8125 178.1328125 C-22.8125 191.0028125 -22.8125 203.8728125 -22.8125 217.1328125 C-16.2125 217.1328125 -9.6125 217.1328125 -2.8125 217.1328125 C-2.8125 204.2628125 -2.8125 191.3928125 -2.8125 178.1328125 C-9.4125 178.1328125 -16.0125 178.1328125 -22.8125 178.1328125 Z M7.1875 178.1328125 C7.1875 191.0028125 7.1875 203.8728125 7.1875 217.1328125 C13.7875 217.1328125 20.3875 217.1328125 27.1875 217.1328125 C27.1875 204.2628125 27.1875 191.3928125 27.1875 178.1328125 C20.5875 178.1328125 13.9875 178.1328125 7.1875 178.1328125 Z M219.1875 178.1328125 C219.1875 191.0028125 219.1875 203.8728125 219.1875 217.1328125 C225.7875 217.1328125 232.3875 217.1328125 239.1875 217.1328125 C239.1875 204.2628125 239.1875 191.3928125 239.1875 178.1328125 C232.5875 178.1328125 225.9875 178.1328125 219.1875 178.1328125 Z M249.1875 178.1328125 C249.1875 191.0028125 249.1875 203.8728125 249.1875 217.1328125 C255.7875 217.1328125 262.3875 217.1328125 269.1875 217.1328125 C269.1875 204.2628125 269.1875 191.3928125 269.1875 178.1328125 C262.5875 178.1328125 255.9875 178.1328125 249.1875 178.1328125 Z M37.1875 208.1328125 C37.1875 211.1028125 37.1875 214.0728125 37.1875 217.1328125 C38.11433594 217.19339844 39.04117188 217.25398437 39.99609375 217.31640625 C41.19363281 217.40019531 42.39117187 217.48398437 43.625 217.5703125 C44.81996094 217.65152344 46.01492187 217.73273438 47.24609375 217.81640625 C50.1875 218.1328125 50.1875 218.1328125 51.1875 219.1328125 C51.34773562 222.01533895 51.44704029 224.87659777 51.50390625 227.76171875 C51.52468735 228.62594955 51.54546844 229.49018036 51.56687927 230.38059998 C51.63247114 233.15208695 51.69130418 235.92367171 51.75 238.6953125 C51.79317608 240.56967173 51.83679006 242.44402093 51.88085938 244.31835938 C51.98816227 248.92307586 52.08940215 253.52789108 52.1875 258.1328125 C55.1575 258.1328125 58.1275 258.1328125 61.1875 258.1328125 C61.1968457 257.2857373 61.20619141 256.43866211 61.21582031 255.56591797 C61.26002612 252.40086898 61.32172527 249.23676438 61.39501953 246.07226562 C61.42311623 244.70683086 61.44438677 243.34123686 61.45849609 241.97558594 C61.48007982 240.00427212 61.5288546 238.03331619 61.578125 236.0625 C61.59907227 234.87897949 61.62001953 233.69545898 61.64160156 232.47607422 C62.44501922 227.55568002 64.64276192 224.34855478 68.53515625 221.28515625 C73.56577536 219.09954117 78.82129271 219.53206728 84.1875 220.1328125 C89.34564131 222.44508274 91.02684658 225.02456572 93.1875 230.1328125 C93.61987305 233.38427734 93.61987305 233.38427734 93.69921875 236.84375 C93.73466797 238.08769531 93.77011719 239.33164062 93.80664062 240.61328125 C93.84047852 242.54107422 93.84047852 242.54107422 93.875 244.5078125 C93.90916016 245.81621094 93.94332031 247.12460937 93.97851562 248.47265625 C94.06077754 251.69262275 94.13000263 254.91232429 94.1875 258.1328125 C97.8175 258.1328125 101.4475 258.1328125 105.1875 258.1328125 C105.20208252 257.31079346 105.21666504 256.48877441 105.23168945 255.6418457 C105.30626333 251.90919927 105.40289512 248.17743791 105.5 244.4453125 C105.52255859 243.15173828 105.54511719 241.85816406 105.56835938 240.52539062 C105.6215332 238.65463867 105.6215332 238.65463867 105.67578125 236.74609375 C105.70196533 235.59923096 105.72814941 234.45236816 105.75512695 233.27075195 C106.22609512 229.8527091 107.30031071 227.97599358 109.1875 225.1328125 C109.1875 224.4728125 109.1875 223.8128125 109.1875 223.1328125 C115.5223745 219.85615328 121.11819419 219.48674349 128.1875 220.1328125 C133.0060944 222.19792439 135.06812622 224.9069762 137.3359375 229.59179688 C139.07257564 234.77382948 138.8720256 240.21629414 138.9375 245.6328125 C138.96714844 246.83679688 138.99679687 248.04078125 139.02734375 249.28125 C139.09759581 252.23183643 139.15051486 255.18165306 139.1875 258.1328125 C142.4875 258.1328125 145.7875 258.1328125 149.1875 258.1328125 C149.20208252 257.34632324 149.21666504 256.55983398 149.23168945 255.74951172 C149.30639363 252.16846292 149.40298207 248.58832339 149.5 245.0078125 C149.52255859 243.7703125 149.54511719 242.5328125 149.56835938 241.2578125 C149.6215332 239.45957031 149.6215332 239.45957031 149.67578125 237.625 C149.70196533 236.52526855 149.72814941 235.42553711 149.75512695 234.29248047 C150.42606892 229.38941387 152.08581486 226.12701616 155.75 222.8203125 C160.93580385 219.23014061 166.01401149 219.54370837 172.1875 220.1328125 C176.22404111 222.1156748 178.8375056 224.29861111 181.1875 228.1328125 C182.26705212 231.37146885 182.39191741 233.92437088 182.50390625 237.33203125 C182.56674805 239.14477539 182.56674805 239.14477539 182.63085938 240.99414062 C182.67017578 242.25677734 182.70949219 243.51941406 182.75 244.8203125 C182.79318359 246.09455078 182.83636719 247.36878906 182.88085938 248.68164062 C182.9870486 251.83192102 183.08909533 254.98228089 183.1875 258.1328125 C186.8175 258.1328125 190.4475 258.1328125 194.1875 258.1328125 C194.22508423 256.36852905 194.22508423 256.36852905 194.26342773 254.56860352 C194.35732806 250.22066628 194.45759048 245.87289534 194.55981445 241.52514648 C194.60322933 239.64042032 194.64489943 237.75565314 194.68481445 235.87084961 C194.74235893 233.16768001 194.80609804 230.46471814 194.87109375 227.76171875 C194.88780624 226.91380264 194.90451874 226.06588654 194.92173767 225.192276 C195.07362829 219.24668421 195.07362829 219.24668421 196.1875 218.1328125 C198.37042774 217.89799557 200.55953174 217.71917927 202.75 217.5703125 C203.94753906 217.48652344 205.14507812 217.40273438 206.37890625 217.31640625 C207.30574219 217.25582031 208.23257813 217.19523438 209.1875 217.1328125 C209.1875 214.1628125 209.1875 211.1928125 209.1875 208.1328125 C152.4275 208.1328125 95.6675 208.1328125 37.1875 208.1328125 Z M-37.8125 227.1328125 C-37.8125 236.7028125 -37.8125 246.2728125 -37.8125 256.1328125 C-11.4125 256.1328125 14.9875 256.1328125 42.1875 256.1328125 C42.1875 246.5628125 42.1875 236.9928125 42.1875 227.1328125 C15.7875 227.1328125 -10.6125 227.1328125 -37.8125 227.1328125 Z M204.1875 227.1328125 C204.1875 236.7028125 204.1875 246.2728125 204.1875 256.1328125 C230.5875 256.1328125 256.9875 256.1328125 284.1875 256.1328125 C284.1875 246.5628125 284.1875 236.9928125 284.1875 227.1328125 C257.7875 227.1328125 231.3875 227.1328125 204.1875 227.1328125 Z M72.1875 232.1328125 C71.12713754 235.21643855 71.07099359 238.09370944 71.08984375 241.3359375 C71.09306641 242.315625 71.09628906 243.2953125 71.09960938 244.3046875 C71.10798828 245.32046875 71.11636719 246.33625 71.125 247.3828125 C71.12951172 248.4140625 71.13402344 249.4453125 71.13867188 250.5078125 C71.15043897 253.04950404 71.1683739 255.59116568 71.1875 258.1328125 C75.4775 258.1328125 79.7675 258.1328125 84.1875 258.1328125 C84.24152584 254.57010877 84.2811875 251.00822727 84.3125 247.4453125 C84.32925781 246.43791016 84.34601563 245.43050781 84.36328125 244.39257812 C84.37294922 242.92788086 84.37294922 242.92788086 84.3828125 241.43359375 C84.39328613 240.53809814 84.40375977 239.64260254 84.41455078 238.7199707 C84.13977841 235.58904297 83.4800172 232.4253297 81.1875 230.1328125 C76.16240684 229.58865516 76.16240684 229.58865516 72.1875 232.1328125 Z M117.51831055 231.30004883 C115.64197066 233.88410377 115.84626162 235.72482546 115.89453125 238.89453125 C115.90419922 240.01279297 115.91386719 241.13105469 115.92382812 242.28320312 C115.94896484 243.45044922 115.97410156 244.61769531 116 245.8203125 C116.01353516 246.99916016 116.02707031 248.17800781 116.04101562 249.39257812 C116.07640355 252.30618383 116.13021089 255.21955514 116.1875 258.1328125 C120.1475 258.1328125 124.1075 258.1328125 128.1875 258.1328125 C128.26835714 254.21573309 128.32793614 250.30031891 128.375 246.3828125 C128.40013672 245.27164063 128.42527344 244.16046875 128.45117188 243.015625 C128.46083984 241.94570313 128.47050781 240.87578125 128.48046875 239.7734375 C128.4961792 238.78891602 128.51188965 237.80439453 128.52807617 236.79003906 C128.13050259 233.68811012 127.38293343 232.33563147 125.1875 230.1328125 C122.08294967 229.68006558 120.14492153 229.4633036 117.51831055 231.30004883 Z M161.51831055 231.29614258 C159.64376565 233.88322775 159.84623609 235.7231494 159.89453125 238.89453125 C159.90419922 240.01279297 159.91386719 241.13105469 159.92382812 242.28320312 C159.94896484 243.45044922 159.97410156 244.61769531 160 245.8203125 C160.01353516 246.99916016 160.02707031 248.17800781 160.04101562 249.39257812 C160.07640355 252.30618383 160.13021089 255.21955514 160.1875 258.1328125 C164.1475 258.1328125 168.1075 258.1328125 172.1875 258.1328125 C172.26821599 254.02825485 172.32786813 249.92527414 172.375 245.8203125 C172.40013672 244.65306641 172.42527344 243.48582031 172.45117188 242.28320312 C172.46083984 241.16494141 172.47050781 240.04667969 172.48046875 238.89453125 C172.4961792 237.86287842 172.51188965 236.83122559 172.52807617 235.76831055 C172.39892239 233.11655834 172.39892239 233.11655834 170.85668945 231.29614258 C167.87596706 229.21874866 164.49903294 229.21874866 161.51831055 231.29614258 Z M-22.8125 266.1328125 C-22.8125 309.3628125 -22.8125 352.5928125 -22.8125 397.1328125 C-16.2125 397.1328125 -9.6125 397.1328125 -2.8125 397.1328125 C-2.8125 353.9028125 -2.8125 310.6728125 -2.8125 266.1328125 C-9.4125 266.1328125 -16.0125 266.1328125 -22.8125 266.1328125 Z M7.1875 266.1328125 C7.1875 309.3628125 7.1875 352.5928125 7.1875 397.1328125 C13.7875 397.1328125 20.3875 397.1328125 27.1875 397.1328125 C27.1875 353.9028125 27.1875 310.6728125 27.1875 266.1328125 C20.5875 266.1328125 13.9875 266.1328125 7.1875 266.1328125 Z M219.1875 266.1328125 C219.1875 309.3628125 219.1875 352.5928125 219.1875 397.1328125 C225.7875 397.1328125 232.3875 397.1328125 239.1875 397.1328125 C239.1875 353.9028125 239.1875 310.6728125 239.1875 266.1328125 C232.5875 266.1328125 225.9875 266.1328125 219.1875 266.1328125 Z M249.1875 266.1328125 C249.1875 309.3628125 249.1875 352.5928125 249.1875 397.1328125 C255.7875 397.1328125 262.3875 397.1328125 269.1875 397.1328125 C269.1875 353.9028125 269.1875 310.6728125 269.1875 266.1328125 C262.5875 266.1328125 255.9875 266.1328125 249.1875 266.1328125 Z M37.1875 268.1328125 C37.1875 310.7028125 37.1875 353.2728125 37.1875 397.1328125 C50.3875 397.1328125 63.5875 397.1328125 77.1875 397.1328125 C77.22488281 391.84636719 77.26226562 386.55992187 77.30078125 381.11328125 C77.33109078 377.74541137 77.36225807 374.37759244 77.39648438 371.00976562 C77.45061698 365.67523912 77.50173358 360.34081337 77.53393555 355.00610352 C77.56012495 350.70058792 77.60063526 346.39541465 77.65068626 342.09011269 C77.66725003 340.45529787 77.67882913 338.82042398 77.68511391 337.18553734 C77.75457198 320.76386118 80.1994491 307.73337994 91.6953125 295.46484375 C100.55412493 287.17532804 111.08103299 283.54966225 123.0625 283.6953125 C123.93946533 283.70288574 124.81643066 283.71045898 125.7199707 283.71826172 C132.49156602 283.89013917 138.16921844 284.86952132 144.1875 288.1328125 C145.363125 288.76896484 145.363125 288.76896484 146.5625 289.41796875 C156.93768282 295.7096759 163.87713627 305.13192716 167.22460938 316.72436523 C168.83348843 324.16614215 168.54758744 331.83979578 168.6015625 339.41796875 C168.62029943 341.08663361 168.63987467 342.75528925 168.6602478 344.42393494 C168.71130857 348.78854911 168.75107273 353.15319392 168.78839111 357.51794434 C168.83567984 362.76950706 168.89716475 368.02092091 168.95623779 373.27236176 C169.04413195 381.22578437 169.11412347 389.17918307 169.1875 397.1328125 C182.3875 397.1328125 195.5875 397.1328125 209.1875 397.1328125 C209.1875 354.5628125 209.1875 311.9928125 209.1875 268.1328125 C152.4275 268.1328125 95.6675 268.1328125 37.1875 268.1328125 Z M95.1875 307.1328125 C90.37134933 314.91875993 88.05848678 321.27303627 88.07397461 330.37988281 C88.07382858 331.10223114 88.07368256 331.82457947 88.0735321 332.56881714 C88.07422716 334.94955478 88.0820005 337.33021358 88.08984375 339.7109375 C88.09170937 341.36431841 88.0931326 343.01769988 88.09413147 344.67108154 C88.09794527 349.01775647 88.10776585 353.36439787 88.11883545 357.71105957 C88.1308749 362.92902941 88.13545723 368.14701047 88.14128876 373.36499023 C88.15097821 381.28762097 88.17014272 389.21017814 88.1875 397.1328125 C111.2875 397.1328125 134.3875 397.1328125 158.1875 397.1328125 C158.30402845 384.24905807 158.30402845 384.24905807 158.3828125 371.36523438 C158.40663538 366.10294263 158.43468141 360.84093181 158.48925781 355.57885742 C158.53302581 351.33185072 158.55670174 347.08514568 158.56700897 342.83793068 C158.57434525 341.22535269 158.58866992 339.61278941 158.61042023 338.00034142 C158.77578083 325.22206643 157.51530721 313.82174368 148.28515625 304.13671875 C140.06816821 296.2663172 132.42591665 293.48583037 121.08520508 293.66625977 C110.05998858 294.17672272 102.34331191 298.79462892 95.1875 307.1328125 Z " fill="#000000" transform="translate(132.8125,51.8671875)"/>
<path d="M0 0 C3.125 1.875 3.125 1.875 5 5 C5.98876625 10.02622846 5.7769173 13.70513784 3.125 18.125 C-1.29486216 20.7769173 -4.97377154 20.98876625 -10 20 C-13.125 18.125 -13.125 18.125 -15 15 C-15.98876625 9.97377154 -15.7769173 6.29486216 -13.125 1.875 C-8.70513784 -0.7769173 -5.02622846 -0.98876625 0 0 Z " fill="#000000" transform="translate(322,333)"/>
<path d="M0 0 C3.125 1.875 3.125 1.875 5 5 C5.98876625 10.02622846 5.7769173 13.70513784 3.125 18.125 C-1.29486216 20.7769173 -4.97377154 20.98876625 -10 20 C-13.125 18.125 -13.125 18.125 -15 15 C-15.98876625 9.97377154 -15.7769173 6.29486216 -13.125 1.875 C-8.70513784 -0.7769173 -5.02622846 -0.98876625 0 0 Z " fill="#000000" transform="translate(200,333)"/>
<path d="M0 0 C3 0.25 3 0.25 5 2.25 C5.265625 5.21875 5.265625 5.21875 5.25 8.75 C5.25515625 9.9153125 5.2603125 11.080625 5.265625 12.28125 C5 15.25 5 15.25 3 17.25 C0 17.5 0 17.5 -3 17.25 C-5 15.25 -5 15.25 -5.265625 12.28125 C-5.26046875 11.1159375 -5.2553125 9.950625 -5.25 8.75 C-5.25515625 7.5846875 -5.2603125 6.419375 -5.265625 5.21875 C-4.89808855 1.11098968 -4.10821441 0.3423512 0 0 Z " fill="#000000" transform="translate(392,107.75)"/>
<path d="M0 0 C3 0.25 3 0.25 5 2.25 C5.265625 5.21875 5.265625 5.21875 5.25 8.75 C5.25515625 9.9153125 5.2603125 11.080625 5.265625 12.28125 C5 15.25 5 15.25 3 17.25 C0 17.5 0 17.5 -3 17.25 C-5 15.25 -5 15.25 -5.265625 12.28125 C-5.26046875 11.1159375 -5.2553125 9.950625 -5.25 8.75 C-5.25515625 7.5846875 -5.2603125 6.419375 -5.265625 5.21875 C-4.89808855 1.11098968 -4.10821441 0.3423512 0 0 Z " fill="#000000" transform="translate(362,107.75)"/>
<path d="M0 0 C3 0.25 3 0.25 5 2.25 C5.265625 5.21875 5.265625 5.21875 5.25 8.75 C5.25515625 9.9153125 5.2603125 11.080625 5.265625 12.28125 C5 15.25 5 15.25 3 17.25 C0 17.5 0 17.5 -3 17.25 C-5 15.25 -5 15.25 -5.265625 12.28125 C-5.26046875 11.1159375 -5.2553125 9.950625 -5.25 8.75 C-5.25515625 7.5846875 -5.2603125 6.419375 -5.265625 5.21875 C-4.89808855 1.11098968 -4.10821441 0.3423512 0 0 Z " fill="#000000" transform="translate(150,107.75)"/>
<path d="M0 0 C3 0.25 3 0.25 5 2.25 C5.265625 5.21875 5.265625 5.21875 5.25 8.75 C5.25515625 9.9153125 5.2603125 11.080625 5.265625 12.28125 C5 15.25 5 15.25 3 17.25 C0 17.5 0 17.5 -3 17.25 C-5 15.25 -5 15.25 -5.265625 12.28125 C-5.26046875 11.1159375 -5.2553125 9.950625 -5.25 8.75 C-5.25515625 7.5846875 -5.2603125 6.419375 -5.265625 5.21875 C-4.89808855 1.11098968 -4.10821441 0.3423512 0 0 Z " fill="#000000" transform="translate(120,107.75)"/>
<path d="M0 0 C0.721875 0.00257813 1.44375 0.00515625 2.1875 0.0078125 C2.909375 0.00523437 3.63125 0.00265625 4.375 0 C6.1875 0.1328125 6.1875 0.1328125 7.1875 1.1328125 C7.31287741 3.27589146 7.36324364 5.42360136 7.375 7.5703125 C7.38917969 8.74464844 7.40335937 9.91898437 7.41796875 11.12890625 C7.1875 14.1328125 7.1875 14.1328125 5.1875 16.1328125 C2.1875 16.3828125 2.1875 16.3828125 -0.8125 16.1328125 C-2.8125 14.1328125 -2.8125 14.1328125 -3.04296875 11.12890625 C-3.02878906 9.95457031 -3.01460938 8.78023438 -3 7.5703125 C-2.99033203 5.80494141 -2.99033203 5.80494141 -2.98046875 4.00390625 C-2.75805007 0.2020985 -2.75805007 0.2020985 0 0 Z " fill="#000000" transform="translate(389.8125,285.8671875)"/>
<path d="M0 0 C0.721875 0.00257813 1.44375 0.00515625 2.1875 0.0078125 C2.909375 0.00523437 3.63125 0.00265625 4.375 0 C6.1875 0.1328125 6.1875 0.1328125 7.1875 1.1328125 C7.31287741 3.27589146 7.36324364 5.42360136 7.375 7.5703125 C7.38917969 8.74464844 7.40335937 9.91898437 7.41796875 11.12890625 C7.1875 14.1328125 7.1875 14.1328125 5.1875 16.1328125 C2.1875 16.3828125 2.1875 16.3828125 -0.8125 16.1328125 C-2.8125 14.1328125 -2.8125 14.1328125 -3.04296875 11.12890625 C-3.02878906 9.95457031 -3.01460938 8.78023438 -3 7.5703125 C-2.99033203 5.80494141 -2.99033203 5.80494141 -2.98046875 4.00390625 C-2.75805007 0.2020985 -2.75805007 0.2020985 0 0 Z " fill="#000000" transform="translate(359.8125,285.8671875)"/>
<path d="M0 0 C0.721875 0.00257813 1.44375 0.00515625 2.1875 0.0078125 C2.909375 0.00523437 3.63125 0.00265625 4.375 0 C6.1875 0.1328125 6.1875 0.1328125 7.1875 1.1328125 C7.31287741 3.27589146 7.36324364 5.42360136 7.375 7.5703125 C7.38917969 8.74464844 7.40335938 9.91898437 7.41796875 11.12890625 C7.1875 14.1328125 7.1875 14.1328125 5.1875 16.1328125 C2.1875 16.3828125 2.1875 16.3828125 -0.8125 16.1328125 C-2.8125 14.1328125 -2.8125 14.1328125 -3.04296875 11.12890625 C-3.02878906 9.95457031 -3.01460937 8.78023438 -3 7.5703125 C-2.99033203 5.80494141 -2.99033203 5.80494141 -2.98046875 4.00390625 C-2.75805007 0.2020985 -2.75805007 0.2020985 0 0 Z " fill="#000000" transform="translate(147.8125,285.8671875)"/>
<path d="M0 0 C0.721875 0.00257813 1.44375 0.00515625 2.1875 0.0078125 C2.909375 0.00523437 3.63125 0.00265625 4.375 0 C6.1875 0.1328125 6.1875 0.1328125 7.1875 1.1328125 C7.31287741 3.27589146 7.36324364 5.42360136 7.375 7.5703125 C7.38917969 8.74464844 7.40335938 9.91898437 7.41796875 11.12890625 C7.1875 14.1328125 7.1875 14.1328125 5.1875 16.1328125 C2.1875 16.3828125 2.1875 16.3828125 -0.8125 16.1328125 C-2.8125 14.1328125 -2.8125 14.1328125 -3.04296875 11.12890625 C-3.02878906 9.95457031 -3.01460938 8.78023438 -3 7.5703125 C-2.99033203 5.80494141 -2.99033203 5.80494141 -2.98046875 4.00390625 C-2.75805007 0.2020985 -2.75805007 0.2020985 0 0 Z " fill="#000000" transform="translate(117.8125,285.8671875)"/>
<path d="M0 0 C0.721875 0.00257813 1.44375 0.00515625 2.1875 0.0078125 C2.909375 0.00523437 3.63125 0.00265625 4.375 0 C6.1875 0.1328125 6.1875 0.1328125 7.1875 1.1328125 C7.31287741 3.27589146 7.36324364 5.42360136 7.375 7.5703125 C7.38917969 8.74464844 7.40335937 9.91898438 7.41796875 11.12890625 C7.1875 14.1328125 7.1875 14.1328125 5.1875 16.1328125 C2.1875 16.3828125 2.1875 16.3828125 -0.8125 16.1328125 C-2.8125 14.1328125 -2.8125 14.1328125 -3.04296875 11.12890625 C-3.02878906 9.95457031 -3.01460938 8.78023437 -3 7.5703125 C-2.99033203 5.80494141 -2.99033203 5.80494141 -2.98046875 4.00390625 C-2.75805007 0.2020985 -2.75805007 0.2020985 0 0 Z " fill="#000000" transform="translate(389.8125,196.8671875)"/>
<path d="M0 0 C0.721875 0.00257813 1.44375 0.00515625 2.1875 0.0078125 C2.909375 0.00523437 3.63125 0.00265625 4.375 0 C6.1875 0.1328125 6.1875 0.1328125 7.1875 1.1328125 C7.31287741 3.27589146 7.36324364 5.42360136 7.375 7.5703125 C7.38917969 8.74464844 7.40335937 9.91898438 7.41796875 11.12890625 C7.1875 14.1328125 7.1875 14.1328125 5.1875 16.1328125 C2.1875 16.3828125 2.1875 16.3828125 -0.8125 16.1328125 C-2.8125 14.1328125 -2.8125 14.1328125 -3.04296875 11.12890625 C-3.02878906 9.95457031 -3.01460938 8.78023437 -3 7.5703125 C-2.99033203 5.80494141 -2.99033203 5.80494141 -2.98046875 4.00390625 C-2.75805007 0.2020985 -2.75805007 0.2020985 0 0 Z " fill="#000000" transform="translate(359.8125,196.8671875)"/>
<path d="M0 0 C0.721875 0.00257813 1.44375 0.00515625 2.1875 0.0078125 C2.909375 0.00523437 3.63125 0.00265625 4.375 0 C6.1875 0.1328125 6.1875 0.1328125 7.1875 1.1328125 C7.31287741 3.27589146 7.36324364 5.42360136 7.375 7.5703125 C7.38917969 8.74464844 7.40335938 9.91898438 7.41796875 11.12890625 C7.1875 14.1328125 7.1875 14.1328125 5.1875 16.1328125 C2.1875 16.3828125 2.1875 16.3828125 -0.8125 16.1328125 C-2.8125 14.1328125 -2.8125 14.1328125 -3.04296875 11.12890625 C-3.02878906 9.95457031 -3.01460937 8.78023437 -3 7.5703125 C-2.99033203 5.80494141 -2.99033203 5.80494141 -2.98046875 4.00390625 C-2.75805007 0.2020985 -2.75805007 0.2020985 0 0 Z " fill="#000000" transform="translate(147.8125,196.8671875)"/>
<path d="M0 0 C0.721875 0.00257813 1.44375 0.00515625 2.1875 0.0078125 C2.909375 0.00523437 3.63125 0.00265625 4.375 0 C6.1875 0.1328125 6.1875 0.1328125 7.1875 1.1328125 C7.31287741 3.27589146 7.36324364 5.42360136 7.375 7.5703125 C7.38917969 8.74464844 7.40335938 9.91898438 7.41796875 11.12890625 C7.1875 14.1328125 7.1875 14.1328125 5.1875 16.1328125 C2.1875 16.3828125 2.1875 16.3828125 -0.8125 16.1328125 C-2.8125 14.1328125 -2.8125 14.1328125 -3.04296875 11.12890625 C-3.02878906 9.95457031 -3.01460938 8.78023437 -3 7.5703125 C-2.99033203 5.80494141 -2.99033203 5.80494141 -2.98046875 4.00390625 C-2.75805007 0.2020985 -2.75805007 0.2020985 0 0 Z " fill="#000000" transform="translate(117.8125,196.8671875)"/>
</svg>
