<?xml version="1.0" encoding="UTF-8"?>
<svg version="1.1" xmlns="http://www.w3.org/2000/svg" width="512" height="512">
<path d="M0 0 C0.66465448 -0.00367669 1.32930896 -0.00735338 2.01410449 -0.01114148 C4.2457084 -0.02217222 6.47726573 -0.02602107 8.70889282 -0.02983093 C10.30711515 -0.03609593 11.90533602 -0.04274276 13.5035553 -0.04974365 C17.84861105 -0.06714708 22.19365581 -0.07770312 26.53873777 -0.08594918 C29.25261978 -0.09109962 31.96649837 -0.09717526 34.68037796 -0.10346031 C43.16942323 -0.12250861 51.6584598 -0.1367418 60.14752233 -0.14507228 C69.95099188 -0.1548513 79.75423603 -0.18118958 89.55762613 -0.22157317 C97.13307558 -0.25171004 104.70846032 -0.26653875 112.28396857 -0.26985329 C116.80970802 -0.27220609 121.33520658 -0.28119658 125.86088181 -0.30631447 C130.11759833 -0.32955855 134.37391469 -0.33384335 138.63067818 -0.32355309 C140.19277463 -0.32305676 141.75489053 -0.3294058 143.31692696 -0.34310913 C145.45029122 -0.36077733 147.58221137 -0.35374893 149.71557617 -0.34057617 C150.9090888 -0.34296453 152.10260143 -0.34535288 153.33228111 -0.34781361 C157.21649945 0.26206239 158.70666829 1.3979809 161.48477173 4.14717102 C162.10576421 6.72787452 162.10576421 6.72787452 162.10001087 9.71500778 C162.10996611 10.85507554 162.11992136 11.99514329 162.13017827 13.16975856 C162.11561407 14.42266539 162.10104986 15.67557222 162.08604431 16.96644592 C162.08822432 18.31046342 162.09260156 19.65447886 162.09899014 20.99848294 C162.11018735 24.69522846 162.09014825 28.39125171 162.06509984 32.08790517 C162.04353778 36.07287546 162.05081224 40.05780396 162.05461121 44.04281616 C162.0572349 50.94823126 162.04152744 57.85341042 162.01342201 64.75876617 C161.97281271 74.74274993 161.95976744 84.72661942 161.95348205 94.71067682 C161.94253482 110.90848568 161.90924902 127.10616875 161.86196899 143.3039093 C161.81608448 159.0399055 161.78068715 174.77586754 161.75942993 190.51191711 C161.75811631 191.48163978 161.7568027 192.45136245 161.75544927 193.45047066 C161.74892416 198.31521106 161.7426056 203.17995171 161.73638976 208.04469252 C161.6845434 248.41227287 161.59646647 288.77971475 161.48477173 329.14717102 C162.65395142 329.08916321 163.8231311 329.0311554 165.02774048 328.97138977 C166.57587753 328.92447653 168.1240579 328.87897804 169.67227173 328.83467102 C170.44119751 328.79277649 171.21012329 328.75088196 172.00234985 328.7077179 C176.17988453 328.61807123 177.98853504 328.79586643 181.49797344 331.2803297 C183.82144241 334.63296841 184.10331724 336.28381159 184.08604431 340.32913208 C184.09635429 342.19476303 184.09635429 342.19476303 184.10687256 344.0980835 C184.08917919 345.46837461 184.07100518 346.83865958 184.05239868 348.2089386 C184.05098768 349.65793305 184.05178121 351.10693108 184.05461121 352.55592346 C184.05604477 356.4835022 184.02666556 360.41031617 183.99174142 364.33771729 C183.96046752 368.44430292 183.95754638 372.55090643 183.95161438 376.65759277 C183.93607891 384.43140003 183.89505467 392.20485536 183.84486693 399.9785077 C183.78896406 408.82967512 183.76148463 417.68085941 183.73638976 426.53215945 C183.6841384 444.73736277 183.59620207 462.94223859 183.48477173 481.14717102 C185.37195923 481.10269836 185.37195923 481.10269836 187.29727173 481.05732727 C190.42101891 480.98371438 191.54564703 481.17634044 194.48477173 482.58467102 C197.01457192 485.82597752 197.0801475 487.91711587 197.14883423 491.92842102 C196.15151498 495.26064064 194.36049144 496.26527635 191.48477173 498.14717102 C188.2662487 498.64856768 188.2662487 498.64856768 184.54284668 498.65053558 C183.85309572 498.65634935 183.16334477 498.66216311 182.45269227 498.66815305 C180.13604551 498.68277813 177.82045414 498.66885711 175.5038147 498.65510559 C173.82838842 498.65971354 172.15296617 498.66606574 170.47755241 498.67401457 C165.86935359 498.69074567 161.2614852 498.6824444 156.65328503 498.67006969 C151.68524601 498.66103697 146.71726469 498.67498009 141.74923706 498.68598938 C132.01520075 498.70379821 122.28128764 498.69992409 112.54724646 498.68833882 C104.63788178 498.67931406 96.72855169 498.67807634 88.81918335 498.68243408 C87.69450775 498.68304701 86.56983215 498.68365995 85.41107547 498.68429145 C83.12648979 498.68557032 80.84190411 498.68686717 78.55731845 498.68818182 C57.12268537 498.69959454 35.68812066 498.68646305 14.25349879 498.66498035 C-4.1479601 498.64710876 -22.54931807 498.65021267 -40.95077515 498.6686554 C-62.3074529 498.69004987 -83.6640707 498.69849584 -105.02075768 498.68620634 C-107.29705174 498.68493211 -109.57334581 498.68367463 -111.84963989 498.68243408 C-113.5297153 498.68150843 -113.5297153 498.68150843 -115.24373162 498.68056408 C-123.1457889 498.67710691 -131.04780822 498.68294742 -138.94985962 498.69235229 C-148.57669578 498.70355785 -158.20340144 498.70056263 -167.83022261 498.67922932 C-172.74424645 498.66869947 -177.65805254 498.66462998 -182.57207489 498.67782593 C-187.06758393 498.68971565 -191.56267265 498.68324402 -196.05814338 498.66191572 C-197.68727379 498.6574351 -199.31643947 498.65974852 -200.94554734 498.66941887 C-203.15530853 498.68153317 -205.36361856 498.66916054 -207.57330322 498.65053558 C-208.80202589 498.64988617 -210.03074856 498.64923676 -211.29670525 498.64856768 C-215.12899665 498.0515553 -216.79688741 496.86496761 -219.51522827 494.14717102 C-220.44050794 491.05564838 -220.2172012 488.2830337 -219.51522827 485.14717102 C-217.51522827 482.58467102 -217.51522827 482.58467102 -214.51522827 481.14717102 C-211.83375243 480.96291569 -209.20715502 481.08373422 -206.51522827 481.14717102 C-206.51891544 480.09434307 -206.52260262 479.04151512 -206.52640152 477.95678329 C-206.61512798 452.36068161 -206.68089714 426.76459982 -206.72247696 401.16837692 C-206.74311816 388.79032177 -206.7712686 376.41236808 -206.81698608 364.03437805 C-206.85680606 353.24801163 -206.88264974 342.46171869 -206.89158225 331.67528081 C-206.89680518 325.96184652 -206.90911344 320.24862246 -206.9381485 314.53525543 C-206.96524105 309.1607243 -206.97368571 303.78649059 -206.967659 298.41189766 C-206.96876199 296.43656614 -206.97675237 294.46122497 -206.99205017 292.48595238 C-207.01188173 289.79386032 -207.00719261 287.10289877 -206.99624634 284.41078186 C-207.0078977 283.62478883 -207.01954907 282.83879579 -207.03155351 282.02898479 C-206.99552676 278.76268046 -206.7148798 276.49105515 -205.06328964 273.64632034 C-201.19861513 271.37254301 -197.65750184 271.71873491 -193.26522827 271.89717102 C-192.42475952 271.9152179 -191.58429077 271.93326477 -190.71835327 271.95185852 C-188.65015433 271.99886304 -186.58254386 272.07060378 -184.51522827 272.14717102 C-184.51799365 270.96642156 -184.52075903 269.78567209 -184.52360821 268.56914234 C-184.58856889 240.54630518 -184.63804337 212.52347177 -184.66842426 184.5005755 C-184.67217642 181.05212609 -184.67605938 177.60367684 -184.68002319 174.15522766 C-184.68081012 173.46869782 -184.68159706 172.78216797 -184.68240783 172.07483419 C-184.69546501 160.95576182 -184.71912056 149.83673594 -184.74668666 138.71769116 C-184.77473222 127.31019107 -184.79117814 115.90272873 -184.79749376 104.49519318 C-184.80141011 98.08704357 -184.81063632 91.67899942 -184.83241844 85.27088356 C-184.85274514 79.24223013 -184.85906976 73.21372587 -184.85455132 67.18504143 C-184.85537822 64.9698671 -184.86136645 62.7546879 -184.8728447 60.53954315 C-184.88772887 57.51955524 -184.88419657 54.50013355 -184.87599182 51.48013306 C-184.88473035 50.59977916 -184.89346887 49.71942526 -184.9024722 48.81239396 C-184.86783873 44.10926645 -184.59821319 40.95496774 -181.51522827 37.14717102 C-178.85350138 35.81630757 -176.82347445 36.00904212 -173.84156799 35.99327087 C-172.03082542 35.98037018 -172.03082542 35.98037018 -170.1835022 35.96720886 C-168.83859296 35.96277352 -167.49368326 35.95847518 -166.14877319 35.95429993 C-164.73788755 35.94639969 -163.32700392 35.93813079 -161.91612244 35.92951965 C-157.27600029 35.90329136 -152.63586907 35.88799167 -147.99569702 35.87373352 C-146.39911709 35.86837426 -144.80253722 35.86299675 -143.20595741 35.85760117 C-136.56538646 35.83597165 -129.92481796 35.81723434 -123.2842207 35.80597878 C-113.76319259 35.78973551 -104.24257233 35.75654983 -94.72169799 35.69957793 C-88.02949043 35.66089588 -81.33739205 35.64134819 -74.64507562 35.63605821 C-70.64685212 35.63240244 -66.64906353 35.620358 -62.65096092 35.58795547 C-58.88910176 35.55790469 -55.12794132 35.55155176 -51.36598778 35.56333923 C-49.9860982 35.56356022 -48.60617648 35.55523388 -47.22639847 35.53768539 C-36.8410907 35.41280218 -36.8410907 35.41280218 -32.19104004 37.9883728 C-29.67362251 42.73354417 -29.85756281 46.97543386 -29.94760132 52.2714386 C-29.94650612 53.95502472 -29.94650612 53.95502472 -29.94538879 55.67262268 C-29.94886993 59.37947551 -29.9877591 63.08506916 -30.02694702 66.79170227 C-30.03627319 69.36287754 -30.04339023 71.93406169 -30.04838562 74.50524902 C-30.06552026 80.57915905 -30.10491878 86.65255006 -30.15513307 92.72626466 C-30.21107049 99.64275101 -30.23852396 106.55925921 -30.26361024 113.47591555 C-30.31583664 127.69990951 -30.4037513 141.92352422 -30.51522827 156.14717102 C-29.65671265 156.4127179 -28.79819702 156.67826477 -27.91366577 156.95185852 C-24.48612019 158.15740904 -21.37349029 159.61961488 -18.14022827 161.27217102 C-17.0806189 161.81099915 -16.02100952 162.34982727 -14.92929077 162.90498352 C-14.13265015 163.3149054 -13.33600952 163.72482727 -12.51522827 164.14717102 C-12.51799365 163.33141476 -12.52075903 162.51565849 -12.52360821 161.67518234 C-12.5898259 141.8372585 -12.63948831 121.99935367 -12.67066479 102.16134262 C-12.68614175 92.56787399 -12.70724711 82.97447906 -12.74154663 73.38105774 C-12.7714236 65.02062629 -12.79079724 56.66024822 -12.79749376 48.29976487 C-12.80140891 43.87185704 -12.81062723 39.44410193 -12.83241844 35.01624298 C-12.85275674 30.84991542 -12.85906748 26.68380374 -12.85455132 22.51743126 C-12.85537771 20.98717006 -12.86135926 19.45690175 -12.8728447 17.92668343 C-12.88774775 15.83900395 -12.88419057 13.75214194 -12.87599182 11.66444397 C-12.8787572 10.49561047 -12.88152258 9.32677696 -12.88437176 8.12252426 C-12.47589109 4.83010731 -11.85006921 3.46829443 -9.51522827 1.14717102 C-6.13498881 0.02042453 -3.56450463 0.0127711 0 0 Z M3.48477173 17.14717102 C3.48477173 68.29717102 3.48477173 119.44717102 3.48477173 172.14717102 C11.40477173 175.61217102 11.40477173 175.61217102 19.48477173 179.14717102 C19.42289673 177.55904602 19.36102173 175.97092102 19.29727173 174.33467102 C19.18887552 171.55250178 19.12747222 169.7845161 20.49649048 167.34248352 C23.64907058 165.44721926 26.91997681 165.75538288 30.48477173 165.83467102 C31.20922485 165.83144836 31.93367798 165.82822571 32.68008423 165.8249054 C36.46547463 165.86331803 38.26773067 166.00247698 41.48477173 168.14717102 C42.81815903 173.65850522 42.81815903 173.65850522 42.48477173 176.14717102 C40.28359896 179.23864443 39.00595222 180.04897759 35.25039673 180.75654602 C34.09024048 180.80295227 32.93008423 180.84935852 31.73477173 180.89717102 C30.56430298 180.95388977 29.39383423 181.01060852 28.18789673 181.06904602 C26.84984985 181.1077179 26.84984985 181.1077179 25.48477173 181.14717102 C28.61128813 183.69230459 31.78135027 185.32021319 35.45742798 186.95967102 C36.60404907 187.47787415 37.75067017 187.99607727 38.93203735 188.52998352 C41.34544898 189.60956473 43.75951411 190.6876862 46.17422485 191.76435852 C47.31955688 192.28256165 48.46488892 192.80076477 49.64492798 193.33467102 C51.21706055 194.03656555 51.21706055 194.03656555 52.82095337 194.75263977 C55.36245423 196.08313678 56.74406769 196.91259463 58.48477173 199.14717102 C58.86953259 201.54657269 58.86953259 201.54657269 58.88349915 204.4432373 C58.89603729 205.54120132 58.90857544 206.63916534 58.92149353 207.770401 C58.92005844 208.97521118 58.91862335 210.18002136 58.91714478 211.42134094 C58.93243225 213.32394432 58.93243225 213.32394432 58.94802856 215.26498413 C58.97564569 218.74405704 58.98488937 222.22296651 58.99088264 225.70213485 C59.00025414 229.3377137 59.02645647 232.97316987 59.05088806 236.6086731 C59.09459059 243.49341295 59.12311442 250.37812905 59.14621145 257.2629655 C59.17829635 266.56615024 59.23377481 275.86919339 59.28795719 285.17227077 C59.37271092 299.83052883 59.42616222 314.48873114 59.48477173 329.14717102 C87.86477173 329.14717102 116.24477173 329.14717102 145.48477173 329.14717102 C145.48477173 226.18717102 145.48477173 123.22717102 145.48477173 17.14717102 C98.62477173 17.14717102 51.76477173 17.14717102 3.48477173 17.14717102 Z M-167.51522827 52.14717102 C-167.51522827 124.74717102 -167.51522827 197.34717102 -167.51522827 272.14717102 C-139.46522827 272.14717102 -111.41522827 272.14717102 -82.51522827 272.14717102 C-82.45464233 262.79760071 -82.3940564 253.4480304 -82.33163452 243.81513977 C-82.2911563 237.90432808 -82.25043162 231.99351981 -82.20858765 226.0827179 C-82.14216637 216.69365586 -82.07677302 207.30459446 -82.01791382 197.91548157 C-81.97504711 191.07819976 -81.92876282 184.24095116 -81.87834972 177.40372068 C-81.85176883 173.78243481 -81.82691625 170.16115545 -81.80615425 166.53983116 C-81.78293051 162.50028458 -81.75207786 158.46083125 -81.72055054 154.42134094 C-81.71479507 153.21653076 -81.70903961 152.01172058 -81.70310974 150.770401 C-81.69332092 149.67243698 -81.6835321 148.57447296 -81.67344666 147.4432373 C-81.6669941 146.48733798 -81.66054155 145.53143866 -81.65389347 144.54657269 C-81.51522827 142.14717102 -81.51522827 142.14717102 -80.51522827 139.14717102 C-72.01391238 137.27674185 -66.62573904 139.2230035 -59.01522827 143.08467102 C-57.0685648 144.03386006 -55.120708 144.98060695 -53.17147827 145.92451477 C-52.32391968 146.34982483 -51.47636108 146.77513489 -50.6031189 147.21333313 C-48.59214572 148.28326651 -48.59214572 148.28326651 -46.51522827 148.14717102 C-46.51522827 116.46717102 -46.51522827 84.78717102 -46.51522827 52.14717102 C-86.44522827 52.14717102 -126.37522827 52.14717102 -167.51522827 52.14717102 Z M-66.51522827 158.14717102 C-66.56266321 190.20885066 -66.43773057 222.27006243 -66.32168493 254.33146517 C-66.29317791 262.21482178 -66.2654359 270.09818103 -66.23772508 277.98154046 C-66.18831941 292.0313 -66.13834039 306.08105744 -66.08798218 320.1308136 C-66.03916985 333.74962761 -65.99063914 347.36844259 -65.94247437 360.98725891 C-65.93948737 361.83181888 -65.93650037 362.67637884 -65.93342286 363.54653154 C-65.9184343 367.78496242 -65.90345113 372.02339333 -65.88847065 376.26182425 C-65.76489335 411.22360952 -65.64026874 446.18539095 -65.51522827 481.14717102 C-29.54522827 481.14717102 6.42477173 481.14717102 43.48477173 481.14717102 C43.48477173 391.05717102 43.48477173 300.96717102 43.48477173 208.14717102 C30.89156872 201.80769198 30.89156872 201.80769198 18.14102173 195.84248352 C17.33943634 195.48065979 16.53785095 195.11883606 15.7119751 194.74604797 C13.13764304 193.58494547 10.5612759 192.42844443 7.98477173 191.27217102 C6.16026939 190.45066197 4.33589026 189.62887923 2.5116272 188.80683899 C-1.26119456 187.10734862 -5.03487138 185.40977711 -8.80917358 183.71357727 C-13.52848009 181.59207822 -18.24502345 179.46452488 -22.96035767 177.33421326 C-26.57311145 175.70203623 -30.18655968 174.07140063 -33.80014038 172.4410553 C-35.50460481 171.67184523 -37.20887455 170.90220359 -38.91293335 170.13209534 C-41.29783286 169.05469404 -43.68374587 167.97956775 -46.06991577 166.90498352 C-47.08944839 166.44357971 -47.08944839 166.44357971 -48.12957764 165.97285461 C-52.32133413 164.088355 -56.54414523 162.29106053 -60.78820801 160.52726746 C-61.86254656 160.08051603 -62.93688511 159.63376461 -64.04377937 159.17347527 C-64.85935751 158.83479486 -65.67493565 158.49611446 -66.51522827 158.14717102 Z M-190.51522827 288.14717102 C-190.51522827 351.83717102 -190.51522827 415.52717102 -190.51522827 481.14717102 C-154.87522827 481.14717102 -119.23522827 481.14717102 -82.51522827 481.14717102 C-82.51522827 417.45717102 -82.51522827 353.76717102 -82.51522827 288.14717102 C-118.15522827 288.14717102 -153.79522827 288.14717102 -190.51522827 288.14717102 Z M58.48477173 346.14717102 C58.48477173 390.69717102 58.48477173 435.24717102 58.48477173 481.14717102 C65.08477173 481.14717102 71.68477173 481.14717102 78.48477173 481.14717102 C78.52215454 478.80881165 78.55953735 476.47045227 78.59805298 474.06123352 C78.64443478 471.76410755 78.69560726 469.46713389 78.7472229 467.17012024 C78.7802131 465.58948744 78.80832321 464.00874415 78.83120728 462.42793274 C79.0224014 449.56504302 79.79573147 438.3857241 88.48477173 428.14717102 C96.21255473 420.81937679 104.03363563 418.63971154 114.48086548 418.72749329 C123.58613379 419.05830385 130.15221338 421.99609554 136.73086548 428.22920227 C143.78507019 435.94326578 145.73588824 444.36751687 145.89883423 454.58467102 C145.91820038 455.35021301 145.93756653 456.115755 145.95751953 456.90449524 C146.01668119 459.31861177 146.06344317 461.73277767 146.10977173 464.14717102 C146.1480101 465.79692991 146.18706512 467.44667009 146.22695923 469.09638977 C146.32384741 473.11321226 146.40391497 477.12986685 146.48477173 481.14717102 C153.08477173 481.14717102 159.68477173 481.14717102 166.48477173 481.14717102 C166.48477173 436.59717102 166.48477173 392.04717102 166.48477173 346.14717102 C130.84477173 346.14717102 95.20477173 346.14717102 58.48477173 346.14717102 Z M97.64883423 442.42842102 C95.00337851 446.33446302 95.35497527 450.36206652 95.38711548 454.87763977 C95.38812256 455.54299744 95.38912964 456.2083551 95.39016724 456.89387512 C95.39539067 459.37415801 95.40935195 461.85441628 95.42227173 464.33467102 C95.44289673 469.88279602 95.46352173 475.43092102 95.48477173 481.14717102 C106.70477173 481.14717102 117.92477173 481.14717102 129.48477173 481.14717102 C129.60012171 476.3075984 129.69947135 471.47286755 129.75942993 466.63301086 C129.78444227 464.98994208 129.81846399 463.34698308 129.86196899 461.70429993 C130.48394257 449.97794464 130.48394257 449.97794464 125.94595337 439.50849915 C122.06875101 435.89625514 118.13196009 434.34945731 112.92227173 433.70967102 C105.95276221 434.59669951 101.99448913 437.12997547 97.64883423 442.42842102 Z " fill="#000000" transform="translate(267.5152282714844,6.8528289794921875)"/>
<path d="M0 0 C0.67530258 -0.00511093 1.35060516 -0.01022186 2.04637146 -0.01548767 C4.27327395 -0.02935999 6.49986614 -0.02842875 8.72680664 -0.02612305 C10.27853001 -0.03001127 11.83025233 -0.0343462 13.38197327 -0.03910828 C16.63261364 -0.04656538 19.8831454 -0.04628292 23.13378906 -0.04101562 C27.29451721 -0.03522145 31.45480013 -0.05215288 35.61545467 -0.0753603 C38.81969288 -0.09010914 42.02382415 -0.09096779 45.22809029 -0.08785057 C46.76185551 -0.0883632 48.29562682 -0.09359002 49.82935905 -0.10366249 C51.97637542 -0.11603244 54.12252817 -0.10923284 56.26953125 -0.09765625 C58.10009315 -0.09860039 58.10009315 -0.09860039 59.96763611 -0.0995636 C63.5223855 0.31205027 65.36673186 1.12384771 68.19946289 3.2746582 C70.19946289 6.2746582 70.19946289 6.2746582 69.94946289 9.7746582 C69.19946289 13.2746582 69.19946289 13.2746582 67.19946289 16.2746582 C63.75130143 17.42404536 61.05873602 17.41575105 57.4206543 17.43579102 C56.73574417 17.44075592 56.05083405 17.44572083 55.34516907 17.45083618 C53.08044427 17.46543536 50.81578951 17.47225586 48.55102539 17.4777832 C46.97545368 17.4835363 45.39988198 17.48929401 43.8243103 17.49505615 C40.52064691 17.5055596 37.21700781 17.51140663 33.91333008 17.51489258 C29.68422399 17.5203774 25.45543984 17.54440772 21.22643471 17.57286453 C17.97159899 17.59150585 14.71684061 17.59669729 11.46195602 17.59822845 C9.90306207 17.60125191 8.34416938 17.60927011 6.78532791 17.62241364 C4.60232418 17.63950671 2.42010441 17.63758646 0.23706055 17.63110352 C-1.00409515 17.63474915 -2.24525085 17.63839478 -3.52401733 17.64215088 C-7.07780221 17.2435603 -8.96797653 16.41931882 -11.80053711 14.2746582 C-13.18491806 10.88675106 -13.12145729 7.38329154 -12.11303711 3.8996582 C-8.8656668 -0.12089551 -4.88853316 0.01846816 0 0 Z " fill="#000000" transform="translate(102.800537109375,452.725341796875)"/>
<path d="M0 0 C0.68520218 -0.00686325 1.37040436 -0.0137265 2.07637024 -0.02079773 C4.33042402 -0.03902709 6.5837793 -0.03523455 8.83789062 -0.02954102 C10.41060613 -0.03410428 11.98331965 -0.03941029 13.55603027 -0.04542542 C16.84782019 -0.05434857 20.13936738 -0.0519421 23.43115234 -0.04199219 C27.64468167 -0.03049566 31.85737379 -0.05072771 36.07079315 -0.07990932 C39.31709085 -0.09827399 42.56318792 -0.09797853 45.80952454 -0.0922718 C47.36283036 -0.09211866 48.91614984 -0.09815723 50.46940613 -0.11056328 C52.64289594 -0.12547985 54.8148391 -0.11479437 56.98828125 -0.09765625 C58.84096619 -0.097407 58.84096619 -0.097407 60.7310791 -0.09715271 C64.62143606 0.50040516 66.27373235 1.59812769 68.99414062 4.40405273 C69.92409274 7.87587397 70.33682308 10.25139356 69.30664062 13.71655273 C67.65602917 15.83876746 66.51175878 16.42827788 63.99414062 17.40405273 C60.84460449 17.65802002 60.84460449 17.65802002 57.0859375 17.6628418 C56.39927505 17.66634644 55.71261261 17.66985107 55.00514221 17.67346191 C52.74095476 17.68224659 50.47708112 17.67644175 48.21289062 17.66967773 C46.63635193 17.67102533 45.05981364 17.67296665 43.48327637 17.67547607 C40.18135618 17.67842291 36.8795443 17.67414389 33.57763672 17.66479492 C29.34739307 17.6534006 25.11740322 17.65996243 20.88716888 17.67193985 C17.63236584 17.67917036 14.37762286 17.67686505 11.12281799 17.67168427 C9.56311513 17.67035106 8.0034068 17.67198395 6.44371033 17.67664337 C4.26310805 17.68172822 2.08291555 17.67397116 -0.09765625 17.6628418 C-1.33801636 17.66125061 -2.57837646 17.65965942 -3.85632324 17.65802002 C-6.8589225 17.4159012 -8.51766438 17.04054846 -11.00585938 15.40405273 C-13.55331224 12.25006347 -13.08432649 9.13286662 -12.78320312 5.30639648 C-10.63330364 0.04508467 -4.94118273 0.02161495 0 0 Z " fill="#000000" transform="translate(103.005859375,418.595947265625)"/>
<path d="M0 0 C0.68520218 -0.00686325 1.37040436 -0.0137265 2.07637024 -0.02079773 C4.33042402 -0.03902709 6.5837793 -0.03523455 8.83789062 -0.02954102 C10.41060613 -0.03410428 11.98331965 -0.03941029 13.55603027 -0.04542542 C16.84782019 -0.05434857 20.13936738 -0.0519421 23.43115234 -0.04199219 C27.64468167 -0.03049566 31.85737379 -0.05072771 36.07079315 -0.07990932 C39.31709085 -0.09827399 42.56318792 -0.09797853 45.80952454 -0.0922718 C47.36283036 -0.09211866 48.91614984 -0.09815723 50.46940613 -0.11056328 C52.64289594 -0.12547985 54.8148391 -0.11479437 56.98828125 -0.09765625 C58.84096619 -0.097407 58.84096619 -0.097407 60.7310791 -0.09715271 C64.62143606 0.50040516 66.27373235 1.59812769 68.99414062 4.40405273 C69.9181985 7.85386879 70.3049659 10.25399921 69.36914062 13.71655273 C67.4814123 16.03331023 65.83866717 16.49204146 62.99414062 17.40405273 C59.80700684 17.65802002 59.80700684 17.65802002 56.171875 17.6628418 C55.50617996 17.66634644 54.84048492 17.66985107 54.15461731 17.67346191 C51.96560069 17.68222675 49.77691024 17.67644885 47.58789062 17.66967773 C46.06001728 17.6710259 44.53214435 17.67296769 43.00427246 17.67547607 C39.80668034 17.67842022 36.60920017 17.67415257 33.41162109 17.66479492 C29.31938514 17.65340075 25.22741157 17.65996403 21.13518524 17.67193985 C17.98156773 17.67917764 14.8280121 17.67686172 11.6743927 17.67168427 C10.16575591 17.67035308 8.65711344 17.67197685 7.14848328 17.67664337 C5.03764021 17.68174025 2.92721809 17.67395444 0.81640625 17.6628418 C-0.38318726 17.66125061 -1.58278076 17.65965942 -2.81872559 17.65802002 C-5.98712017 17.40554597 -8.1786546 16.8250064 -11.00585938 15.40405273 C-13.61163497 12.32449976 -13.08213665 9.10503957 -12.78320312 5.30639648 C-10.63330364 0.04508467 -4.94118273 0.02161495 0 0 Z " fill="#000000" transform="translate(103.005859375,349.595947265625)"/>
<path d="M0 0 C0.67501053 -0.0049649 1.35002106 -0.00992981 2.04548645 -0.01504517 C4.28318292 -0.02967416 6.52080845 -0.03647056 8.75854492 -0.04199219 C10.31312563 -0.04774377 11.86770632 -0.0535015 13.42228699 -0.05926514 C16.68484834 -0.06977772 19.94738503 -0.07561845 23.20996094 -0.07910156 C27.38641071 -0.0845818 31.56253372 -0.10859842 35.73888111 -0.13707352 C38.95168502 -0.15571839 42.16441059 -0.16090651 45.37726402 -0.16243744 C46.91662059 -0.16546118 48.45597587 -0.17348034 49.99527931 -0.18662262 C52.15205166 -0.20371968 54.30803072 -0.20179426 56.46484375 -0.1953125 C57.69125076 -0.19895813 58.91765778 -0.20260376 60.18122864 -0.20635986 C63.72107676 0.19448883 65.58417144 1.05860978 68.42651367 3.16113281 C70.38789755 5.74659337 70.43949631 6.94908307 70.23901367 10.22363281 C69.41022073 13.22003806 68.85534679 14.31521964 66.42651367 16.16113281 C63.52394364 17.61241783 60.98779254 17.2964676 57.74536133 17.30639648 C56.71580574 17.3114344 56.71580574 17.3114344 55.66545105 17.3165741 C53.39047447 17.32609329 51.11557144 17.32802777 48.84057617 17.32910156 C47.26117929 17.33231376 45.68178272 17.33567781 44.10238647 17.33918762 C40.78854686 17.34518152 37.47473333 17.34702728 34.16088867 17.34643555 C29.91491218 17.34633398 25.6691031 17.35997973 21.42316628 17.37720776 C18.1597924 17.38832831 14.89645897 17.39035473 11.63306808 17.38982582 C10.06777749 17.3910061 8.50248586 17.39543058 6.9372139 17.40315819 C4.74684192 17.41295811 2.55683293 17.41008005 0.36645508 17.40405273 C-1.5031337 17.40619026 -1.5031337 17.40619026 -3.41049194 17.40837097 C-6.42421269 17.17280091 -8.08090856 16.80989102 -10.57348633 15.16113281 C-12.67028035 12.46525478 -12.56859454 11.06818881 -12.38598633 7.59863281 C-11.59836351 4.26638242 -11.2766702 3.1074252 -8.57348633 1.16113281 C-5.69823474 -0.27649298 -3.21331917 0.01792499 0 0 Z " fill="#000000" transform="translate(102.573486328125,383.8388671875)"/>
<path d="M0 0 C1.0588163 -0.00744736 1.0588163 -0.00744736 2.13902283 -0.01504517 C4.4789222 -0.0296744 6.81875378 -0.03647002 9.15869141 -0.04199219 C10.78292849 -0.04774302 12.40716555 -0.05350076 14.03140259 -0.05926514 C17.43939531 -0.06977729 20.84736443 -0.07561855 24.25537109 -0.07910156 C28.62248338 -0.08458674 32.98928394 -0.10861415 37.35629845 -0.13707352 C40.71232006 -0.15569659 44.06826655 -0.16090531 47.42433548 -0.16243744 C49.03429494 -0.16546527 50.64425303 -0.1734982 52.25416183 -0.18662262 C54.50692207 -0.20367665 56.75892016 -0.20180485 59.01171875 -0.1953125 C60.29364105 -0.19895813 61.57556335 -0.20260376 62.89633179 -0.20635986 C66.33409966 0.18369413 67.71152762 0.74835147 70.13525391 3.16113281 C70.88525391 5.02832031 70.88525391 5.02832031 71.13525391 7.03613281 C71.23837891 7.69355469 71.34150391 8.35097656 71.44775391 9.02832031 C70.96069921 12.35246862 69.50362551 13.82291898 67.13525391 16.16113281 C63.82713318 16.78259277 63.82713318 16.78259277 59.84399414 16.77636719 C58.75306961 16.7846907 58.75306961 16.7846907 57.6401062 16.79318237 C55.24067911 16.80497534 52.84314205 16.78071245 50.44384766 16.75488281 C48.77523383 16.75317171 47.10661731 16.75323739 45.43800354 16.75500488 C41.9433516 16.75335193 38.44934139 16.73465733 34.95483398 16.703125 C30.47324257 16.66341624 25.99249047 16.65908329 21.51075649 16.66658783 C18.06635331 16.66965551 14.62213922 16.6575448 11.17778206 16.64045715 C9.52515918 16.63342178 7.87251488 16.63030327 6.21987724 16.63114929 C3.91189616 16.6293537 1.6049257 16.60799506 -0.70288086 16.58105469 C-2.01652115 16.5726355 -3.33016144 16.56421631 -4.68360901 16.55554199 C-7.86474609 16.16113281 -7.86474609 16.16113281 -9.75767517 14.8458252 C-11.61793877 12.01495695 -11.74961586 9.49990945 -11.86474609 6.16113281 C-9.03632234 -0.03446207 -6.47601782 0.03453659 0 0 Z " fill="#000000" transform="translate(101.86474609375,315.8388671875)"/>
<path d="M0 0 C1.2890625 0.00128906 2.578125 0.00257812 3.90625 0.00390625 C7.62100829 0.45209991 9.55069273 1.18700247 12.5 3.4375 C14.02846661 6.49443322 13.73242445 9.06734547 13.5 12.4375 C11.73984869 15.6225357 11.00109084 16.27046972 7.5 17.4375 C5.04548666 17.60959806 2.58511082 17.70408438 0.125 17.75 C-1.83566406 17.80607422 -1.83566406 17.80607422 -3.8359375 17.86328125 C-8.04761291 17.37386481 -9.66162452 16.55003675 -12.5 13.4375 C-13.1640625 11.21875 -13.1640625 11.21875 -13.125 8.9375 C-13.13789063 8.1846875 -13.15078125 7.431875 -13.1640625 6.65625 C-11.26601084 0.31452446 -5.78958589 -0.08684379 0 0 Z " fill="#000000" transform="translate(185.5,110.5625)"/>
<path d="M0 0 C1.2890625 0.00128906 2.578125 0.00257812 3.90625 0.00390625 C7.62100829 0.45209991 9.55069273 1.18700247 12.5 3.4375 C14.02846661 6.49443322 13.73242445 9.06734547 13.5 12.4375 C11.73984869 15.6225357 11.00109084 16.27046972 7.5 17.4375 C5.04548666 17.60959806 2.58511082 17.70408438 0.125 17.75 C-1.83566406 17.80607422 -1.83566406 17.80607422 -3.8359375 17.86328125 C-8.04761291 17.37386481 -9.66162452 16.55003675 -12.5 13.4375 C-13.1640625 11.21875 -13.1640625 11.21875 -13.125 8.9375 C-13.13789062 8.1846875 -13.15078125 7.431875 -13.1640625 6.65625 C-11.26601084 0.31452446 -5.78958589 -0.08684379 0 0 Z " fill="#000000" transform="translate(133.5,110.5625)"/>
<path d="M0 0 C1.22589844 -0.01417969 2.45179688 -0.02835938 3.71484375 -0.04296875 C6.86444965 0.17386526 8.50940703 0.40448148 11.0625 2.1875 C13.56281654 5.93797482 13.59853554 7.74606266 13.0625 12.1875 C10.29947552 15.8555614 8.8310253 17.06072482 4.25 17.81640625 C2.85399675 17.8203572 1.45769634 17.79762202 0.0625 17.75 C-0.63617188 17.76095703 -1.33484375 17.77191406 -2.0546875 17.78320312 C-5.61205494 17.73286302 -7.83045443 17.25060055 -10.90625 15.4375 C-13.19216241 12.90541241 -13.57353521 11.97486696 -13.4375 8.625 C-13.4271875 7.86058594 -13.416875 7.09617188 -13.40625 6.30859375 C-12.83099726 3.70557511 -12.02585141 2.80794249 -9.9375 1.1875 C-6.46363568 0.02954523 -3.65980696 0.01920151 0 0 Z " fill="#000000" transform="translate(133.9375,144.8125)"/>
<path d="M0 0 C1.21042969 -0.0299707 1.21042969 -0.0299707 2.4453125 -0.06054688 C6.25915087 -0.05740014 8.35055685 -0.01851333 11.53125 2.21484375 C13.07353444 4.54877951 13.54318896 5.67340687 13.5 8.4375 C13.5103125 9.0975 13.520625 9.7575 13.53125 10.4375 C12.71014216 13.52872953 11.62321062 14.59153697 9 16.4375 C5.98742667 17.02252425 3.06009836 16.99616003 0 16.9375 C-0.80695313 16.95296875 -1.61390625 16.9684375 -2.4453125 16.984375 C-6.23090365 16.9593876 -8.36054348 16.87860658 -11.53125 14.69140625 C-13.17014602 12.17639826 -13.54031745 10.8534517 -13.5 7.875 C-13.5103125 7.11058594 -13.520625 6.34617188 -13.53125 5.55859375 C-13 3.4375 -13 3.4375 -11.53125 1.6875 C-7.72907929 -0.19011516 -4.18437215 -0.03676365 0 0 Z " fill="#000000" transform="translate(134,213.5625)"/>
<path d="M0 0 C0.80695313 -0.01546875 1.61390625 -0.0309375 2.4453125 -0.046875 C6.25461782 -0.02173107 8.35861597 0.04865569 11.53125 2.28125 C13.07491908 4.61317563 13.54317693 5.73667664 13.5 8.5 C13.5103125 9.16 13.520625 9.82 13.53125 10.5 C12.70985531 13.5923094 11.62604842 14.65609254 9 16.5 C5.98661424 17.0602967 3.05607265 17.01316953 0 16.9375 C-1.21042969 16.94813477 -1.21042969 16.94813477 -2.4453125 16.95898438 C-5.91600236 16.9217575 -8.39130189 16.80059166 -11.53125 15.25 C-13.37085376 13.05813169 -13.53832732 11.90351253 -13.5 9.0625 C-13.5103125 8.30066406 -13.520625 7.53882812 -13.53125 6.75390625 C-11.84115017 -0.41659082 -6.14222014 -0.11774224 0 0 Z " fill="#000000" transform="translate(134,77.5)"/>
<path d="M0 0 C0.75087891 -0.02384766 1.50175781 -0.04769531 2.27539062 -0.07226562 C6.47164237 -0.06119372 8.1311498 0.23000089 11.5625 2.875 C13.5625 5.5625 13.5625 5.5625 14.125 9.125 C13.5625 12.5625 13.5625 12.5625 12.125 14.75 C8.23972644 17.49812033 4.64111683 17.10793295 0 17 C-0.86302734 17.00708984 -1.72605469 17.01417969 -2.61523438 17.02148438 C-8.94395426 16.95755791 -8.94395426 16.95755791 -11.1796875 15.16796875 C-12.82093366 13.07308622 -12.87054702 11.76561611 -12.875 9.125 C-12.89433594 8.36316406 -12.91367188 7.60132813 -12.93359375 6.81640625 C-11.43179204 -0.00674009 -5.98323447 -0.08686164 0 0 Z " fill="#000000" transform="translate(133.4375,246.4375)"/>
<path d="M0 0 C1.28874023 -0.0299707 1.28874023 -0.0299707 2.60351562 -0.06054688 C8.8652327 -0.05568907 8.8652327 -0.05568907 12.125 2.25 C14.27123257 5.51600609 14.165644 7.61758797 13.5625 11.4375 C10.77400974 15.13761207 9.35592364 16.32231261 4.71484375 16.99609375 C3.30939079 16.98160454 1.90399447 16.94063127 0.5 16.875 C-0.20705078 16.86919922 -0.91410156 16.86339844 -1.64257812 16.85742188 C-5.33376429 16.77077431 -8.36502429 16.59053161 -11.4375 14.4375 C-12.60093227 12.11063547 -12.63645988 10.59028587 -12.6875 8 C-12.72617188 6.82630859 -12.72617188 6.82630859 -12.765625 5.62890625 C-11.75622186 -1.11246471 -5.32443257 -0.04374067 0 0 Z " fill="#000000" transform="translate(133.4375,179.5625)"/>
<path d="M0 0 C0.80695313 -0.01546875 1.61390625 -0.0309375 2.4453125 -0.046875 C6.25461782 -0.02173107 8.35861597 0.04865569 11.53125 2.28125 C13.07491908 4.61317563 13.54317693 5.73667664 13.5 8.5 C13.5103125 9.16 13.520625 9.82 13.53125 10.5 C12.71014216 13.59122953 11.62321062 14.65403697 9 16.5 C5.98742667 17.08502425 3.06009836 17.05866003 0 17 C-0.80695313 17.01546875 -1.61390625 17.0309375 -2.4453125 17.046875 C-6.25461782 17.02173107 -8.35861597 16.95134431 -11.53125 14.71875 C-13.07491908 12.38682437 -13.54317693 11.26332336 -13.5 8.5 C-13.51546875 7.51 -13.51546875 7.51 -13.53125 6.5 C-11.68483042 -0.45122664 -5.99861802 -0.11498948 0 0 Z " fill="#000000" transform="translate(186,77.5)"/>
<path d="M0 0 C2.375 1.625 2.375 1.625 3.375 3.625 C3.85506117 7.8655403 3.95231798 9.8687793 1.3203125 13.31640625 C-2.38982029 16.22448116 -4.455182 16.29669818 -9.125 16.25 C-11.05859375 16.26933594 -11.05859375 16.26933594 -13.03125 16.2890625 C-17.43793196 15.47478431 -18.92033396 14.13748689 -21.625 10.625 C-22.1875 7.0625 -22.1875 7.0625 -21.625 3.625 C-16.51929582 -3.06523307 -7.33602734 -2.78263106 0 0 Z " fill="#000000" transform="translate(351.625,298.375)"/>
<path d="M0 0 C1.93359375 -0.01933594 1.93359375 -0.01933594 3.90625 -0.0390625 C8.31293196 0.77521569 9.79533396 2.11251311 12.5 5.625 C13.0625 9.1875 13.0625 9.1875 12.5 12.625 C10.28136971 15.53217073 8.98055071 16.46481643 5.5 17.625 C-0.76323905 18.13628482 -6.13328879 18.2969603 -11.5 14.625 C-13.06935594 11.48628812 -12.85201103 9.08644178 -12.5 5.625 C-8.75882387 0.72448602 -6.06984051 -0.06069841 0 0 Z " fill="#000000" transform="translate(342.5,45.375)"/>
<path d="M0 0 C1.01964844 -0.01675781 2.03929687 -0.03351563 3.08984375 -0.05078125 C6.74902064 0.39639806 9.43625113 1.68625113 12.0625 4.3125 C12.3359375 6.23828125 12.3359375 6.23828125 12.4375 8.625 C12.51097656 9.79482422 12.51097656 9.79482422 12.5859375 10.98828125 C12.0625 13.3125 12.0625 13.3125 9.9765625 15.57421875 C6.42186371 17.69464899 4.18048214 17.84799985 0.0625 17.8125 C-1.13375 17.8228125 -2.33 17.833125 -3.5625 17.84375 C-7.50403318 17.22332348 -9.15774444 16.12802447 -11.9375 13.3125 C-13.16389835 9.70995485 -13.26344514 8.06732032 -11.75 4.5625 C-8.41476544 0.42220883 -5.18102387 0.01960034 0 0 Z " fill="#000000" transform="translate(385.9375,296.6875)"/>
<path d="M0 0 C1.22589844 -0.01417969 2.45179688 -0.02835938 3.71484375 -0.04296875 C6.83447896 0.17180194 8.51693322 0.43933968 11.0625 2.1875 C12.22593227 4.51436453 12.26145988 6.03471413 12.3125 8.625 C12.33828125 9.40746094 12.3640625 10.18992187 12.390625 10.99609375 C12.0625 13.1875 12.0625 13.1875 10.796875 14.91015625 C6.33558345 18.19583719 0.34998717 17.53885652 -4.9375 17.1875 C-8.20458143 16.23460125 -9.54366006 15.58133994 -11.9375 13.1875 C-13.05476681 9.40598157 -13.09397099 7.60214812 -11.6875 3.875 C-8.72972565 -0.66729633 -5.05347905 0.02651353 0 0 Z " fill="#000000" transform="translate(385.9375,45.8125)"/>
<path d="M0 0 C1.19625 -0.0103125 2.3925 -0.020625 3.625 -0.03125 C7.57717905 0.59085226 9.23514392 1.64858304 12 4.5 C12.91835988 7.92854355 13.27876857 10.35395142 12.4375 13.8125 C10.21426879 16.42238012 8.35105538 16.78191671 5 17.5 C-0.2064328 17.89985404 -5.37153253 18.24815256 -10 15.5 C-12.1272776 12.3090836 -12.33381412 10.29840226 -12.55859375 6.53515625 C-10.91368336 0.54216104 -5.37973155 -0.046377 0 0 Z " fill="#000000" transform="translate(298,45.5)"/>
<path d="M0 0 C0.70318359 -0.02384766 1.40636719 -0.04769531 2.13085938 -0.07226562 C6.09835193 -0.06111054 7.89126441 0.42691029 11.02734375 2.91015625 C13.0625 5.5625 13.0625 5.5625 13.6875 8.5625 C12.83382379 12.66014579 11.32770514 13.97700818 8.0625 16.5625 C5.1327022 17.04138066 2.90145587 17.22339951 0 17.125 C-0.70705078 17.13595703 -1.41410156 17.14691406 -2.14257812 17.15820312 C-5.56869613 17.10994794 -7.60409852 16.8039651 -10.40234375 14.77734375 C-12.02206447 12.44049478 -12.48132223 11.36712263 -12.4375 8.5625 C-12.45296875 7.5725 -12.45296875 7.5725 -12.46875 6.5625 C-10.77647802 0.19159373 -5.72430621 -0.08870848 0 0 Z " fill="#000000" transform="translate(297.9375,140.4375)"/>
<path d="M0 0 C1.13888672 -0.02320313 1.13888672 -0.02320313 2.30078125 -0.046875 C6.01981036 -0.02082226 7.92598591 0.08229021 10.99609375 2.31640625 C13.23400723 5.56574037 13.10811848 7.64858294 12.5 11.5 C9.79533396 15.01248689 8.31293196 16.34978431 3.90625 17.1640625 C2.6171875 17.15117187 1.328125 17.13828125 0 17.125 C-1.93359375 17.14433594 -1.93359375 17.14433594 -3.90625 17.1640625 C-8.31293196 16.34978431 -9.79533396 15.01248689 -12.5 11.5 C-13.10811848 7.64858294 -13.23400723 5.56574037 -10.99609375 2.31640625 C-7.3883683 -0.30893386 -4.35263517 -0.08867848 0 0 Z " fill="#000000" transform="translate(342.5,234.5)"/>
<path d="M0 0 C2.47211853 3.70817779 2.36730992 6.6425901 2.375 10.9375 C2.39949219 11.65357422 2.42398437 12.36964844 2.44921875 13.10742188 C2.4684069 16.55809067 2.26476509 18.62278412 0.26171875 21.4765625 C-2.27566819 23.18568324 -3.53394087 23.51436698 -6.5625 23.4375 C-7.32691406 23.43621094 -8.09132813 23.43492187 -8.87890625 23.43359375 C-11.53539509 22.89055459 -12.31403099 22.09571003 -14 20 C-14.38818359 18.0546875 -14.38818359 18.0546875 -14.3984375 15.875 C-14.40230469 15.08609375 -14.40617187 14.2971875 -14.41015625 13.484375 C-14.39855469 12.66453125 -14.38695312 11.8446875 -14.375 11 C-14.38660156 10.18015625 -14.39820313 9.3603125 -14.41015625 8.515625 C-14.40435547 7.33226562 -14.40435547 7.33226562 -14.3984375 6.125 C-14.39505371 5.40570313 -14.39166992 4.68640625 -14.38818359 3.9453125 C-13.89216325 1.45959544 -12.93825694 0.58166545 -11 -1 C-7.12678706 -2.79827744 -3.84045774 -1.42239176 0 0 Z " fill="#000000" transform="translate(287,451)"/>
<path d="M0 0 C4.08995558 0.66926546 5.02353667 1.24524717 7.4375 4.5625 C8.0216658 7.40923236 7.99652011 10.16559612 7.9375 13.0625 C7.95296875 13.82175781 7.9684375 14.58101563 7.984375 15.36328125 C7.95832226 19.08231036 7.85520979 20.98848591 5.62109375 24.05859375 C2.37175963 26.29650723 0.28891706 26.17061848 -3.5625 25.5625 C-7.07498689 22.85783396 -8.41228431 21.37543196 -9.2265625 16.96875 C-9.21367187 15.6796875 -9.20078125 14.390625 -9.1875 13.0625 C-9.20039063 11.7734375 -9.21328125 10.484375 -9.2265625 9.15625 C-8.1923654 3.55941864 -5.61814873 0.88707611 0 0 Z " fill="#000000" transform="translate(231.5625,374.4375)"/>
<path d="M0 0 C3.51248689 2.70466604 4.84978431 4.18706804 5.6640625 8.59375 C5.64472656 10.52734375 5.64472656 10.52734375 5.625 12.5 C5.63789063 13.7890625 5.65078125 15.078125 5.6640625 16.40625 C4.85173996 20.80234847 3.49140736 22.29017426 0 25 C-3.91636788 25.55948113 -6.68935479 25.20709681 -10 23 C-11.62841701 19.74316597 -11.26795577 16.20041665 -11.3125 12.625 C-11.34150391 11.85671875 -11.37050781 11.0884375 -11.40039062 10.296875 C-11.44270362 6.53427366 -11.44540878 4.61798059 -9.1953125 1.49609375 C-5.93561769 -0.72537086 -3.85272081 -0.60832434 0 0 Z " fill="#000000" transform="translate(284,337)"/>
<path d="M0 0 C4.09070531 0.66938814 5.0283655 1.23955587 7.4375 4.5625 C7.99639246 7.43098286 7.95120798 10.21188855 7.875 13.125 C7.88208984 13.89263672 7.88917969 14.66027344 7.89648438 15.45117188 C7.83350775 21.00764792 7.83350775 21.00764792 6.03515625 23.52734375 C2.68282732 25.69939061 0.44513952 26.033987 -3.5625 25.5625 C-7.0628411 22.85885915 -8.41389559 21.3667121 -9.2265625 16.96875 C-9.21367187 15.6796875 -9.20078125 14.390625 -9.1875 13.0625 C-9.20039063 11.7734375 -9.21328125 10.484375 -9.2265625 9.15625 C-8.1923654 3.55941864 -5.61814873 0.88707611 0 0 Z " fill="#000000" transform="translate(231.5625,336.4375)"/>
<path d="M0 0 C0.66 -0.0103125 1.32 -0.020625 2 -0.03125 C5.04887066 0.77860627 6.158844 1.94261409 8 4.5 C8.37389945 7.32632655 8.51639727 9.69023928 8.4375 12.5 C8.44458984 13.2115625 8.45167969 13.923125 8.45898438 14.65625 C8.4209204 17.79506426 8.18830825 20.14284392 6.71484375 22.9375 C4.77299236 24.70684067 3.71313349 25.17774213 1.125 25.5 C0.46757812 25.603125 -0.18984375 25.70625 -0.8671875 25.8125 C-4.28946265 25.31106774 -5.70066535 24.05569271 -8 21.5 C-8.70734721 18.64663331 -8.65438266 15.92534521 -8.5625 13 C-8.57345703 12.24074219 -8.58441406 11.48148437 -8.59570312 10.69921875 C-8.54722328 7.0082868 -8.40107679 5.06168303 -6.21484375 2 C-3.8815743 0.41979635 -2.78233633 -0.04347401 0 0 Z " fill="#000000" transform="translate(281,299.5)"/>
<path d="M0 0 C1.13888672 -0.02320313 1.13888672 -0.02320313 2.30078125 -0.046875 C6.01981036 -0.02082226 7.92598591 0.08229021 10.99609375 2.31640625 C13.23400723 5.56574037 13.10811848 7.64858294 12.5 11.5 C9.79533396 15.01248689 8.31293196 16.34978431 3.90625 17.1640625 C2.6171875 17.15117187 1.328125 17.13828125 0 17.125 C-1.93359375 17.14433594 -1.93359375 17.14433594 -3.90625 17.1640625 C-8.31293196 16.34978431 -9.79533396 15.01248689 -12.5 11.5 C-13.10811848 7.64858294 -13.23400723 5.56574037 -10.99609375 2.31640625 C-7.3883683 -0.30893386 -4.35263517 -0.08867848 0 0 Z " fill="#000000" transform="translate(342.5,265.5)"/>
<path d="M0 0 C0.99386719 0.12375 0.99386719 0.12375 2.0078125 0.25 C4.72507729 1.34145364 5.50474365 2.40109435 6.875 5 C7.19488233 7.76654989 7.3399944 10.24056211 7.3125 13 C7.3424707 14.06734375 7.3424707 14.06734375 7.37304688 15.15625 C7.36982595 18.60908354 7.13532473 20.63840609 5.09765625 23.46875 C2.75703807 25.08126727 1.67866839 25.54380732 -1.125 25.5 C-1.785 25.5103125 -2.445 25.520625 -3.125 25.53125 C-6.19316439 24.71626883 -7.27867964 23.58565652 -9.125 21 C-9.73040579 18.15332061 -9.72937182 15.40147099 -9.6875 12.5 C-9.71134766 11.74074219 -9.73519531 10.98148438 -9.75976562 10.19921875 C-9.74916835 6.16518819 -9.62802939 4.55911329 -6.84765625 1.46875 C-4.11059118 -0.00777291 -3.01037784 -0.47221613 0 0 Z " fill="#000000" transform="translate(282.125,225)"/>
<path d="M0 0 C2.79759862 0.41666362 4.59658114 0.87688742 6.9375 2.4375 C8.56591701 5.69433403 8.20545577 9.23708335 8.25 12.8125 C8.27900391 13.58078125 8.30800781 14.3490625 8.33789062 15.140625 C8.38020362 18.90322634 8.38290878 20.81951941 6.1328125 23.94140625 C2.87311769 26.16287086 0.79022081 26.04582434 -3.0625 25.4375 C-6.57498689 22.73283396 -7.91228431 21.25043196 -8.7265625 16.84375 C-8.71367187 15.5546875 -8.70078125 14.265625 -8.6875 12.9375 C-8.70039063 11.6484375 -8.71328125 10.359375 -8.7265625 9.03125 C-7.76340512 3.81886887 -5.36229508 0.76604215 0 0 Z " fill="#000000" transform="translate(231.0625,187.5625)"/>
<path d="M0 0 C1.93359375 -0.01933594 1.93359375 -0.01933594 3.90625 -0.0390625 C8.31293196 0.77521569 9.79533396 2.11251311 12.5 5.625 C13.10811848 9.47641706 13.23400723 11.55925963 10.99609375 14.80859375 C7.3883683 17.43393386 4.35263517 17.21367848 0 17.125 C-0.75925781 17.14046875 -1.51851563 17.1559375 -2.30078125 17.171875 C-6.01981036 17.14582226 -7.92598591 17.04270979 -10.99609375 14.80859375 C-13.23400723 11.55925963 -13.10811848 9.47641706 -12.5 5.625 C-8.73691869 0.7379738 -6.08046934 -0.06080469 0 0 Z " fill="#000000" transform="translate(342.5,108.375)"/>
<path d="M0 0 C0.7115625 -0.00708984 1.423125 -0.01417969 2.15625 -0.02148438 C5.29506426 0.0165796 7.64284392 0.24919175 10.4375 1.72265625 C12.20684067 3.66450764 12.67774213 4.72436651 13 7.3125 C13.103125 7.96992187 13.20625 8.62734375 13.3125 9.3046875 C12.81106774 12.72696265 11.55569271 14.13816535 9 16.4375 C6.14663331 17.14484721 3.42534521 17.09188266 0.5 17 C-0.25925781 17.01095703 -1.01851563 17.02191406 -1.80078125 17.03320312 C-5.4917132 16.98472328 -7.43831697 16.83857679 -10.5 14.65234375 C-12.08020365 12.3190743 -12.54347401 11.21983633 -12.5 8.4375 C-12.51546875 7.4475 -12.51546875 7.4475 -12.53125 6.4375 C-10.82085107 -0.00164893 -5.75832186 -0.16169201 0 0 Z " fill="#000000" transform="translate(298,77.5625)"/>
<path d="M0 0 C3.51248689 2.70466604 4.84978431 4.18706804 5.6640625 8.59375 C5.64472656 10.52734375 5.64472656 10.52734375 5.625 12.5 C5.63789063 13.7890625 5.65078125 15.078125 5.6640625 16.40625 C4.85177134 20.80217865 3.48326109 22.28223434 0 25 C-3.71799811 25.69712465 -5.36706264 25.35888201 -8.65234375 23.49609375 C-11.53423978 20.43198133 -11.62406601 18.87376945 -11.63476562 14.80078125 C-11.61091797 14.04152344 -11.58707031 13.28226562 -11.5625 12.5 C-11.57345703 11.74074219 -11.58441406 10.98148437 -11.59570312 10.19921875 C-11.54692411 6.48550986 -11.41225447 4.56530172 -9.1796875 1.50390625 C-5.93328154 -0.7359975 -3.84965237 -0.60783985 0 0 Z " fill="#000000" transform="translate(284,375)"/>
<path d="M0 0 C0.66 -0.0103125 1.32 -0.020625 2 -0.03125 C5.06816439 0.78373117 6.15367964 1.91434348 8 4.5 C8.60540579 7.34667939 8.60437182 10.09852901 8.5625 13 C8.58634766 13.75925781 8.61019531 14.51851563 8.63476562 15.30078125 C8.62410466 19.35905497 8.51129512 20.94033912 5.6875 24.03125 C1.98651905 26.05387913 0.00095134 25.66391312 -4 24.5 C-6.18359375 22.9375 -6.18359375 22.9375 -8 20.5 C-8.40100915 17.66934716 -8.56122899 15.31653341 -8.5 12.5 C-8.51546875 11.7884375 -8.5309375 11.076875 -8.546875 10.34375 C-8.52115187 6.89685016 -8.25431936 4.85247771 -6.21875 2.03125 C-3.88020812 0.41732673 -2.80290722 -0.04379543 0 0 Z " fill="#000000" transform="translate(231,299.5)"/>
<path d="M0 0 C0.75925781 -0.01933594 1.51851563 -0.03867188 2.30078125 -0.05859375 C6.34540595 -0.02317672 7.94194342 0.1079257 11 2.94140625 C12.96982066 6.46553852 13.07866409 8.64668438 12.5 12.625 C10.84563876 15.02899368 9.5558241 16.39920796 6.64257812 17.0222168 C4.4145753 17.20075588 2.23466065 17.21974892 0 17.1875 C-0.75925781 17.21134766 -1.51851563 17.23519531 -2.30078125 17.25976562 C-6.37483388 17.24906321 -7.9328419 17.1575969 -11 14.27734375 C-12.84607776 11.01305522 -13.11604656 9.32127939 -12.5 5.625 C-9.26192803 -0.09222083 -6.03714776 -0.1537474 0 0 Z " fill="#000000" transform="translate(342.5,77.375)"/>
<path d="M0 0 C2.7633734 2.7633734 2.28850252 4.65547443 2.32226562 8.42773438 C2.31904297 9.25595703 2.31582031 10.08417969 2.3125 10.9375 C2.32861328 11.76185547 2.34472656 12.58621094 2.36132812 13.43554688 C2.36197266 14.22896484 2.36261719 15.02238281 2.36328125 15.83984375 C2.36626221 16.56550537 2.36924316 17.29116699 2.37231445 18.03881836 C1.89510588 20.55253407 0.98677738 21.43624892 -1 23 C-3.12109375 23.43359375 -3.12109375 23.43359375 -5.4375 23.4375 C-6.58025391 23.46650391 -6.58025391 23.46650391 -7.74609375 23.49609375 C-10.99765017 22.78041322 -12.08096916 21.71755374 -14 19 C-14.40100915 16.16934716 -14.56122899 13.81653341 -14.5 11 C-14.51546875 10.2884375 -14.5309375 9.576875 -14.546875 8.84375 C-14.52089873 5.36293019 -14.27847244 3.36815 -12.15625 0.5625 C-7.66769738 -2.69007436 -5.01931952 -1.73394674 0 0 Z " fill="#000000" transform="translate(237,451)"/>
<path d="M0 0 C0.99386719 0.12375 0.99386719 0.12375 2.0078125 0.25 C4.72507729 1.34145364 5.50474365 2.40109435 6.875 5 C7.19488233 7.76654989 7.3399944 10.24056211 7.3125 13 C7.3424707 14.06734375 7.3424707 14.06734375 7.37304688 15.15625 C7.36982595 18.60908354 7.13532473 20.63840609 5.09765625 23.46875 C2.75703807 25.08126727 1.67866839 25.54380732 -1.125 25.5 C-1.785 25.5103125 -2.445 25.520625 -3.125 25.53125 C-6.19316439 24.71626883 -7.27867964 23.58565652 -9.125 21 C-9.73040579 18.15332061 -9.72937182 15.40147099 -9.6875 12.5 C-9.71134766 11.74074219 -9.73519531 10.98148437 -9.75976562 10.19921875 C-9.74916835 6.16518819 -9.62802939 4.55911329 -6.84765625 1.46875 C-4.11059118 -0.00777291 -3.01037784 -0.47221613 0 0 Z " fill="#000000" transform="translate(282.125,412)"/>
<path d="M0 0 C1.69140625 1.01953125 1.69140625 1.01953125 3 3 C3.32548821 5.90593527 3.46430195 8.53558016 3.4375 11.4375 C3.4674707 12.5831543 3.4674707 12.5831543 3.49804688 13.75195312 C3.49479314 17.49049808 3.42897496 19.40831041 1.1875 22.5 C-2.0655723 24.73067815 -4.148808 24.60808295 -8 24 C-11.55211483 21.27791491 -12.86265807 19.83941217 -13.59375 15.37109375 C-13.5628125 14.07300781 -13.531875 12.77492188 -13.5 11.4375 C-13.4896875 10.13683594 -13.479375 8.83617187 -13.46875 7.49609375 C-12.99083867 3.93167173 -12.55645032 2.46600986 -10 0 C-6.22941703 -1.25686099 -3.86146303 -0.82745636 0 0 Z " fill="#000000" transform="translate(236,413)"/>
<path d="M0 0 C1.16402344 0.00483398 1.16402344 0.00483398 2.3515625 0.00976562 C3.11984375 -0.00634766 3.888125 -0.02246094 4.6796875 -0.0390625 C8.07439408 -0.0419991 10.41028405 0.04177256 13.484375 1.56445312 C15.3485602 3.76048282 15.51512826 4.90107848 15.4765625 7.75976562 C15.486875 8.52160156 15.4971875 9.2834375 15.5078125 10.06835938 C14.74591848 13.30080678 13.68836801 14.40426394 10.9765625 16.32226562 C8.14590966 16.72327478 5.79309591 16.88349461 2.9765625 16.82226562 C2.265 16.83773438 1.5534375 16.85320312 0.8203125 16.86914062 C-2.68680515 16.84296811 -4.65702028 16.60380985 -7.46875 14.44335938 C-9.30439521 11.93894895 -9.8721634 10.42338459 -10.0234375 7.32226562 C-8.19429117 1.27201237 -6.31433139 0.06029309 0 0 Z " fill="#000000" transform="translate(383.0234375,265.677734375)"/>
<path d="M0 0 C0.76183594 -0.01933594 1.52367187 -0.03867187 2.30859375 -0.05859375 C5.56015017 0.65708678 6.64346916 1.71994626 8.5625 4.4375 C8.96350915 7.26815284 9.12372899 9.62096659 9.0625 12.4375 C9.07796875 13.1490625 9.0934375 13.860625 9.109375 14.59375 C9.08381948 18.01819 8.80899421 20.08843773 6.81640625 22.91015625 C4.28315733 24.6267946 3.02921113 24.95188353 0 24.875 C-0.76441406 24.87371094 -1.52882813 24.87242187 -2.31640625 24.87109375 C-4.97289509 24.32805459 -5.75153099 23.53321003 -7.4375 21.4375 C-7.82568359 19.4921875 -7.82568359 19.4921875 -7.8359375 17.3125 C-7.83980469 16.52359375 -7.84367187 15.7346875 -7.84765625 14.921875 C-7.83605469 14.10203125 -7.82445312 13.2821875 -7.8125 12.4375 C-7.82410156 11.61765625 -7.83570313 10.7978125 -7.84765625 9.953125 C-7.84185547 8.76976562 -7.84185547 8.76976562 -7.8359375 7.5625 C-7.83255371 6.84320313 -7.82916992 6.12390625 -7.82568359 5.3828125 C-6.9570615 1.02986857 -4.08975641 0.00689672 0 0 Z " fill="#000000" transform="translate(280.4375,262.5625)"/>
<path d="M0 0 C0.82886719 -0.020625 1.65773438 -0.04125 2.51171875 -0.0625 C3.70861328 -0.07023438 3.70861328 -0.07023438 4.9296875 -0.078125 C6.02772705 -0.09214355 6.02772705 -0.09214355 7.14794922 -0.10644531 C9.68194252 0.35041196 10.55487421 1.24893059 12.125 3.25 C12.55859375 5.37109375 12.55859375 5.37109375 12.5625 7.6875 C12.59150391 8.83025391 12.59150391 8.83025391 12.62109375 9.99609375 C11.91024621 13.22569244 10.80645074 14.32915308 8.125 16.25 C4.62890625 16.78125 4.62890625 16.78125 0.6875 16.75 C-0.61058594 16.7603125 -1.90867187 16.770625 -3.24609375 16.78125 C-7.35805746 16.1792833 -9.00715592 15.20361138 -11.875 12.25 C-13.14172211 8.52900381 -13.2361493 6.98871449 -11.5 3.4375 C-8.32411756 -0.83772637 -5.04572397 0.03109845 0 0 Z " fill="#000000" transform="translate(385.875,234.75)"/>
<path d="M0 0 C1.69140625 1.01953125 1.69140625 1.01953125 3 3 C3.32548821 5.90593527 3.46430195 8.53558016 3.4375 11.4375 C3.4674707 12.5831543 3.4674707 12.5831543 3.49804688 13.75195312 C3.49479314 17.49049808 3.42897496 19.40831041 1.1875 22.5 C-2.0655723 24.73067815 -4.148808 24.60808295 -8 24 C-11.55211483 21.27791491 -12.86265807 19.83941217 -13.59375 15.37109375 C-13.5628125 14.07300781 -13.531875 12.77492187 -13.5 11.4375 C-13.4896875 10.13683594 -13.479375 8.83617187 -13.46875 7.49609375 C-12.99083867 3.93167173 -12.55645032 2.46600986 -10 0 C-6.22941703 -1.25686099 -3.86146303 -0.82745636 0 0 Z " fill="#000000" transform="translate(236,226)"/>
<path d="M0 0 C0.75925781 -0.01933594 1.51851563 -0.03867188 2.30078125 -0.05859375 C6.36971748 -0.02296384 7.94172428 0.0998719 11 2.9765625 C12.84752863 6.23860523 13.11583414 7.92999519 12.5 11.625 C11 14.2734375 11 14.2734375 8.5 16.625 C5.65005692 17.36370764 2.92967369 17.32460969 0 17.25 C-0.75925781 17.26933594 -1.51851563 17.28867188 -2.30078125 17.30859375 C-6.36971748 17.27296384 -7.94172428 17.1501281 -11 14.2734375 C-12.84752863 11.01139477 -13.11583414 9.32000481 -12.5 5.625 C-9.26192803 -0.09222083 -6.03714776 -0.1537474 0 0 Z " fill="#000000" transform="translate(342.5,202.375)"/>
<path d="M0 0 C0.75925781 -0.01933594 1.51851563 -0.03867188 2.30078125 -0.05859375 C6.36971748 -0.02296384 7.94172428 0.0998719 11 2.9765625 C12.84752863 6.23860523 13.11583414 7.92999519 12.5 11.625 C11 14.2734375 11 14.2734375 8.5 16.625 C5.65005692 17.36370764 2.92967369 17.32460969 0 17.25 C-0.75925781 17.26933594 -1.51851563 17.28867188 -2.30078125 17.30859375 C-6.36971748 17.27296384 -7.94172428 17.1501281 -11 14.2734375 C-12.84752863 11.01139477 -13.11583414 9.32000481 -12.5 5.625 C-9.26192803 -0.09222083 -6.03714776 -0.1537474 0 0 Z " fill="#000000" transform="translate(342.5,171.375)"/>
<path d="M0 0 C0.75925781 -0.02384766 1.51851563 -0.04769531 2.30078125 -0.07226562 C6.37483388 -0.06156321 7.9328419 0.0299031 11 2.91015625 C12.84607776 6.17444478 13.11604656 7.86622061 12.5 11.5625 C10.96484375 14.2109375 10.96484375 14.2109375 8.5 16.5625 C5.61010467 17.07909538 3.43412404 17.2660312 0.5625 17.1875 C-0.49227539 17.21650391 -0.49227539 17.21650391 -1.56835938 17.24609375 C-5.50286848 17.20921925 -7.34550452 16.68304713 -10.46875 14.24609375 C-12.5 11.5625 -12.5 11.5625 -13.0625 8 C-11.78912084 0.21823844 -6.77876066 -0.09782592 0 0 Z " fill="#000000" transform="translate(342.5,140.4375)"/>
<path d="M0 0 C0.71607422 -0.02449219 1.43214844 -0.04898438 2.16992188 -0.07421875 C5.61946775 -0.09340065 7.68363265 0.10865565 10.53515625 2.11328125 C12.23987784 4.63766438 12.60335716 5.91917698 12.5625 8.9375 C12.5728125 9.70191406 12.583125 10.46632813 12.59375 11.25390625 C12.0625 13.375 12.0625 13.375 10.53125 15.125 C7.08169891 16.87160814 3.84148063 16.85015289 0.0625 16.8125 C-0.6490625 16.83248047 -1.360625 16.85246094 -2.09375 16.87304688 C-5.60688614 16.8697697 -7.56181296 16.66306674 -10.3828125 14.5 C-12.21670812 11.9933688 -12.78618779 10.47690026 -12.9375 7.375 C-10.95004298 0.253279 -6.65649801 0.01191853 0 0 Z " fill="#000000" transform="translate(385.9375,108.625)"/>
<path d="M0 0 C0.71607422 -0.02449219 1.43214844 -0.04898438 2.16992188 -0.07421875 C5.6431172 -0.09353216 7.68179076 0.10194788 10.53515625 2.1484375 C12.14188375 4.49072567 12.60628052 5.57304695 12.5625 8.375 C12.5728125 9.035 12.583125 9.695 12.59375 10.375 C11.78417176 13.42282397 10.61707707 14.53182414 8.0625 16.375 C5.23184716 16.77600915 2.87903341 16.93622899 0.0625 16.875 C-0.6490625 16.89046875 -1.360625 16.9059375 -2.09375 16.921875 C-5.60086765 16.89570248 -7.57108278 16.65654422 -10.3828125 14.49609375 C-12.21845771 11.99168332 -12.7862259 10.47611896 -12.9375 7.375 C-10.95004298 0.253279 -6.65649801 0.01191853 0 0 Z " fill="#000000" transform="translate(385.9375,202.625)"/>
<path d="M0 0 C0.71607422 -0.02449219 1.43214844 -0.04898438 2.16992188 -0.07421875 C5.6431172 -0.09353216 7.68179076 0.10194788 10.53515625 2.1484375 C12.14188375 4.49072567 12.60628052 5.57304695 12.5625 8.375 C12.5728125 9.035 12.583125 9.695 12.59375 10.375 C11.78417176 13.42282397 10.61707707 14.53182414 8.0625 16.375 C5.23184716 16.77600915 2.87903341 16.93622899 0.0625 16.875 C-0.6490625 16.89046875 -1.360625 16.9059375 -2.09375 16.921875 C-5.60086765 16.89570248 -7.57108278 16.65654422 -10.3828125 14.49609375 C-12.21845771 11.99168332 -12.7862259 10.47611896 -12.9375 7.375 C-10.95004298 0.253279 -6.65649801 0.01191853 0 0 Z " fill="#000000" transform="translate(385.9375,171.625)"/>
<path d="M0 0 C0.70318359 -0.03222656 1.40636719 -0.06445312 2.13085938 -0.09765625 C5.0150729 -0.10306246 7.35315409 0.07677175 9.68017578 1.87524414 C12.30951085 4.83104649 13.0625 6.31081212 13.0625 10.3125 C11.68981166 14.85953014 11.68981166 14.85953014 9.0625 16.625 C6.15656473 16.95048821 3.52691984 17.08930195 0.625 17.0625 C-0.13876953 17.08248047 -0.90253906 17.10246094 -1.68945312 17.12304688 C-5.40527533 17.11981291 -7.34939152 17.0424561 -10.44140625 14.84765625 C-12.0144264 12.51071509 -12.4809593 11.40639491 -12.4375 8.625 C-12.45296875 7.635 -12.45296875 7.635 -12.46875 6.625 C-10.78187667 0.27441806 -5.71611621 -0.0521068 0 0 Z " fill="#000000" transform="translate(297.9375,108.375)"/>
<path d="M0 0 C1.14662109 0.00193359 1.14662109 0.00193359 2.31640625 0.00390625 C4.97289509 0.54694541 5.75153099 1.34178997 7.4375 3.4375 C7.82568359 5.3828125 7.82568359 5.3828125 7.8359375 7.5625 C7.84173828 8.74585938 7.84173828 8.74585938 7.84765625 9.953125 C7.83605469 10.77296875 7.82445312 11.5928125 7.8125 12.4375 C7.82410156 13.25734375 7.83570313 14.0771875 7.84765625 14.921875 C7.84378906 15.71078125 7.83992188 16.4996875 7.8359375 17.3125 C7.83086182 18.39144531 7.83086182 18.39144531 7.82568359 19.4921875 C7.32815696 21.98545304 6.41004268 22.88013487 4.4375 24.4375 C2.31640625 24.87109375 2.31640625 24.87109375 0 24.875 C-1.14275391 24.90400391 -1.14275391 24.90400391 -2.30859375 24.93359375 C-5.56015017 24.21791322 -6.64346916 23.15505374 -8.5625 20.4375 C-8.96350915 17.60684716 -9.12372899 15.25403341 -9.0625 12.4375 C-9.07796875 11.7259375 -9.0934375 11.014375 -9.109375 10.28125 C-9.08381948 6.85681 -8.80899421 4.78656227 -6.81640625 1.96484375 C-4.28315733 0.2482054 -3.02921113 -0.07688353 0 0 Z " fill="#000000" transform="translate(231.5625,262.5625)"/>
<path d="M0 0 C0.71607422 -0.02449219 1.43214844 -0.04898438 2.16992188 -0.07421875 C5.6431172 -0.09353216 7.68179076 0.10194788 10.53515625 2.1484375 C12.14188375 4.49072567 12.60628052 5.57304695 12.5625 8.375 C12.5728125 9.035 12.583125 9.695 12.59375 10.375 C11.78417176 13.42282397 10.61707707 14.53182414 8.0625 16.375 C5.23184716 16.77600915 2.87903341 16.93622899 0.0625 16.875 C-0.6490625 16.89046875 -1.360625 16.9059375 -2.09375 16.921875 C-5.60086765 16.89570248 -7.57108278 16.65654422 -10.3828125 14.49609375 C-12.21845771 11.99168332 -12.7862259 10.47611896 -12.9375 7.375 C-10.95004298 0.253279 -6.65649801 0.01191853 0 0 Z " fill="#000000" transform="translate(385.9375,140.625)"/>
<path d="M0 0 C0.71607422 -0.02449219 1.43214844 -0.04898438 2.16992188 -0.07421875 C5.6431172 -0.09353216 7.68179076 0.10194788 10.53515625 2.1484375 C12.14188375 4.49072567 12.60628052 5.57304695 12.5625 8.375 C12.5728125 9.035 12.583125 9.695 12.59375 10.375 C11.78417176 13.42282397 10.61707707 14.53182414 8.0625 16.375 C5.23184716 16.77600915 2.87903341 16.93622899 0.0625 16.875 C-0.6490625 16.89046875 -1.360625 16.9059375 -2.09375 16.921875 C-5.60086765 16.89570248 -7.57108278 16.65654422 -10.3828125 14.49609375 C-12.21845771 11.99168332 -12.7862259 10.47611896 -12.9375 7.375 C-10.95004298 0.253279 -6.65649801 0.01191853 0 0 Z " fill="#000000" transform="translate(385.9375,77.625)"/>
</svg>
