<?xml version="1.0" encoding="UTF-8"?>
<svg version="1.1" xmlns="http://www.w3.org/2000/svg" width="512" height="512">
<path d="M0 0 C0.99 -0.01546875 0.99 -0.01546875 2 -0.03125 C4.99816623 0.76513791 6.09975797 2.05655254 8 4.5 C8.34959406 7.18172476 8.46923774 9.43937958 8.390625 12.109375 C8.38496521 12.83618469 8.37930542 13.56299438 8.37347412 14.31182861 C8.35114553 16.62523245 8.30096048 18.9370672 8.25 21.25 C8.22993023 22.82159216 8.21168029 24.39320868 8.1953125 25.96484375 C8.15129293 29.81049717 8.08229375 33.65498289 8 37.5 C8.9477832 37.79422852 9.89556641 38.08845703 10.87207031 38.39160156 C14.2072743 39.57344874 15.49934785 40.58638416 17.75 43.25 C18.32234375 43.90484375 18.8946875 44.5596875 19.484375 45.234375 C23.62937676 51.43051164 23.24542987 57.69552671 23.125 64.875 C23.11597656 65.89722656 23.10695313 66.91945313 23.09765625 67.97265625 C23.0742043 70.48201522 23.04138355 72.99088336 23 75.5 C23.99386719 75.59152344 24.98773438 75.68304688 26.01171875 75.77734375 C30.36834774 76.40691441 33.92430966 78.06120479 37.8125 80.0625 C38.51463623 80.42110107 39.21677246 80.77970215 39.94018555 81.14916992 C45.90593341 84.28748408 51.03659545 87.92282063 56 92.5 C56.90234375 93.31082031 57.8046875 94.12164062 58.734375 94.95703125 C79.57515883 114.61760495 84.94487903 138.79876973 85.88671875 166.50390625 C85.92410156 167.82261719 85.96148437 169.14132813 86 170.5 C86.44988281 170.00371094 86.89976562 169.50742188 87.36328125 168.99609375 C97.07855843 158.73567076 110.01793287 151.10682608 124 148.5 C125.9998231 148.47340018 128.00024067 148.46897411 130 148.5 C129.98952637 147.8294458 129.97905273 147.1588916 129.96826172 146.46801758 C129.92656829 143.41621684 129.90063147 140.36447616 129.875 137.3125 C129.85824219 136.25740234 129.84148437 135.20230469 129.82421875 134.11523438 C129.81777344 133.09365234 129.81132812 132.07207031 129.8046875 131.01953125 C129.79421387 130.08214111 129.78374023 129.14475098 129.77294922 128.17895508 C130.02099598 125.25227 130.71568062 123.13259661 132 120.5 C134.6597357 118.33280794 136.08837596 118.50465137 139.5625 118.6875 C143.98568762 119.73298071 143.98568762 119.73298071 146 122.5 C146.43237305 125.13549805 146.43237305 125.13549805 146.51171875 128.26171875 C146.56489258 129.93911133 146.56489258 129.93911133 146.61914062 131.65039062 C146.64169922 132.81763672 146.66425781 133.98488281 146.6875 135.1875 C146.72166016 136.36634766 146.75582031 137.54519531 146.79101562 138.75976562 C146.87357925 141.67308225 146.94270322 144.58609466 147 147.5 C147.99257813 147.70753906 148.98515625 147.91507813 150.0078125 148.12890625 C169.53661125 152.45384904 185.45443254 161.73819318 197 178.5 C208.32412067 197.15676911 208.54557192 215.24670613 208.25 236.5 C208.22989547 239.02863162 208.21165173 241.55727875 208.1953125 244.0859375 C208.15165195 250.22430201 208.08505606 256.3620767 208 262.5 C209.2384668 262.57782715 209.2384668 262.57782715 210.50195312 262.65722656 C211.58412109 262.73424805 212.66628906 262.81126953 213.78125 262.890625 C214.85439453 262.96313477 215.92753906 263.03564453 217.03320312 263.11035156 C222.23452997 263.79347513 224.90512107 266.28675578 228.3125 270.0625 C230.59466306 273.35895776 231.12337452 275.82260981 231.09423828 279.73339844 C231.09158966 280.58569031 231.08894104 281.43798218 231.08621216 282.31610107 C231.08096527 283.23788147 231.07571838 284.15966187 231.0703125 285.109375 C231.07890948 287.08204002 231.08939011 289.05469755 231.1015625 291.02734375 C231.11812528 294.12117316 231.12530445 297.21334318 231.09960938 300.30712891 C231.01339427 312.44582407 231.49875532 322.01321501 237.49951172 332.74316406 C239 335.5 239 335.5 239 338.5 C239.763125 338.561875 240.52625 338.62375 241.3125 338.6875 C244 339.5 244 339.5 245.875 341.6875 C247.26527587 345.16318968 247.08267527 346.94263841 246 350.5 C244.41933106 352.49301736 243.26913298 353.36543351 241 354.5 C239.29297265 354.56996014 237.58331997 354.58440154 235.875 354.5625 C234.96492188 354.55347656 234.05484375 354.54445313 233.1171875 354.53515625 C232.41851562 354.52355469 231.71984375 354.51195312 231 354.5 C231.02618408 355.07967529 231.05236816 355.65935059 231.0793457 356.2565918 C231.18370612 358.89994875 231.24844327 361.54287199 231.3125 364.1875 C231.35439453 365.09951172 231.39628906 366.01152344 231.43945312 366.95117188 C231.52421637 371.61315038 231.54399409 373.77558575 228.66796875 377.60546875 C226 379.5 226 379.5 223 380.125 C218.82124512 379.25442607 217.56365605 377.91391384 215 374.5 C214.39308323 371.04035265 214.52678004 367.68624981 214.6875 364.1875 C214.71005859 363.25615234 214.73261719 362.32480469 214.75585938 361.36523438 C214.81455439 359.07612873 214.90422935 356.78785439 215 354.5 C210.71 354.5 206.42 354.5 202 354.5 C202 378.26 202 402.02 202 426.5 C206.29 426.5 210.58 426.5 215 426.5 C214.94199219 424.89769531 214.88398438 423.29539062 214.82421875 421.64453125 C214.77731546 419.53388331 214.73181592 417.42320385 214.6875 415.3125 C214.64560547 414.25740234 214.60371094 413.20230469 214.56054688 412.11523438 C214.43684552 404.2725687 214.43684552 404.2725687 217.33203125 400.30078125 C220 398.5 220 398.5 223 397.875 C226.07566411 398.51576336 227.83252011 399.31052837 230.00048828 401.60302734 C232.32624799 406.01708522 231.12213856 411.78859062 230.9375 416.625 C230.87817063 429.7237873 233.6865328 440.56559494 238.5625 452.6875 C238.86187469 453.45910461 239.16124939 454.23070923 239.46969604 455.0256958 C240.33966742 457.23674879 241.25401237 459.42225708 242.19140625 461.60546875 C242.58412216 462.58786278 242.58412216 462.58786278 242.98477173 463.59010315 C244.19750609 466.24289053 245.32927261 468.14887258 247.94967651 469.5206604 C250.08167179 470.3244886 250.08167179 470.3244886 252.18858337 470.89082336 C254 471.5 254 471.5 256 473.5 C256.68842365 480.61371103 256.68842365 480.61371103 254.37249756 483.59527588 C251.28475856 486.07422088 249.51132986 486.01541605 245.57910156 486.04589844 C244.27805481 486.06561707 242.97700806 486.08533569 241.63653564 486.10565186 C240.22123253 486.1073149 238.80592885 486.10854583 237.390625 486.109375 C235.93900711 486.12435872 234.48740626 486.14108629 233.03582764 486.15948486 C229.22181409 486.20314998 225.40803049 486.22315529 221.59381104 486.23822021 C217.69912117 486.25779458 213.80467953 486.29976412 209.91015625 486.33984375 C202.27350424 486.41513655 194.63695646 486.46543327 187 486.5 C187.28875 487.12648438 187.5775 487.75296875 187.875 488.3984375 C188.24625 489.21570313 188.6175 490.03296875 189 490.875 C189.37125 491.68710937 189.7425 492.49921875 190.125 493.3359375 C191 495.5 191 495.5 191 497.5 C191.9075 497.396875 192.815 497.29375 193.75 497.1875 C197 497.5 197 497.5 199.4375 499.5625 C201.47631034 503.39546344 201.14831346 505.36607156 200 509.5 C198.84835714 511.18699312 198.84835714 511.18699312 197 512.5 C194.10566765 512.87834883 194.10566765 512.87834883 190.48878574 512.88311005 C189.82130336 512.88806956 189.15382099 512.89302908 188.46611187 512.89813888 C186.21334752 512.91116653 183.96116897 512.90268809 181.70838928 512.89440918 C180.08347524 512.89929471 178.45856468 512.90548294 176.83366007 512.91286707 C172.35588866 512.92933264 167.87829254 512.92693528 163.40050137 512.9214921 C158.57627943 512.91883003 153.7521051 512.93333815 148.92790222 512.94558716 C139.47202001 512.96667804 130.01619907 512.97117993 120.56029613 512.96939927 C112.87732704 512.96809352 105.19437714 512.97188622 97.51141167 512.97932434 C95.30141829 512.98142345 93.0914249 512.98352105 90.88143152 512.98561716 C89.78158343 512.98666069 88.68173534 512.98770422 87.54855853 512.98877937 C66.7310806 513.00769638 45.91363788 513.00662702 25.09615492 512.99981004 C6.03567266 512.99423307 -13.02467524 513.01506398 -32.08512609 513.04817051 C-51.63898657 513.08187144 -71.19278262 513.09708036 -90.74667269 513.09245348 C-101.73169209 513.0902052 -112.7165873 513.09550427 -123.70158195 513.12034607 C-133.05292675 513.14131276 -142.40407926 513.14499736 -151.75543182 513.12604648 C-156.52963022 513.11686007 -161.30346966 513.11583397 -166.07764053 513.13640213 C-170.44433848 513.15500729 -174.81038087 513.15072739 -179.17705304 513.12785631 C-180.76047044 513.12364391 -182.34393709 513.12795844 -183.92730259 513.14145225 C-186.07331918 513.15850195 -188.21701783 513.14500987 -190.3629446 513.12361908 C-192.15354468 513.12402766 -192.15354468 513.12402766 -193.98031849 513.12444448 C-197 512.5 -197 512.5 -199.41872221 510.18758631 C-201 507.5 -201 507.5 -200.9375 503.875 C-199.61805556 499.125 -199.61805556 499.125 -197 497.5 C-195.5459375 497.4690625 -195.5459375 497.4690625 -194.0625 497.4375 C-192.5465625 496.9734375 -192.5465625 496.9734375 -191 496.5 C-189.74687124 494.18365788 -189.74687124 494.18365788 -188.80859375 491.44140625 C-188.29317017 490.06190796 -188.29317017 490.06190796 -187.76733398 488.65454102 C-187.38750366 487.58804321 -187.38750366 487.58804321 -187 486.5 C-187.8054425 486.49413376 -188.61088501 486.48826752 -189.44073486 486.48222351 C-197.03322857 486.42430717 -204.62539371 486.35223701 -212.21759415 486.26428509 C-216.12079044 486.21956727 -220.02388202 486.18031451 -223.92724609 486.15356445 C-227.69460155 486.12754516 -231.46155435 486.08715318 -235.22866058 486.03681374 C-236.66550435 486.02013558 -238.10241778 486.00862718 -239.53934479 486.00238609 C-241.55270928 485.99275628 -243.56594702 485.96300123 -245.57910156 485.93237305 C-246.72493713 485.92126999 -247.87077271 485.91016693 -249.05133057 485.89872742 C-252.29063444 485.46069959 -253.69140515 484.77749051 -256 482.5 C-256.49609375 480.34375 -256.49609375 480.34375 -256.4375 478 C-256.43621094 477.2265625 -256.43492187 476.453125 -256.43359375 475.65625 C-255.87632944 472.88498964 -255.31608534 472.12931157 -253 470.5 C-251.8818692 470.27399612 -250.7637384 470.04799225 -249.61172485 469.81513977 C-245.83982373 468.81760854 -245.83982373 468.81760854 -243.94198608 465.72160339 C-242.09881526 461.66644577 -240.2993135 457.61778552 -238.6484375 453.48046875 C-238.33679028 452.71155996 -238.02514305 451.94265118 -237.70405197 451.15044212 C-230.32643325 432.48633751 -230.13452131 414.28684477 -230.57513428 394.4753418 C-230.66003721 389.9415044 -230.66169511 385.40755836 -230.671875 380.87304688 C-230.70312732 372.08002958 -230.82108496 363.29125194 -231 354.5 C-231.67546875 354.52320313 -232.3509375 354.54640625 -233.046875 354.5703125 C-233.93890625 354.58835937 -234.8309375 354.60640625 -235.75 354.625 C-236.63171875 354.64820313 -237.5134375 354.67140625 -238.421875 354.6953125 C-241.14718253 354.48884981 -242.69896221 353.94007042 -245 352.5 C-247.0815902 349.82366974 -246.99587591 348.38246332 -246.875 344.9375 C-246 341.5 -246 341.5 -244.125 339.5625 C-242 338.5 -242 338.5 -239 338.5 C-238.82984375 337.95472656 -238.6596875 337.40945313 -238.484375 336.84765625 C-238.24203125 336.09355469 -237.9996875 335.33945312 -237.75 334.5625 C-237.51796875 333.83160156 -237.2859375 333.10070312 -237.046875 332.34765625 C-236 329.5 -236 329.5 -235.04048157 327.62271118 C-232.03093862 321.61798636 -231.43683723 316.64386381 -231.49609375 309.98828125 C-231.48667252 309.0164238 -231.47725128 308.04456635 -231.46754456 307.04325867 C-231.4390856 303.96612007 -231.43581013 300.88975902 -231.4375 297.8125 C-231.43388509 294.72464401 -231.42430442 291.637346 -231.39674377 288.54960632 C-231.38003146 286.63643937 -231.37701955 284.7230883 -231.38975525 282.80989075 C-231.33628796 276.04097866 -230.18201952 271.78592521 -225.375 266.75 C-220.30283013 262.81622237 -214.20502587 262.45698534 -208 262.5 C-208.00888245 261.85901367 -208.01776489 261.21802734 -208.0269165 260.55761719 C-208.11630444 253.80770913 -208.17610834 247.05797263 -208.21972656 240.30761719 C-208.23968165 237.79778194 -208.26685553 235.2879922 -208.30175781 232.77832031 C-208.64078372 207.75023159 -206.21486177 186.41655789 -188 167.5 C-176.13317126 156.07336275 -162.77723676 150.79887678 -147 147.5 C-146.99589111 146.76362305 -146.99178223 146.02724609 -146.98754883 145.26855469 C-146.95463008 141.92822305 -146.88398686 138.58971949 -146.8125 135.25 C-146.80379883 133.51169922 -146.80379883 133.51169922 -146.79492188 131.73828125 C-146.57256688 123.18996715 -146.57256688 123.18996715 -143.67578125 119.69921875 C-140.01455525 118.05834812 -137.82597001 118.43723055 -134 119.5 C-131.41544715 121.39533875 -131.03724494 122.38826517 -130 125.5 C-129.91790208 127.27313851 -129.89253706 129.04920775 -129.90234375 130.82421875 C-129.90717773 132.36625977 -129.90717773 132.36625977 -129.91210938 133.93945312 C-129.92467773 135.54723633 -129.92467773 135.54723633 -129.9375 137.1875 C-129.94201172 138.27095703 -129.94652344 139.35441406 -129.95117188 140.47070312 C-129.96296257 143.14719085 -129.97941937 145.82356777 -130 148.5 C-129.01181274 148.57891479 -129.01181274 148.57891479 -128.00366211 148.65942383 C-110.71950816 150.18491556 -98.08026644 158.65164094 -86 170.5 C-85.96261719 169.18128906 -85.92523438 167.86257812 -85.88671875 166.50390625 C-84.94447597 138.78691351 -79.74132806 117.14551102 -60 96.5 C-59.21625 95.63375 -58.4325 94.7675 -57.625 93.875 C-48.08106057 85.24000718 -36.07493108 76.81081162 -23 75.5 C-23.02094727 74.88068604 -23.04189453 74.26137207 -23.06347656 73.62329102 C-23.1475182 70.76986458 -23.19893445 67.91669964 -23.25 65.0625 C-23.28351563 64.08861328 -23.31703125 63.11472656 -23.3515625 62.11132812 C-23.45392657 54.45961366 -22.17574469 48.34432251 -17.21875 42.34375 C-16.6515625 41.9003125 -16.084375 41.456875 -15.5 41 C-14.9328125 40.5359375 -14.365625 40.071875 -13.78125 39.59375 C-11.85879476 38.41329503 -10.18519961 37.99940963 -8 37.5 C-8.02094727 36.5212793 -8.04189453 35.54255859 -8.06347656 34.53417969 C-8.13597963 30.89647096 -8.18183633 27.25882584 -8.21972656 23.62060547 C-8.2398188 22.04725396 -8.26709799 20.47397692 -8.30175781 18.90087891 C-8.35038494 16.63685728 -8.37299135 14.37382427 -8.390625 12.109375 C-8.41127014 11.40818542 -8.43191528 10.70699585 -8.45318604 9.98455811 C-8.45475967 6.54491704 -8.24067658 4.80947667 -6.10058594 2.05761719 C-3.82506842 0.37028551 -2.79626259 -0.0436916 0 0 Z M-6 54.5 C-7.59412284 57.68824568 -7.10174735 61.12896662 -7.0625 64.625 C-7.05798828 65.37910156 -7.05347656 66.13320312 -7.04882812 66.91015625 C-7.03703499 68.77347127 -7.01909942 70.63674555 -7 72.5 C-2.38 72.5 2.24 72.5 7 72.5 C7.08112454 69.91603321 7.14054748 67.33462432 7.1875 64.75 C7.21263672 64.02039063 7.23777344 63.29078125 7.26367188 62.5390625 C7.30831526 59.26521459 7.24250362 56.93706239 5.63671875 54.04296875 C1.55364886 50.19377398 -1.85023643 51.38767733 -6 54.5 Z M-8 91.5 C-12.79816502 96.7372128 -17.01448614 102.59449959 -19 109.5 C-18.67 110.16 -18.34 110.82 -18 111.5 C-17.27296875 111.2834375 -16.5459375 111.066875 -15.796875 110.84375 C-3.4030358 107.41160991 6.6483185 108.15309275 19 111.5 C16.83626336 102.96869555 12.65864787 96.15864787 6.4375 89.9375 C0.73972244 86.57727221 -3.23914698 86.99904466 -8 91.5 Z M-49.1875 108.0625 C-60.21904623 119.20192124 -66.27919596 133.01276367 -68 148.5 C-61.4 148.5 -54.8 148.5 -48 148.5 C-47.4225 146.499375 -46.845 144.49875 -46.25 142.4375 C-44.96101205 137.97207745 -43.34116737 134.39310784 -40.96337891 130.41333008 C-39.1336997 126.77947404 -38.4303551 122.82659078 -37.5625 118.875 C-35.66723498 110.74879851 -33.29508697 103.18386237 -30 95.5 C-36.92806963 95.5 -44.40176715 103.40728713 -49.1875 108.0625 Z M30 95.5 C30.38671875 96.45777344 30.7734375 97.41554688 31.171875 98.40234375 C34.01389775 105.61361024 36.40628489 112.65702434 38 120.25 C39.35218497 126.63700876 41.35773825 131.98123794 44.6328125 137.69140625 C46 140.5 46 140.5 48 148.5 C54.6 148.5 61.2 148.5 68 148.5 C65.77412302 128.4671072 56.20689095 114.22649585 41.14453125 101.1953125 C36.08214694 97.08317819 36.08214694 97.08317819 30 95.5 Z M-24 133.5 C-27.90815409 138.34820006 -30.00941302 142.52823907 -32 148.5 C-24.08 148.5 -16.16 148.5 -8 148.5 C-7.34 146.85 -6.68 145.2 -6 143.5 C-3.46163528 141.50557058 -2.18336285 141.4887737 1.0625 141.6875 C4.06931151 142.51917127 5.18936404 143.02228764 7 145.5 C7.495 146.985 7.495 146.985 8 148.5 C15.92 148.5 23.84 148.5 32 148.5 C27.02969508 136.07423771 23.45224372 131.13282856 11.76953125 125.62890625 C-0.67328501 120.55701077 -14.52560937 124.10853621 -24 133.5 Z M-145.234375 167.39453125 C-154.97936759 179.01521932 -156.79372227 195.02466723 -158 209.5 C-145.13 209.5 -132.26 209.5 -119 209.5 C-120.13528251 194.74132739 -122.07610236 177.88710871 -132.5625 166.3125 C-137.85140328 162.37972577 -140.62010225 163.01097214 -145.234375 167.39453125 Z M132 166.5 C122.66653804 178.27114261 119 194.80565736 119 209.5 C131.87 209.5 144.74 209.5 158 209.5 C155.43347273 184.96458081 155.43347273 184.96458081 142.3125 164.9375 C138.10511744 162.32210003 135.74349603 163.83692014 132 166.5 Z M-69 164.5 C-69 181.33 -69 198.16 -69 215.5 C-65.8956644 214.25826576 -63.30709821 213.2118012 -60.484375 211.58984375 C-59.87335938 211.23986328 -59.26234375 210.88988281 -58.6328125 210.52929688 C-58.01148438 210.16900391 -57.39015625 209.80871094 -56.75 209.4375 C-56.11320313 209.07333984 -55.47640625 208.70917969 -54.8203125 208.33398438 C-51.72860956 206.66740226 -51.72860956 206.66740226 -49 204.5 C-48.91131701 201.54294679 -48.88479704 198.60934944 -48.90234375 195.65234375 C-48.9037587 194.7659169 -48.90517365 193.87949005 -48.90663147 192.96620178 C-48.91224785 190.12326746 -48.92480309 187.28041069 -48.9375 184.4375 C-48.94251289 182.51497509 -48.94707616 180.59244896 -48.95117188 178.66992188 C-48.96137352 173.94656036 -48.98094563 169.22336742 -49 164.5 C-55.6 164.5 -62.2 164.5 -69 164.5 Z M-33 164.5 C-33 174.73 -33 184.96 -33 195.5 C-30.916875 194.2625 -28.83375 193.025 -26.6875 191.75 C-20.64705808 188.23168256 -14.67103248 185.6635781 -8 183.5 C-8 177.23 -8 170.96 -8 164.5 C-16.25 164.5 -24.5 164.5 -33 164.5 Z M8 164.5 C8 170.77 8 177.04 8 183.5 C9.52625 183.995 11.0525 184.49 12.625 185 C19.96907193 187.64271689 26.30337309 191.5218058 33 195.5 C33 185.27 33 175.04 33 164.5 C24.75 164.5 16.5 164.5 8 164.5 Z M49 164.5 C48.79283324 170.090945 48.61398215 175.66852095 48.50561523 181.26025391 C48.46044957 183.15980187 48.39909831 185.05903854 48.32104492 186.95751953 C47.40392785 197.51777906 47.40392785 197.51777906 50.86987305 207.01123047 C53.20867765 208.5817403 55.34786894 209.57337558 58 210.5 C58.91652344 211.05429688 59.83304687 211.60859375 60.77734375 212.1796875 C61.84662109 212.77136719 61.84662109 212.77136719 62.9375 213.375 C63.66839844 213.78492188 64.39929688 214.19484375 65.15234375 214.6171875 C66.95947713 215.64370599 66.95947713 215.64370599 69 215.5 C69 198.67 69 181.84 69 164.5 C62.4 164.5 55.8 164.5 49 164.5 Z M-176.3984375 178.88671875 C-184.34183468 186.865897 -191 197.9414513 -191 209.5 C-185.39 209.5 -179.78 209.5 -174 209.5 C-173.61908203 207.07527344 -173.61908203 207.07527344 -173.23046875 204.6015625 C-172.88316567 202.44265149 -172.53548952 200.28380047 -172.1875 198.125 C-172.02185547 197.06410156 -171.85621094 196.00320312 -171.68554688 194.91015625 C-170.71609612 188.94711954 -169.48366743 183.27390182 -167.5793457 177.53662109 C-166.86319537 175.37198285 -166.86319537 175.37198285 -167 172.5 C-170.88838946 172.5 -173.68102532 176.36900113 -176.3984375 178.88671875 Z M-110 172.5 C-109.74605469 173.41136719 -109.49210938 174.32273438 -109.23046875 175.26171875 C-106.19240478 186.56118475 -104.48324171 197.90374666 -103 209.5 C-97.06 209.5 -91.12 209.5 -85 209.5 C-88.25812438 194.11441264 -95.09085528 181.92947509 -108 172.5 C-108.66 172.5 -109.32 172.5 -110 172.5 Z M99.12109375 180.16796875 C91.08752367 188.36235643 87.17641537 198.34587125 85 209.5 C90.94 209.5 96.88 209.5 103 209.5 C103.17015625 208.1696875 103.3403125 206.839375 103.515625 205.46875 C105.00381668 194.25047535 106.96206105 183.40265402 110 172.5 C105.85790911 172.5 102.02059455 177.39100043 99.12109375 180.16796875 Z M167 172.5 C167.268125 173.69625 167.53625 174.8925 167.8125 176.125 C167.99425781 176.94871094 168.17601562 177.77242187 168.36328125 178.62109375 C168.81337969 180.65620142 169.26971831 182.68993372 169.73046875 184.72265625 C171.56104461 192.96489374 172.88979178 201.13073807 174 209.5 C179.61 209.5 185.22 209.5 191 209.5 C189.10391127 194.33129018 182.39614174 183.87225563 170.8828125 173.86328125 C169.11743461 172.3045094 169.11743461 172.3045094 167 172.5 Z M-22 207.5 C-22 207.83 -22 208.16 -22 208.5 C-7.48 208.5 7.04 208.5 22 208.5 C15.80514453 202.30514453 9.05014385 198.85842381 0.1875 198.625 C-8.58447224 198.65550572 -14.98825261 202.59177683 -22 207.5 Z M-67 233.5 C-67 233.83 -67 234.16 -67 234.5 C-22.78 234.5 21.44 234.5 67 234.5 C57.22953846 224.72953846 48.45724583 223.58355228 35.16874695 223.47607422 C32.98098095 223.48196878 30.79321982 223.48999694 28.60546875 223.5 C26.32684018 223.49018578 24.04821863 223.47859837 21.76960754 223.46533203 C17.0077915 223.44605873 12.24689137 223.45289699 7.48510742 223.47753906 C1.41893472 223.50618231 -4.64421731 223.46253251 -10.71002674 223.39813232 C-15.41260433 223.35758385 -20.11447171 223.35957706 -24.81717491 223.37353516 C-27.05163978 223.37450073 -29.28615836 223.36180092 -31.52045631 223.33447266 C-45.58482887 223.18783621 -55.90775638 224.30392143 -67 233.5 Z M-192 225.5 C-192 237.38 -192 249.26 -192 261.5 C-174.95246764 260.76867095 -157.96481897 259.47173536 -140.95874023 258.11352539 C-137.23047352 257.81640145 -133.50194347 257.52261917 -129.7734375 257.22851562 C-122.51537037 256.65552589 -115.2575929 256.07896881 -108 255.5 C-107.87520264 254.82743164 -107.75040527 254.15486328 -107.62182617 253.46191406 C-107.36622925 252.12725098 -107.36622925 252.12725098 -107.10546875 250.765625 C-106.85639771 249.44739746 -106.85639771 249.44739746 -106.60229492 248.10253906 C-104.8799906 240.66039715 -101.24751403 235.79819279 -95 231.5 C-92.05368633 229.72189032 -89.06222208 228.06930202 -86 226.5 C-86 226.17 -86 225.84 -86 225.5 C-120.98 225.5 -155.96 225.5 -192 225.5 Z M86 225.5 C89.25675659 228.10540527 91.95280469 230.11904449 95.4375 232.1875 C101.14300701 235.99117134 105.06843252 240.6040836 106.68774414 247.3762207 C106.92158813 248.82387817 106.92158813 248.82387817 107.16015625 250.30078125 C107.32265869 251.27829346 107.48516113 252.25580566 107.65258789 253.26293945 C107.82455688 254.37028442 107.82455688 254.37028442 108 255.5 C118.0661028 256.28501908 128.13239598 257.06754561 138.19893837 257.84690857 C142.8734442 258.20889243 147.54788065 258.57172793 152.22216797 258.93652344 C156.73480367 259.28867142 161.2476091 259.63856438 165.76054001 259.98690796 C167.48053573 260.12006676 169.20046922 260.25403198 170.92033768 260.38882446 C173.33296144 260.57777091 175.74579242 260.76382465 178.15869141 260.94921875 C178.86647736 261.00532318 179.57426331 261.06142761 180.30349731 261.11923218 C184.23327881 261.41777122 188.04489073 261.5 192 261.5 C192 249.62 192 237.74 192 225.5 C157.02 225.5 122.04 225.5 86 225.5 Z M-92 251.5 C-92.07179964 253.01928038 -92.08392007 254.54167482 -92.0625 256.0625 C-92.05347656 256.88878906 -92.04445312 257.71507812 -92.03515625 258.56640625 C-92.02355469 259.20449219 -92.01195312 259.84257812 -92 260.5 C-91.02947189 260.50586624 -90.05894379 260.51173248 -89.05900574 260.51777649 C-79.92105115 260.57494296 -70.78333593 260.64767245 -61.64562511 260.73571491 C-56.94760534 260.7804784 -52.2496735 260.81972118 -47.55151367 260.84643555 C-43.01910335 260.8724091 -38.4870303 260.91276885 -33.95482826 260.96318626 C-32.2240855 260.97989537 -30.49328436 260.99138441 -28.76247215 260.99761391 C-26.34153097 261.00721132 -23.92146051 261.03521671 -21.50073242 261.06762695 C-20.78216064 261.06619186 -20.06358887 261.06475677 -19.32324219 261.0632782 C-16.40299223 261.1187188 -14.46497335 261.1633254 -12.05830383 262.90592957 C-10.74361186 264.88618471 -10.56698484 266.13200538 -10.5625 268.5 C-10.54316406 269.180625 -10.52382812 269.86125 -10.50390625 270.5625 C-11 272.5 -11 272.5 -12.56085205 274.09407043 C-15.85103403 275.99053765 -18.82694451 275.93988892 -22.52246094 275.93237305 C-23.27406998 275.9425647 -24.02567902 275.95275635 -24.80006409 275.96325684 C-27.27824351 275.99339124 -29.75603642 276.00265323 -32.234375 276.01171875 C-33.95503016 276.02856515 -35.67567301 276.04671534 -37.39630127 276.06611633 C-41.92047275 276.11362688 -46.44459433 276.14342936 -50.96893311 276.16955566 C-55.58746193 276.19935589 -60.20581876 276.24588806 -64.82421875 276.29101562 C-73.88272256 276.3770607 -82.94126175 276.44440062 -92 276.5 C-92 280.13 -92 283.76 -92 287.5 C-31.28 287.5 29.44 287.5 92 287.5 C92 283.87 92 280.24 92 276.5 C91.04422058 276.49413376 90.08844116 276.48826752 89.10369873 276.48222351 C80.09849914 276.42502253 71.09354165 276.35227477 62.08858871 276.26428509 C57.45897917 276.21954823 52.82945831 276.18029948 48.19970703 276.15356445 C43.73212876 276.12756446 39.26489113 276.08718567 34.7975235 276.03681374 C33.09272751 276.02012261 31.38787258 276.00862233 29.68300629 276.00238609 C27.29579416 275.99276923 24.90945791 275.96474019 22.52246094 275.93237305 C21.81683517 275.93380814 21.11120941 275.93524323 20.38420105 275.9367218 C16.33771579 275.8590721 13.87911007 275.4403839 11 272.5 C10.50390625 270.5625 10.50390625 270.5625 10.5625 268.5 C10.56378906 267.819375 10.56507813 267.13875 10.56640625 266.4375 C11.1548904 263.80787712 11.80328881 263.09057903 14 261.5 C16.57809754 261.19055535 18.92030514 261.06247348 21.50073242 261.06762695 C22.26194901 261.0574353 23.02316559 261.04724365 23.80744934 261.03674316 C26.32353005 261.00654893 28.83923047 260.99733764 31.35546875 260.98828125 C33.09997326 260.97143929 34.84446561 260.9532897 36.58894348 260.93388367 C41.18053382 260.88632495 45.77207483 260.85655367 50.36383057 260.83044434 C55.04929348 260.80066836 59.73458628 260.7541279 64.41992188 260.70898438 C73.61319237 260.62288452 82.80649782 260.55556903 92 260.5 C92.02689216 259.02093108 92.04634621 257.54172517 92.0625 256.0625 C92.07990234 254.82693359 92.07990234 254.82693359 92.09765625 253.56640625 C92.23267348 251.50836062 92.23267348 251.50836062 91 250.5 C88.64942792 250.40015626 86.32818473 250.36557236 83.97705078 250.37301636 C82.8620177 250.37067637 82.8620177 250.37067637 81.72445869 250.36828911 C79.21472358 250.36427636 76.70504815 250.36746981 74.1953125 250.37060547 C72.40370651 250.36925155 70.61210079 250.36747167 68.82049561 250.36529541 C63.94047112 250.36071996 59.06046768 250.36251109 54.18044281 250.3656745 C49.08530112 250.36819752 43.99016129 250.36586072 38.89501953 250.36428833 C30.33691076 250.36246647 21.77881059 250.36487338 13.22070312 250.36962891 C3.31128562 250.37507156 -6.5981113 250.37330891 -16.50752831 250.3678025 C-24.99921533 250.36327185 -33.49089615 250.36262059 -41.982584 250.36524117 C-47.06145185 250.36680421 -52.14031001 250.36699698 -57.21917725 250.36370468 C-61.99283567 250.36082666 -66.76646745 250.36280038 -71.54012299 250.36859894 C-73.2973908 250.36992691 -75.05466085 250.3695318 -76.8119278 250.36733627 C-79.20033293 250.3646262 -81.58865126 250.36800411 -83.97705078 250.37301636 C-85.03388722 250.36967027 -85.03388722 250.36967027 -86.1120739 250.36625659 C-89.33505781 250.10692447 -89.33505781 250.10692447 -92 251.5 Z M108 271.5 C108 276.78 108 282.06 108 287.5 C143.31 287.5 178.62 287.5 215 287.5 C215 284.86 215 282.22 215 279.5 C211.66181905 277.83090953 207.88998582 278.00687372 204.2109375 277.74389648 C202.84471001 277.64126495 202.84471001 277.64126495 201.45088196 277.53656006 C198.42588649 277.3104921 195.40047568 277.09063452 192.375 276.87109375 C190.27187171 276.71584613 188.16876322 276.56032996 186.06567383 276.40455627 C181.64733061 276.07825822 177.22877952 275.75497939 172.81005859 275.43383789 C167.16532236 275.02338893 161.52113043 274.60594533 155.8770752 274.18624783 C151.52764471 273.86354141 147.17795792 273.54440402 142.82818604 273.22633553 C140.74864032 273.0738853 138.66917092 272.9203901 136.58978271 272.7658062 C133.66817659 272.54919238 130.74626079 272.33735018 127.82421875 272.12670898 C126.55038078 272.0308828 126.55038078 272.0308828 125.25080872 271.93312073 C119.48760729 271.52443384 113.77786492 271.44840043 108 271.5 Z M-127.82421875 272.12670898 C-129.21147408 272.22671204 -129.21147408 272.22671204 -130.62675476 272.32873535 C-133.64728485 272.54750389 -136.66739225 272.77157577 -139.6875 272.99609375 C-141.7983254 273.15083707 -143.90916549 273.30538002 -146.02001953 273.45973206 C-150.42449827 273.78267003 -154.82876809 274.10829468 -159.23291016 274.43579102 C-164.88637293 274.85592901 -170.54033456 275.26888007 -176.19447327 275.67980862 C-180.54398879 275.99677683 -184.89320453 276.31771267 -189.24234009 276.63984871 C-191.32832453 276.79383081 -193.41440503 276.94651719 -195.50057983 277.09789848 C-198.40435135 277.30916226 -201.30767214 277.52580208 -204.2109375 277.74389648 C-205.07635666 277.80575638 -205.94177582 277.86761627 -206.8334198 277.93135071 C-211.0513719 278.16281818 -211.0513719 278.16281818 -215 279.5 C-215 282.14 -215 284.78 -215 287.5 C-179.69 287.5 -144.38 287.5 -108 287.5 C-108 282.22 -108 276.94 -108 271.5 C-114.64833363 271.44062666 -121.19632336 271.62811657 -127.82421875 272.12670898 Z M-215 303.5 C-215 306.8 -215 310.1 -215 313.5 C-187.61 313.5 -160.22 313.5 -132 313.5 C-132 310.2 -132 306.9 -132 303.5 C-159.39 303.5 -186.78 303.5 -215 303.5 Z M-116 303.5 C-116 306.8 -116 310.1 -116 313.5 C-103.79 313.5 -91.58 313.5 -79 313.5 C-79 310.2 -79 306.9 -79 303.5 C-91.21 303.5 -103.42 303.5 -116 303.5 Z M-63 303.5 C-63 306.8 -63 310.1 -63 313.5 C-50.79 313.5 -38.58 313.5 -26 313.5 C-26 310.2 -26 306.9 -26 303.5 C-38.21 303.5 -50.42 303.5 -63 303.5 Z M-10 303.5 C-10.20928969 308.53985245 -10.20928969 308.53985245 -10.38793945 313.58081055 C-10.61593009 317.96810488 -11.12128476 320.99521023 -14 324.5 C-15.01373688 325.01109314 -16.02747375 325.52218628 -17.07192993 326.04876709 C-20.08215452 328.10188388 -20.08215452 328.10188388 -20.54629135 330.42589569 C-20.74082393 332.95206241 -20.74173359 335.41706773 -20.68115234 337.95019531 C-20.6820285 338.90662933 -20.68290466 339.86306335 -20.68380737 340.84848022 C-20.67962783 344.00919325 -20.63295708 347.16778287 -20.5859375 350.328125 C-20.5747467 352.51958049 -20.56620597 354.71105099 -20.56021118 356.90252686 C-20.53730401 362.67001807 -20.47836325 368.43660241 -20.4119873 374.20373535 C-20.35060622 380.08882376 -20.32320501 385.97405874 -20.29296875 391.859375 C-20.22862287 403.40664841 -20.12621955 414.95324879 -20 426.5 C-16.04 426.5 -12.08 426.5 -8 426.5 C-7.99413376 425.46905212 -7.98826752 424.43810425 -7.98222351 423.37591553 C-7.92503229 413.66435253 -7.85228959 403.95301424 -7.76428509 394.24168015 C-7.71954079 389.24886435 -7.68029362 384.25613092 -7.65356445 379.26318359 C-7.62757198 374.44549032 -7.58719838 369.62811332 -7.53681374 364.81061554 C-7.52011755 362.97184429 -7.50862043 361.1330183 -7.50238609 359.29418182 C-7.49277485 356.72019729 -7.46475192 354.14702694 -7.43237305 351.57324219 C-7.43380814 350.81151199 -7.43524323 350.0497818 -7.4367218 349.26496887 C-7.3806612 346.11780762 -7.17491795 343.82970289 -5.68782043 341.02667236 C-4 339.5 -4 339.5 -0.5625 339 C3 339.5 3 339.5 5.1885376 341.02667236 C7.68734784 344.43848838 7.57278862 347.50135732 7.54589844 351.57324219 C7.56140495 352.78843788 7.56140495 352.78843788 7.57722473 354.02818298 C7.60668146 356.70128252 7.60815248 359.37362583 7.609375 362.046875 C7.62435474 363.90205329 7.64108145 365.75721823 7.65948486 367.61236572 C7.70319383 372.49168506 7.72316532 377.3708245 7.73822021 382.25030518 C7.75777851 387.23078057 7.79974996 392.21106132 7.83984375 397.19140625 C7.91518427 406.96087751 7.96545248 416.73030529 8 426.5 C11.96 426.5 15.92 426.5 20 426.5 C20.13891761 413.79161092 20.2455796 401.08340195 20.31087303 388.37440872 C20.34220818 382.47329168 20.38472214 376.57269343 20.45263672 370.671875 C20.51774944 364.97897991 20.55368958 359.28658431 20.56926346 353.59334564 C20.58036421 351.41952396 20.60204137 349.24573014 20.63438034 347.07212067 C20.67783527 344.03087439 20.68393857 340.99170124 20.68115234 337.95019531 C20.702724 337.04820404 20.72429565 336.14621277 20.746521 335.21688843 C20.72278462 332.82803555 20.65204587 330.79872269 20 328.5 C17.20057644 325.96722928 17.20057644 325.96722928 14 324.5 C10.58389456 320.34094625 10.47518422 316.34864356 10.3125 311.1875 C10.209375 308.650625 10.10625 306.11375 10 303.5 C3.4 303.5 -3.2 303.5 -10 303.5 Z M26 303.5 C26 306.8 26 310.1 26 313.5 C38.21 313.5 50.42 313.5 63 313.5 C63 310.2 63 306.9 63 303.5 C50.79 303.5 38.58 303.5 26 303.5 Z M79 303.5 C79 306.8 79 310.1 79 313.5 C91.21 313.5 103.42 313.5 116 313.5 C116 310.2 116 306.9 116 303.5 C103.79 303.5 91.58 303.5 79 303.5 Z M132 303.5 C132 306.8 132 310.1 132 313.5 C159.39 313.5 186.78 313.5 215 313.5 C215 310.2 215 306.9 215 303.5 C187.61 303.5 160.22 303.5 132 303.5 Z M-218 329.5 C-219.98 333.955 -219.98 333.955 -222 338.5 C-189.33 338.5 -156.66 338.5 -123 338.5 C-123 335.53 -123 332.56 -123 329.5 C-154.35 329.5 -185.7 329.5 -218 329.5 Z M-107 329.5 C-107 361.51 -107 393.52 -107 426.5 C-102.71 426.5 -98.42 426.5 -94 426.5 C-94 394.49 -94 362.48 -94 329.5 C-98.29 329.5 -102.58 329.5 -107 329.5 Z M-78 329.5 C-78 361.51 -78 393.52 -78 426.5 C-73.38 426.5 -68.76 426.5 -64 426.5 C-64 394.49 -64 362.48 -64 329.5 C-68.62 329.5 -73.24 329.5 -78 329.5 Z M-49 329.5 C-49 372.4 -49 415.3 -49 459.5 C-44.71 459.5 -40.42 459.5 -36 459.5 C-36 416.6 -36 373.7 -36 329.5 C-40.29 329.5 -44.58 329.5 -49 329.5 Z M36 329.5 C36 372.4 36 415.3 36 459.5 C40.29 459.5 44.58 459.5 49 459.5 C49 416.6 49 373.7 49 329.5 C44.71 329.5 40.42 329.5 36 329.5 Z M64 329.5 C64 361.51 64 393.52 64 426.5 C68.62 426.5 73.24 426.5 78 426.5 C78 394.49 78 362.48 78 329.5 C73.38 329.5 68.76 329.5 64 329.5 Z M94 329.5 C94 361.51 94 393.52 94 426.5 C98.29 426.5 102.58 426.5 107 426.5 C107 394.49 107 362.48 107 329.5 C102.71 329.5 98.42 329.5 94 329.5 Z M123 329.5 C123 332.47 123 335.44 123 338.5 C155.67 338.5 188.34 338.5 222 338.5 C220.68 335.53 219.36 332.56 218 329.5 C186.65 329.5 155.3 329.5 123 329.5 Z M-215 354.5 C-215 378.26 -215 402.02 -215 426.5 C-210.71 426.5 -206.42 426.5 -202 426.5 C-202 402.74 -202 378.98 -202 354.5 C-206.29 354.5 -210.58 354.5 -215 354.5 Z M-186 354.5 C-186 378.26 -186 402.02 -186 426.5 C-165.21 426.5 -144.42 426.5 -123 426.5 C-123 402.74 -123 378.98 -123 354.5 C-143.79 354.5 -164.58 354.5 -186 354.5 Z M123 354.5 C123 378.26 123 402.02 123 426.5 C143.79 426.5 164.58 426.5 186 426.5 C186 402.74 186 378.98 186 354.5 C165.21 354.5 144.42 354.5 123 354.5 Z M-218 442.5 C-224.78220235 455.65677919 -224.78220235 455.65677919 -228 469.5 C-221.09508853 469.62672146 -214.19047656 469.71431806 -207.28466797 469.7746582 C-204.93527012 469.79981062 -202.58595059 469.83393663 -200.23681641 469.87719727 C-196.86080617 469.93781426 -193.48582989 469.96620295 -190.109375 469.98828125 C-188.53261993 470.02699089 -188.53261993 470.02699089 -186.92401123 470.06648254 C-181.08202043 470.21958302 -181.08202043 470.21958302 -176.43603516 467.05249023 C-175.72519775 465.78900757 -175.72519775 465.78900757 -175 464.5 C-169.5022874 460.99958374 -164.03551511 460.35684192 -157.625 460.25 C-153.05656479 460.19876665 -153.05656479 460.19876665 -149.32421875 457.984375 C-148.06159015 455.66037474 -148.06159015 455.66037474 -147 451.5 C-146.01 448.53 -145.02 445.56 -144 442.5 C-168.42 442.5 -192.84 442.5 -218 442.5 Z M-127 442.5 C-131.11589011 450.7850992 -131.11589011 450.7850992 -133 459.5 C-110.23 459.5 -87.46 459.5 -64 459.5 C-64 453.89 -64 448.28 -64 442.5 C-84.79 442.5 -105.58 442.5 -127 442.5 Z M-20 442.5 C-20 448.11 -20 453.72 -20 459.5 C-6.8 459.5 6.4 459.5 20 459.5 C20 453.89 20 448.28 20 442.5 C6.8 442.5 -6.4 442.5 -20 442.5 Z M64 442.5 C64 448.11 64 453.72 64 459.5 C86.77 459.5 109.54 459.5 133 459.5 C131.09970762 453.79912287 129.10998929 448.1266381 127 442.5 C106.21 442.5 85.42 442.5 64 442.5 Z M144 442.5 C146.40922099 451.70236708 146.40922099 451.70236708 151 459.5 C153.14416479 459.63419668 155.29066291 459.73161809 157.4375 459.8125 C163.7638814 460.2316792 169.57066649 461.04312099 175 464.5 C175.4738916 465.34232178 175.9477832 466.18464355 176.43603516 467.05249023 C179.91232187 470.37088428 182.251719 470.06828176 186.92401123 470.06648254 C187.97518127 470.04067612 189.02635132 470.01486969 190.109375 469.98828125 C191.73229462 469.97766914 191.73229462 469.97766914 193.38800049 469.96684265 C196.84270449 469.93886044 200.29578611 469.87611131 203.75 469.8125 C206.09242451 469.78742224 208.43487442 469.76460817 210.77734375 469.74414062 C216.51878244 469.68902128 222.25927532 469.60535588 228 469.5 C225.56296526 460.05358915 221.76340578 451.63969976 218 442.5 C193.58 442.5 169.16 442.5 144 442.5 Z M-166 477.5 C-167.04078446 479.2554568 -167.04078446 479.2554568 -167.82421875 481.30859375 C-168.13037109 482.05560547 -168.43652344 482.80261719 -168.75195312 483.57226562 C-169.06068359 484.35279297 -169.36941406 485.13332031 -169.6875 485.9375 C-170.00783203 486.71416016 -170.32816406 487.49082031 -170.65820312 488.29101562 C-172.49218719 492.7470339 -172.49218719 492.7470339 -173 497.5 C-58.82 497.5 55.36 497.5 173 497.5 C172.10238845 493.01194227 170.80415259 489.03495443 169.125 484.8125 C168.74021484 483.79833008 168.74021484 483.79833008 168.34765625 482.76367188 C166.94049426 479.21041108 166.25950908 477.67300605 163 475.5 C160.45638063 475.19885957 160.45638063 475.19885957 157.54797363 475.24831772 C156.40826363 475.24310222 155.26855362 475.23788673 154.09430695 475.23251319 C152.20781055 475.23920535 152.20781055 475.23920535 150.28320312 475.24603271 C148.9380654 475.24372949 147.59292893 475.2405539 146.2477951 475.23657823 C142.5434179 475.2282025 138.83914328 475.23236803 135.13476562 475.23855066 C131.14289645 475.24306284 127.15104532 475.23609755 123.15917969 475.23059082 C115.33593954 475.22168194 107.5127377 475.22362547 99.68949604 475.2294161 C93.33327736 475.23392672 86.97706943 475.2345481 80.62084961 475.23236847 C79.71735448 475.232062 78.81385936 475.23175554 77.88298559 475.23143978 C76.04774538 475.23080036 74.21250518 475.23015193 72.37726498 475.2294946 C55.15463862 475.22378693 37.93203353 475.23035605 20.70941067 475.24109533 C5.92084646 475.25003124 -8.86768636 475.24847932 -23.65625 475.23925781 C-40.81583931 475.2285629 -57.97540996 475.22433629 -75.13500214 475.23048234 C-76.96361796 475.23111946 -78.79223378 475.2317482 -80.62084961 475.23236847 C-81.52064246 475.23267702 -82.4204353 475.23298557 -83.3474946 475.23330347 C-89.69854587 475.23503275 -96.04958533 475.2321103 -102.40063477 475.22740936 C-110.13690073 475.22180917 -117.8731261 475.22329878 -125.6093874 475.23397085 C-129.55907235 475.23923921 -133.50868952 475.24126459 -137.45837402 475.23467255 C-141.07048443 475.22873494 -144.6824639 475.23195173 -148.29456234 475.24262765 C-150.22781065 475.24593787 -152.16106797 475.23937117 -154.09430695 475.23251319 C-155.23401695 475.23772868 -156.37372696 475.24294418 -157.54797363 475.24831772 C-158.53551888 475.24864242 -159.52306412 475.24896713 -160.54053497 475.24930167 C-163.25499376 475.33238197 -163.25499376 475.33238197 -166 477.5 Z " fill="#000000" transform="translate(256,-0.5)"/>
</svg>
