<svg xmlns="http://www.w3.org/2000/svg" xmlns:xlink="http://www.w3.org/1999/xlink" width="500" zoomAndPan="magnify" viewBox="0 0 375 374.999991" height="500" preserveAspectRatio="xMidYMid meet" version="1.0"><defs><g/></defs><rect x="-37.5" width="450" fill="#ffffff" y="-37.499999" height="449.999989" fill-opacity="1"/><rect x="-37.5" width="450" fill="#ff3131" y="-37.499999" height="449.999989" fill-opacity="1"/><g fill="#ffffff" fill-opacity="1"><g transform="translate(33.601749, 213.609541)"><g><path d="M 38.046875 6.921875 C 32.179688 6.921875 26.898438 5.75 22.203125 3.40625 C 17.515625 1.0625 13.832031 -2.253906 11.15625 -6.546875 C 8.488281 -10.835938 7.15625 -15.878906 7.15625 -21.671875 C 7.15625 -26.503906 8.125 -30.921875 10.0625 -34.921875 C 12.007812 -38.921875 14.578125 -42.421875 17.765625 -45.421875 C 20.953125 -48.429688 24.503906 -50.90625 28.421875 -52.84375 C 32.347656 -54.789062 36.289062 -56.164062 40.25 -56.96875 C 38.9375 -58 37.65625 -59.191406 36.40625 -60.546875 C 35.15625 -61.898438 34.128906 -63.457031 33.328125 -65.21875 C 29.367188 -65.875 25.40625 -66.84375 21.4375 -68.125 C 17.476562 -69.414062 13.882812 -71.03125 10.65625 -72.96875 C 7.4375 -74.914062 4.851562 -77.132812 2.90625 -79.625 C 0.96875 -82.125 0 -84.875 0 -87.875 C 0 -90.363281 0.363281 -92.523438 1.09375 -94.359375 C 1.832031 -96.191406 2.695312 -97.625 3.6875 -98.65625 C 4.675781 -99.6875 5.5 -100.203125 6.15625 -100.203125 C 7.039062 -100.203125 7.484375 -99.503906 7.484375 -98.109375 C 7.484375 -94.367188 8.582031 -90.8125 10.78125 -87.4375 C 12.976562 -84.0625 15.945312 -81.109375 19.6875 -78.578125 C 23.425781 -76.054688 27.53125 -74.171875 32 -72.921875 C 32.300781 -77.535156 33.75 -81.820312 36.34375 -85.78125 C 38.945312 -89.75 42.375 -92.941406 46.625 -95.359375 C 50.882812 -97.773438 55.582031 -98.984375 60.71875 -98.984375 C 65.40625 -98.984375 69.320312 -97.847656 72.46875 -95.578125 C 75.625 -93.304688 77.203125 -89.894531 77.203125 -85.34375 C 77.203125 -82.632812 75.992188 -79.722656 73.578125 -76.609375 C 71.160156 -73.492188 67.660156 -70.796875 63.078125 -68.515625 C 58.492188 -66.242188 52.9375 -64.925781 46.40625 -64.5625 C 46.78125 -63.164062 47.3125 -61.898438 48 -60.765625 C 48.695312 -59.628906 49.5625 -58.546875 50.59375 -57.515625 C 51.695312 -56.421875 51.585938 -55.429688 50.265625 -54.546875 C 48.941406 -53.671875 47.035156 -52.789062 44.546875 -51.90625 C 42.128906 -51.03125 39.65625 -49.820312 37.125 -48.28125 C 34.59375 -46.738281 32.265625 -44.796875 30.140625 -42.453125 C 28.015625 -40.109375 26.289062 -37.265625 24.96875 -33.921875 C 23.644531 -30.585938 22.984375 -26.648438 22.984375 -22.109375 C 22.984375 -18.148438 23.753906 -14.59375 25.296875 -11.4375 C 26.835938 -8.28125 28.984375 -5.785156 31.734375 -3.953125 C 34.484375 -2.117188 37.617188 -1.203125 41.140625 -1.203125 C 44.722656 -1.203125 48.09375 -1.914062 51.25 -3.34375 C 54.40625 -4.78125 57.207031 -6.726562 59.65625 -9.1875 C 62.113281 -11.644531 64.039062 -14.503906 65.4375 -17.765625 C 66.832031 -21.023438 67.53125 -24.453125 67.53125 -28.046875 C 67.53125 -33.035156 66.554688 -36.609375 64.609375 -38.765625 C 62.671875 -40.929688 60.53125 -42.015625 58.1875 -42.015625 C 55.976562 -42.015625 54.125 -41.1875 52.625 -39.53125 C 51.125 -37.882812 50.003906 -35.6875 49.265625 -32.9375 C 48.535156 -30.1875 48.171875 -27.160156 48.171875 -23.859375 C 48.171875 -22.253906 47.675781 -21.285156 46.6875 -20.953125 C 45.695312 -20.617188 44.539062 -20.816406 43.21875 -21.546875 C 41.90625 -22.285156 40.753906 -23.425781 39.765625 -24.96875 C 38.773438 -26.507812 38.28125 -28.34375 38.28125 -30.46875 C 38.28125 -33.988281 39.25 -37.085938 41.1875 -39.765625 C 43.132812 -42.441406 45.644531 -44.53125 48.71875 -46.03125 C 51.800781 -47.53125 54.957031 -48.28125 58.1875 -48.28125 C 61.257812 -48.28125 63.878906 -47.601562 66.046875 -46.25 C 68.210938 -44.894531 70.007812 -43.148438 71.4375 -41.015625 C 72.863281 -38.890625 73.90625 -36.632812 74.5625 -34.25 C 75.226562 -31.875 75.5625 -29.695312 75.5625 -27.71875 C 75.5625 -24.125 74.753906 -20.3125 73.140625 -16.28125 C 71.523438 -12.25 69.140625 -8.472656 65.984375 -4.953125 C 62.835938 -1.429688 58.9375 1.425781 54.28125 3.625 C 49.625 5.820312 44.210938 6.921875 38.046875 6.921875 Z M 45.859375 -71.484375 C 50.484375 -71.785156 54.535156 -72.648438 58.015625 -74.078125 C 61.492188 -75.503906 64.222656 -77.28125 66.203125 -79.40625 C 68.191406 -81.53125 69.1875 -83.691406 69.1875 -85.890625 C 69.1875 -88.171875 68.453125 -89.820312 66.984375 -90.84375 C 65.515625 -91.875 63.71875 -92.390625 61.59375 -92.390625 C 58.726562 -92.390625 56.140625 -91.34375 53.828125 -89.25 C 51.523438 -87.164062 49.675781 -84.523438 48.28125 -81.328125 C 46.882812 -78.140625 46.078125 -74.859375 45.859375 -71.484375 Z M 45.859375 -71.484375 "/></g></g></g><g fill="#ffffff" fill-opacity="1"><g transform="translate(115.761757, 213.609541)"><g><path d="M 21.671875 0 C 18.148438 0 15.210938 -1.003906 12.859375 -3.015625 C 10.515625 -5.035156 8.679688 -7.734375 7.359375 -11.109375 C 6.046875 -14.484375 5.113281 -18.222656 4.5625 -22.328125 C 4.007812 -26.429688 3.734375 -30.570312 3.734375 -34.75 C 3.734375 -37.613281 4.300781 -40.070312 5.4375 -42.125 C 6.582031 -44.175781 7.992188 -45.804688 9.671875 -47.015625 C 11.359375 -48.222656 13.023438 -49.007812 14.671875 -49.375 C 16.328125 -49.75 17.6875 -49.710938 18.75 -49.265625 C 19.8125 -48.828125 20.269531 -47.988281 20.125 -46.75 C 19.101562 -38.3125 18.703125 -31.195312 18.921875 -25.40625 C 19.140625 -19.613281 19.722656 -15.210938 20.671875 -12.203125 C 21.628906 -9.203125 22.65625 -7.703125 23.75 -7.703125 C 25.070312 -7.703125 26.59375 -8.851562 28.3125 -11.15625 C 30.039062 -13.46875 31.617188 -16.546875 33.046875 -20.390625 C 34.472656 -24.242188 35.300781 -28.519531 35.53125 -33.21875 C 33.476562 -34.757812 31.9375 -36.882812 30.90625 -39.59375 C 29.875 -42.300781 29.359375 -44.976562 29.359375 -47.625 C 29.359375 -50.1875 30.035156 -52.21875 31.390625 -53.71875 C 32.753906 -55.226562 34.351562 -55.984375 36.1875 -55.984375 C 38.894531 -55.984375 40.851562 -54.128906 42.0625 -50.421875 C 43.28125 -46.722656 43.890625 -42.085938 43.890625 -36.515625 C 44.910156 -35.410156 46.046875 -34.859375 47.296875 -34.859375 C 48.691406 -34.859375 49.921875 -35.1875 50.984375 -35.84375 C 52.046875 -36.507812 52.757812 -37.207031 53.125 -37.9375 C 54.070312 -40 55.078125 -41.101562 56.140625 -41.25 C 57.203125 -41.394531 58.007812 -40.894531 58.5625 -39.75 C 59.113281 -38.613281 59.097656 -37.09375 58.515625 -35.1875 C 57.847656 -33.0625 56.453125 -31.191406 54.328125 -29.578125 C 52.203125 -27.972656 49.96875 -27.171875 47.625 -27.171875 C 46.882812 -27.171875 46.078125 -27.296875 45.203125 -27.546875 C 44.328125 -27.804688 43.484375 -28.226562 42.671875 -28.8125 C 42.085938 -26.175781 41.171875 -23.222656 39.921875 -19.953125 C 38.671875 -16.691406 37.148438 -13.539062 35.359375 -10.5 C 33.566406 -7.457031 31.515625 -4.945312 29.203125 -2.96875 C 26.890625 -0.988281 24.378906 0 21.671875 0 Z M 21.671875 0 "/></g></g></g><g fill="#ffffff" fill-opacity="1"><g transform="translate(164.815789, 213.609541)"><g><path d="M 19.25 0 C 16.164062 0 13.140625 -0.859375 10.171875 -2.578125 C 7.203125 -4.304688 4.765625 -6.890625 2.859375 -10.328125 C 0.953125 -13.773438 0 -18.066406 0 -23.203125 C 0 -26.503906 0.566406 -29.820312 1.703125 -33.15625 C 2.835938 -36.5 4.445312 -39.5625 6.53125 -42.34375 C 8.625 -45.125 11.097656 -47.375 13.953125 -49.09375 C 16.816406 -50.820312 19.972656 -51.6875 23.421875 -51.6875 C 27.523438 -51.6875 30.675781 -50.625 32.875 -48.5 C 35.082031 -46.375 36.1875 -43.804688 36.1875 -40.796875 C 36.1875 -37.796875 35.234375 -35.175781 33.328125 -32.9375 C 31.421875 -30.695312 28.867188 -28.953125 25.671875 -27.703125 C 22.484375 -26.460938 18.984375 -25.769531 15.171875 -25.625 L 15.171875 -23.859375 C 15.171875 -18.953125 15.722656 -15.03125 16.828125 -12.09375 C 17.929688 -9.164062 20.09375 -7.703125 23.3125 -7.703125 C 25.4375 -7.703125 27.632812 -8.617188 29.90625 -10.453125 C 32.1875 -12.285156 34.40625 -14.6875 36.5625 -17.65625 C 38.726562 -20.625 40.726562 -23.867188 42.5625 -27.390625 C 44.394531 -30.910156 45.9375 -34.390625 47.1875 -37.828125 C 47.988281 -39.960938 48.921875 -41.066406 49.984375 -41.140625 C 51.046875 -41.210938 51.890625 -40.675781 52.515625 -39.53125 C 53.140625 -38.394531 53.160156 -36.945312 52.578125 -35.1875 C 51.253906 -31.007812 49.546875 -26.847656 47.453125 -22.703125 C 45.367188 -18.566406 42.894531 -14.789062 40.03125 -11.375 C 37.175781 -7.96875 34.023438 -5.21875 30.578125 -3.125 C 27.128906 -1.039062 23.351562 0 19.25 0 Z M 16.171875 -32.5625 C 18.296875 -32.707031 20.3125 -33.085938 22.21875 -33.703125 C 24.125 -34.328125 25.679688 -35.226562 26.890625 -36.40625 C 28.097656 -37.582031 28.703125 -39.046875 28.703125 -40.796875 C 28.703125 -41.679688 28.484375 -42.546875 28.046875 -43.390625 C 27.609375 -44.234375 26.65625 -44.65625 25.1875 -44.65625 C 22.84375 -44.65625 20.9375 -43.40625 19.46875 -40.90625 C 18 -38.414062 16.898438 -35.632812 16.171875 -32.5625 Z M 16.171875 -32.5625 "/></g></g></g><g fill="#ffffff" fill-opacity="1"><g transform="translate(207.820544, 213.609541)"><g><path d="M 40.359375 0 C 37.867188 0 35.796875 -0.769531 34.140625 -2.3125 C 32.492188 -3.851562 31.265625 -5.773438 30.453125 -8.078125 C 29.648438 -10.390625 29.25 -12.753906 29.25 -15.171875 C 29.25 -17.742188 29.503906 -20.421875 30.015625 -23.203125 C 30.535156 -25.992188 31.050781 -28.597656 31.5625 -31.015625 C 32.070312 -33.429688 32.363281 -35.390625 32.4375 -36.890625 C 32.519531 -38.398438 32.15625 -39.15625 31.34375 -39.15625 C 30.25 -39.15625 29.019531 -38.289062 27.65625 -36.5625 C 26.300781 -34.84375 24.960938 -32.570312 23.640625 -29.75 C 22.328125 -26.925781 21.117188 -23.882812 20.015625 -20.625 C 18.921875 -17.363281 18.023438 -14.171875 17.328125 -11.046875 C 16.628906 -7.929688 16.28125 -5.238281 16.28125 -2.96875 C 16.28125 -2.164062 15.96875 -1.539062 15.34375 -1.09375 C 14.71875 -0.65625 13.929688 -0.4375 12.984375 -0.4375 C 11.515625 -0.4375 9.878906 -0.984375 8.078125 -2.078125 C 6.285156 -3.179688 4.75 -5.035156 3.46875 -7.640625 C 2.1875 -10.242188 1.546875 -13.707031 1.546875 -18.03125 C 1.546875 -22.4375 1.726562 -26.4375 2.09375 -30.03125 C 2.457031 -33.625 3.484375 -37.4375 5.171875 -41.46875 C 6.191406 -43.8125 7.582031 -45.566406 9.34375 -46.734375 C 11.101562 -47.910156 12.863281 -48.609375 14.625 -48.828125 C 16.382812 -49.046875 17.832031 -48.898438 18.96875 -48.390625 C 20.101562 -47.878906 20.597656 -47.109375 20.453125 -46.078125 C 20.015625 -43.367188 19.265625 -40.675781 18.203125 -38 C 17.140625 -35.320312 16.425781 -32.296875 16.0625 -28.921875 C 19.726562 -36.109375 23.503906 -41.609375 27.390625 -45.421875 C 31.273438 -49.234375 35.34375 -51.140625 39.59375 -51.140625 C 41.9375 -51.140625 43.859375 -50.238281 45.359375 -48.4375 C 46.867188 -46.644531 47.625 -44.46875 47.625 -41.90625 C 47.625 -38.53125 47.128906 -35.0625 46.140625 -31.5 C 45.148438 -27.945312 44.160156 -24.46875 43.171875 -21.0625 C 42.179688 -17.65625 41.6875 -14.410156 41.6875 -11.328125 C 41.6875 -8.910156 42.457031 -7.703125 44 -7.703125 C 44.875 -7.703125 45.929688 -8.453125 47.171875 -9.953125 C 48.421875 -11.453125 49.78125 -13.394531 51.25 -15.78125 C 52.71875 -18.164062 54.128906 -20.734375 55.484375 -23.484375 C 56.835938 -26.234375 58.066406 -28.867188 59.171875 -31.390625 C 60.273438 -33.921875 61.117188 -36.066406 61.703125 -37.828125 C 62.359375 -39.660156 63.21875 -40.742188 64.28125 -41.078125 C 65.34375 -41.410156 66.238281 -41.097656 66.96875 -40.140625 C 67.707031 -39.191406 67.785156 -37.691406 67.203125 -35.640625 C 66.765625 -34.023438 65.992188 -31.769531 64.890625 -28.875 C 63.785156 -25.976562 62.425781 -22.878906 60.8125 -19.578125 C 59.207031 -16.273438 57.335938 -13.140625 55.203125 -10.171875 C 53.078125 -7.203125 50.769531 -4.765625 48.28125 -2.859375 C 45.789062 -0.953125 43.148438 0 40.359375 0 Z M 40.359375 0 "/></g></g></g><g fill="#ffffff" fill-opacity="1"><g transform="translate(265.453537, 213.609541)"><g><path d="M 18.8125 0 C 14.113281 0 10.242188 -2.179688 7.203125 -6.546875 C 4.160156 -10.910156 2.640625 -17.015625 2.640625 -24.859375 C 2.640625 -28.597656 3.0625 -33.269531 3.90625 -38.875 C 4.75 -44.488281 6.125 -50.300781 8.03125 -56.3125 L 1.65625 -56.3125 C -0.40625 -56.3125 -1.96875 -56.710938 -3.03125 -57.515625 C -4.09375 -58.328125 -4.625 -59.132812 -4.625 -59.9375 C -4.625 -60.53125 -4.421875 -61.082031 -4.015625 -61.59375 C -3.609375 -62.101562 -2.820312 -62.359375 -1.65625 -62.359375 L 10.234375 -62.359375 C 10.671875 -63.535156 11.144531 -64.691406 11.65625 -65.828125 C 12.164062 -66.960938 12.679688 -68.082031 13.203125 -69.1875 C 14.148438 -71.164062 15.539062 -72.722656 17.375 -73.859375 C 19.207031 -74.992188 21.003906 -75.722656 22.765625 -76.046875 C 24.523438 -76.378906 25.898438 -76.234375 26.890625 -75.609375 C 27.878906 -74.984375 28.046875 -73.90625 27.390625 -72.375 C 26.648438 -70.613281 25.953125 -68.90625 25.296875 -67.25 C 24.640625 -65.601562 24.015625 -63.972656 23.421875 -62.359375 L 35.3125 -62.359375 C 36.84375 -62.359375 37.753906 -61.878906 38.046875 -60.921875 C 38.347656 -59.972656 38.078125 -59.019531 37.234375 -58.0625 C 36.390625 -57.113281 34.941406 -56.640625 32.890625 -56.640625 C 31.273438 -56.640625 29.515625 -56.640625 27.609375 -56.640625 C 25.703125 -56.640625 23.6875 -56.601562 21.5625 -56.53125 C 19.507812 -49.9375 18.242188 -44 17.765625 -38.71875 C 17.285156 -33.4375 17.046875 -28.082031 17.046875 -22.65625 C 17.046875 -17.007812 17.578125 -13.101562 18.640625 -10.9375 C 19.703125 -8.78125 20.75 -7.703125 21.78125 -7.703125 C 23.90625 -7.703125 26.066406 -10.300781 28.265625 -15.5 C 30.460938 -20.707031 33.285156 -28.1875 36.734375 -37.9375 C 37.460938 -39.84375 38.378906 -40.90625 39.484375 -41.125 C 40.585938 -41.351562 41.46875 -40.914062 42.125 -39.8125 C 42.78125 -38.71875 42.78125 -37.175781 42.125 -35.1875 C 40.582031 -30.570312 39.0625 -26.15625 37.5625 -21.9375 C 36.0625 -17.726562 34.410156 -13.972656 32.609375 -10.671875 C 30.816406 -7.367188 28.816406 -4.765625 26.609375 -2.859375 C 24.410156 -0.953125 21.8125 0 18.8125 0 Z M 18.8125 0 "/></g></g></g><g fill="#ffffff" fill-opacity="1"><g transform="translate(298.119573, 213.609541)"><g><path d="M 17.046875 0 C 13.742188 0 10.71875 -0.769531 7.96875 -2.3125 C 5.21875 -3.851562 3.019531 -6.160156 1.375 -9.234375 C -0.269531 -12.316406 -1.09375 -16.128906 -1.09375 -20.671875 C -1.09375 -24.859375 -0.378906 -28.800781 1.046875 -32.5 C 2.472656 -36.195312 4.414062 -39.476562 6.875 -42.34375 C 9.332031 -45.207031 12.082031 -47.460938 15.125 -49.109375 C 18.164062 -50.753906 21.335938 -51.578125 24.640625 -51.578125 C 25.953125 -51.578125 26.992188 -51.226562 27.765625 -50.53125 C 28.535156 -49.84375 28.882812 -49.039062 28.8125 -48.125 C 28.738281 -47.207031 28.082031 -46.414062 26.84375 -45.75 C 23.394531 -43.914062 20.625 -41.492188 18.53125 -38.484375 C 16.4375 -35.484375 14.929688 -32.273438 14.015625 -28.859375 C 13.097656 -25.453125 12.640625 -22.140625 12.640625 -18.921875 C 12.640625 -15.546875 13.171875 -12.832031 14.234375 -10.78125 C 15.304688 -8.726562 16.644531 -7.703125 18.25 -7.703125 C 19.789062 -7.703125 21.273438 -8.523438 22.703125 -10.171875 C 24.140625 -11.816406 25.367188 -13.867188 26.390625 -16.328125 C 27.421875 -18.785156 28.046875 -21.257812 28.265625 -23.75 C 26.285156 -25.070312 24.800781 -26.757812 23.8125 -28.8125 C 22.820312 -30.863281 22.328125 -32.988281 22.328125 -35.1875 C 22.328125 -37.757812 22.929688 -39.796875 24.140625 -41.296875 C 25.347656 -42.796875 26.757812 -43.546875 28.375 -43.546875 C 31.382812 -43.546875 33.546875 -42.132812 34.859375 -39.3125 C 36.179688 -36.488281 36.84375 -33.097656 36.84375 -29.140625 C 38.09375 -29.140625 39.78125 -29.707031 41.90625 -30.84375 C 44.03125 -31.988281 45.898438 -34.351562 47.515625 -37.9375 C 48.460938 -40 49.410156 -41.117188 50.359375 -41.296875 C 51.316406 -41.484375 52.070312 -41.007812 52.625 -39.875 C 53.175781 -38.738281 53.269531 -37.175781 52.90625 -35.1875 C 52.539062 -33.207031 51.601562 -31.191406 50.09375 -29.140625 C 48.59375 -27.085938 46.648438 -25.347656 44.265625 -23.921875 C 41.878906 -22.492188 39.1875 -21.707031 36.1875 -21.5625 C 35.601562 -18.332031 34.503906 -15.046875 32.890625 -11.703125 C 31.273438 -8.367188 29.164062 -5.582031 26.5625 -3.34375 C 23.957031 -1.113281 20.785156 0 17.046875 0 Z M 17.046875 0 "/></g></g></g></svg>