<?xml version="1.0" encoding="UTF-8"?>
<svg version="1.1" xmlns="http://www.w3.org/2000/svg" width="512" height="512">
<path d="M0 0 C3.0625 2.3125 3.0625 2.3125 5 5 C5 5.99 5 6.98 5 8 C5.66 8 6.32 8 7 8 C7.0825 7.236875 7.165 6.47375 7.25 5.6875 C8 3 8 3 9.5 1.1875 C13.23704173 -0.58759482 16.93846054 -0.69861218 21 0 C25.16764099 1.98674811 27.52574014 4.55054222 30.3125 8.1875 C31.35857422 9.53908203 31.35857422 9.53908203 32.42578125 10.91796875 C32.94527344 11.60503906 33.46476562 12.29210937 34 13 C34.391875 11.741875 34.78375 10.48375 35.1875 9.1875 C36.28690978 6.29835337 36.88820367 5.09937452 39.25 3 C43.06082134 1.61424679 44.93104271 1.27808822 49 2 C56.56575599 6.30279962 62.90371572 12.46983332 69.21484375 18.3984375 C71.51983017 20.55148232 73.85590118 22.6354153 76.25 24.6875 C83.0552096 30.60507356 89.21437224 37.09094938 95 44 C96.25876953 45.48306641 96.25876953 45.48306641 97.54296875 46.99609375 C123.71326127 78.40044478 144.01035626 116.17397693 153.73120117 155.99536133 C155.08218944 161.50970285 156.21676368 165.16082052 160.4375 169.1875 C171.11879292 180.13348969 179.52049751 192.70860257 187 206 C187.3398291 206.59071289 187.6796582 207.18142578 188.02978516 207.79003906 C199.0359701 226.98112004 211.52653081 253.45021086 211 276 C212.51182861 275.72736328 212.51182861 275.72736328 214.05419922 275.44921875 C217.83604351 274.76959783 221.61984233 274.10144155 225.40429688 273.43652344 C227.03407349 273.14857476 228.66332295 272.8576241 230.29199219 272.56347656 C253.38406016 268.39840418 253.38406016 268.39840418 259.0625 271.875 C262.2685246 275.39128504 262.30881133 277.87935655 262.25 282.48312378 C261.822643 286.78554246 260.20871372 290.4719576 258.5 294.41015625 C258.14486328 295.26306747 257.78972656 296.1159787 257.42382812 296.99473572 C256.29737072 299.69050333 255.14917573 302.37634993 254 305.0625 C253.22770544 306.89977709 252.45685737 308.73766291 251.6875 310.57617188 C249.80831578 315.05799218 247.90959329 319.53105653 246 324 C246.8343457 324.12117188 247.66869141 324.24234375 248.52832031 324.3671875 C249.61725586 324.53476562 250.70619141 324.70234375 251.828125 324.875 C253.45089355 325.11863281 253.45089355 325.11863281 255.10644531 325.3671875 C258 326 258 326 260.75 328 C263.72366727 335.13680144 261.85128818 343.09821611 259.953125 350.33203125 C259.74065125 351.17166916 259.52817749 352.01130707 259.30926514 352.87638855 C258.86119296 354.63322617 258.4071271 356.38854536 257.94726562 358.14233398 C257.24830034 360.81900881 256.57622425 363.50148701 255.90625 366.18554688 C255.46513368 367.90145172 255.02247875 369.61696192 254.578125 371.33203125 C254.28098602 372.52588188 254.28098602 372.52588188 253.97784424 373.74385071 C252.75394916 378.32433198 251.38677802 381.51512162 248 385 C244.90458694 386.54770653 241.63592198 386.14798976 238.23832703 386.14717102 C237.42751909 386.15084771 236.61671115 386.1545244 235.78133327 386.1583125 C233.04912147 386.16937519 230.31694767 386.17319753 227.5847168 386.17700195 C225.63196694 386.1832646 223.67921829 386.18991122 221.72647095 386.19691467 C216.41031165 386.21434174 211.09416136 386.22488087 205.77798057 386.2331202 C202.4588917 386.23826625 199.13980565 386.24434213 195.82071877 386.25063133 C185.44260407 386.26968731 175.06449652 386.28391814 164.68636769 386.2922433 C152.69423697 386.30202123 140.70229056 386.3283536 128.71022481 386.36874419 C119.44903487 386.39886991 110.18789788 386.41370877 100.92665988 386.41702431 C95.39152631 386.41937866 89.85658955 386.42838917 84.32150841 386.45348549 C79.11518894 386.4767095 73.90919667 386.4810223 68.7028389 386.47072411 C66.79082084 386.47022727 64.87878698 386.4765911 62.96681786 386.49028015 C60.35835805 386.5079125 57.7510835 386.50093607 55.1426239 386.48774719 C54.38425364 386.49871644 53.62588337 386.50968568 52.84453219 386.52098733 C47.949729 386.46114871 45.42968325 385.49803988 42 382 C40.39569736 378.79139471 40.51894682 375.4809543 41 372 C43.39425741 367.92089478 45.55301215 366.38647623 50 365 C52.5671322 364.81891949 55.02202602 364.73818904 57.58662415 364.75949097 C58.3422699 364.75778212 59.09791566 364.75607327 59.87645978 364.75431263 C62.40382087 364.75102322 64.93091539 364.76201233 67.45825195 364.77294922 C69.27177423 364.77351345 71.08529696 364.77319654 72.89881897 364.77206421 C77.81989356 364.77149017 82.74087075 364.78325288 87.66192269 364.79721212 C92.80554985 364.80971084 97.94917921 364.81088931 103.09281921 364.81326294 C112.83206525 364.81948023 122.57126642 364.83589443 132.31049269 364.85596192 C143.39866226 364.87831316 154.48683395 364.8893124 165.57502043 364.89935279 C188.38337184 364.92026042 211.19168341 364.95544126 234 365 C234.103125 363.906875 234.20625 362.81375 234.3125 361.6875 C235.09200818 356.37267152 236.58661532 351.18241049 238 346 C84.88 346 -68.24 346 -226 346 C-224.68 350.95 -223.36 355.9 -222 361 C-222 362.32 -222 363.64 -222 365 C-221.05116849 364.99723462 -220.10233698 364.99446924 -219.124753 364.99162006 C-196.04853863 364.92505176 -172.97233671 364.87573715 -149.89604664 364.84456348 C-138.73657127 364.82908784 -127.57715929 364.80798495 -116.41772461 364.77368164 C-106.69232904 364.74380069 -96.96697938 364.72443007 -87.24153918 364.71773452 C-82.09093366 364.71382006 -76.94045948 364.70460597 -71.78989601 364.68280983 C-66.94315018 364.66246533 -62.09658993 364.6561621 -57.24980545 364.66067696 C-55.47001958 364.65985084 -53.69022757 364.65387309 -51.91047859 364.64238358 C-49.48161977 364.62747121 -47.05346287 364.63104159 -44.62458801 364.63923645 C-43.91932679 364.63049793 -43.21406556 364.6217594 -42.48743278 364.61275607 C-37.15156483 364.66146133 -34.04442348 366.09657125 -30.1875 369.6875 C-28.4435321 373.08364801 -28.31918494 376.3104216 -29 380 C-30.79363911 382.8100346 -32.01880935 384.50940468 -35 386 C-37.59585559 386.10431737 -40.16527055 386.14779669 -42.76167297 386.14717102 C-43.57248091 386.15084771 -44.38328885 386.1545244 -45.21866673 386.1583125 C-47.95087853 386.16937519 -50.68305233 386.17319753 -53.4152832 386.17700195 C-55.36803306 386.1832646 -57.32078171 386.18991122 -59.27352905 386.19691467 C-64.58968835 386.21434174 -69.90583864 386.22488087 -75.22201943 386.2331202 C-78.5411083 386.23826625 -81.86019435 386.24434213 -85.17928123 386.25063133 C-95.55739593 386.26968731 -105.93550348 386.28391814 -116.31363231 386.2922433 C-128.30576303 386.30202123 -140.29770944 386.3283536 -152.28977519 386.36874419 C-161.55096513 386.39886991 -170.81210212 386.41370877 -180.07334012 386.41702431 C-185.60847369 386.41937866 -191.14341045 386.42838917 -196.67849159 386.45348549 C-201.88481106 386.4767095 -207.09080333 386.4810223 -212.2971611 386.47072411 C-214.20917916 386.47022727 -216.12121302 386.4765911 -218.03318214 386.49028015 C-220.64164195 386.5079125 -223.2489165 386.50093607 -225.8573761 386.48774719 C-226.61574636 386.49871644 -227.37411663 386.50968568 -228.15546781 386.52098733 C-231.78488366 386.47661798 -233.8383524 386.10252063 -236.93194866 384.14049053 C-239.43268071 381.55216345 -240.14074261 379.59946553 -241.078125 376.13671875 C-241.39845703 374.98349121 -241.71878906 373.83026367 -242.04882812 372.64208984 C-242.36271484 371.4402002 -242.67660156 370.23831055 -243 369 C-243.47856445 367.25710693 -243.47856445 367.25710693 -243.96679688 365.47900391 C-244.928789 361.93153501 -245.84437833 358.37474145 -246.75 354.8125 C-247.06582031 353.61947266 -247.38164062 352.42644531 -247.70703125 351.19726562 C-251.14943813 337.64371994 -251.14943813 337.64371994 -250 331 C-247.38260323 327.62493574 -245.13668745 325.31240376 -240.8359375 324.68359375 C-240.02382812 324.60238281 -239.21171875 324.52117187 -238.375 324.4375 C-237.14910156 324.31181641 -237.14910156 324.31181641 -235.8984375 324.18359375 C-235.27195313 324.12300781 -234.64546875 324.06242187 -234 324 C-234.4846875 322.87094238 -234.969375 321.74188477 -235.46875 320.57861328 C-237.27599308 316.35555756 -239.05934303 312.12274842 -240.8359375 307.88671875 C-241.60557598 306.06076438 -242.38152008 304.2374537 -243.1640625 302.41699219 C-244.29306992 299.78744175 -245.39844608 297.1489617 -246.5 294.5078125 C-246.84998047 293.70634796 -247.19996094 292.90488342 -247.56054688 292.07913208 C-249.87137979 286.45192555 -250.98389532 281.08712075 -250 275 C-247.20922168 271.22867795 -247.20922168 271.22867795 -244 270 C-234.47579785 268.7183963 -224.63827143 271.25379837 -215.3125 273 C-213.72477045 273.28994591 -212.13688052 273.57901505 -210.54882812 273.8671875 C-206.69729694 274.56803977 -202.84812461 275.28068861 -199 276 C-198.8860791 275.17830322 -198.7721582 274.35660645 -198.65478516 273.51000977 C-197.63736143 266.49990967 -196.36643971 259.73458934 -194.375 252.9375 C-193.98477661 251.60041992 -193.98477661 251.60041992 -193.58666992 250.23632812 C-186.18986366 225.61934053 -174.60912777 202.92786407 -159.125 182.4375 C-158.49779053 181.60557129 -158.49779053 181.60557129 -157.85791016 180.75683594 C-155.82632003 178.12735342 -153.85210691 175.86492874 -151.38671875 173.61328125 C-143.06569999 165.97410621 -141.45771688 157.38306226 -138.7734375 146.7109375 C-134.80981411 131.12309592 -128.60995348 116.06940342 -121.01367188 101.90966797 C-119.95391955 99.91318853 -118.93553351 97.89914465 -117.921875 95.87890625 C-102.74745209 65.9508058 -80.54782113 37.78736795 -55 16 C-53.90183042 15.03964918 -52.80420761 14.07867289 -51.70703125 13.1171875 C-50.55542254 12.11894307 -49.40308557 11.12153813 -48.25 10.125 C-47.71882568 9.6599707 -47.18765137 9.19494141 -46.64038086 8.71582031 C-42.45405046 5.14379906 -38.47773234 2.3033958 -32.9375 1.625 C-29.38098295 2.07902345 -27.72506904 2.64318354 -25 5 C-23.70179648 7.63275675 -22.8784071 10.17985088 -22 13 C-21.39671875 12.22914062 -20.7934375 11.45828125 -20.171875 10.6640625 C-18.97304688 9.15972656 -18.97304688 9.15972656 -17.75 7.625 C-16.96109375 6.62726563 -16.1721875 5.62953125 -15.359375 4.6015625 C-10.9664723 -0.2422673 -6.36350873 -1.13229693 0 0 Z M-11 33 C-36.61349374 63.99047909 -54.91820709 102.10124967 -66.0625 140.5 C-66.25099518 141.14908325 -66.43949036 141.7981665 -66.63369751 142.46691895 C-68.87125048 150.24947484 -70.73829763 157.99926204 -72 166 C-66.71062934 161.53342033 -61.61159715 156.89625759 -56.55078125 152.171875 C-51.97796086 148.27832502 -49.04613224 147.56813341 -43 148 C-39.76194754 149.25384972 -38.23108785 150.65518499 -36.3359375 153.53515625 C-35.85874268 154.25324463 -35.38154785 154.97133301 -34.88989258 155.71118164 C-34.38997803 156.4871167 -33.89006348 157.26305176 -33.375 158.0625 C-32.84865967 158.86743896 -32.32231934 159.67237793 -31.7800293 160.50170898 C-11.883892 191.18704025 -11.883892 191.18704025 -6 207 C-5.67 207 -5.34 207 -5 207 C-4.92950145 188.7523657 -4.87681388 170.50476739 -4.84456348 152.25702572 C-4.82918216 143.78173674 -4.80826278 135.30653302 -4.77368164 126.83129883 C-4.74350852 119.43278121 -4.7243618 112.03432542 -4.71773452 104.63574797 C-4.71386879 100.72869005 -4.70497344 96.82180879 -4.68280983 92.91480827 C-4.5727101 72.69893899 -4.76508668 52.67476751 -10 33 C-10.33 33 -10.66 33 -11 33 Z M22 33 C21.53193627 35.1437319 21.07635985 37.29018902 20.625 39.4375 C20.36976563 40.63246094 20.11453125 41.82742187 19.8515625 43.05859375 C19.55568697 44.70361227 19.27356732 46.35112487 19 48 C18.830448 49.0067981 18.660896 50.01359619 18.48620605 51.05090332 C16.39688159 65.76421744 16.74137371 80.57306377 16.79721212 95.39762807 C16.80986185 99.33200835 16.81090105 103.26639292 16.81326294 107.20079041 C16.81943643 114.6234398 16.83579025 122.04602907 16.85596192 129.46865219 C16.87845089 137.93078743 16.88934676 146.39292581 16.89935279 154.85508358 C16.920161 172.23675695 16.95525504 189.61837208 17 207 C19.74283244 203.4692406 21.69054986 199.76371765 23.625 195.75 C30.17376096 182.45287649 37.48402595 169.8515558 45.88452148 157.63818359 C47.00513685 155.99245606 48.09240896 154.32418984 49.1796875 152.65625 C51.07076107 149.89674351 51.82861827 148.90610906 55 148 C60.66937986 147.3700689 63.64913436 148.59687236 68 152 C70.69562103 154.34410925 73.28989483 156.78513228 75.875 159.25 C76.56335938 159.8996875 77.25171875 160.549375 77.9609375 161.21875 C79.64435222 162.80864168 81.32388378 164.4024218 83 166 C84.89856643 162.20286715 82.6301668 157.51837801 81.625 153.5625 C81.35534424 152.4993457 81.08568848 151.43619141 80.80786133 150.34082031 C75.87549195 131.42674707 69.67498486 112.98308467 61.15039062 95.37841797 C59.98097191 92.96065966 58.8419527 90.52994942 57.703125 88.09765625 C48.83327374 69.46730338 37.3762607 47.17420774 22 33 Z M-52.67456055 43.48388672 C-59.87689738 50.69605351 -66.85092207 57.85011477 -73 66 C-73.51095215 66.66161133 -74.0219043 67.32322266 -74.54833984 68.00488281 C-95.84286543 95.6167641 -111.86217868 127.29039092 -121 161 C-121.20383301 161.64089066 -121.40766602 162.28178131 -121.61767578 162.9420929 C-123.4429675 169.43566699 -122.4703245 174.25714095 -120.640625 180.65234375 C-120.37618591 181.6336879 -120.11174683 182.61503204 -119.83929443 183.62611389 C-119.28042322 185.68510284 -118.71175353 187.74145484 -118.13378906 189.79516602 C-117.24729437 192.94711993 -116.39075811 196.10606245 -115.5390625 199.26757812 C-114.9912963 201.2713024 -114.4418755 203.27457525 -113.890625 205.27734375 C-113.63218811 206.22310776 -113.37375122 207.16887177 -113.10748291 208.14329529 C-112.86092957 209.01502884 -112.61437622 209.88676239 -112.36035156 210.78491211 C-112.14558167 211.55274521 -111.93081177 212.32057831 -111.70953369 213.11167908 C-111.07192146 215.20354896 -111.07192146 215.20354896 -109 217 C-100.07418329 206.90179056 -96.85804406 196.93865259 -95.25 183.8125 C-95.15952393 183.07908386 -95.06904785 182.34566772 -94.97583008 181.59002686 C-94.60818776 178.59047401 -94.24201289 175.59074972 -93.87997437 172.59051514 C-88.81454462 131.93516208 -72.98610541 88.8226312 -50.45996094 54.52758789 C-46.59952194 48.64745477 -45.04580922 45.03715702 -46 38 C-48.43116933 38 -51.05375231 41.88000171 -52.67456055 43.48388672 Z M58 38 C56.99600291 44.35864823 58.28587605 48.15375038 61.6875 53.5 C86.80309807 93.00819846 105.1771857 142.252153 108.3359375 189.30859375 C109.19079808 200.41022916 114.13430827 209.13430827 122 217 C125.02053921 209.1826839 127.36324428 201.26165608 129.60864258 193.19262695 C130.07714507 191.5251611 130.55532127 189.86038245 131.04321289 188.19848633 C135.00556438 174.71705066 135.00556438 174.71705066 133 161 C132.62485775 159.48863902 132.25112893 157.97692642 131.87890625 156.46484375 C122.71168945 124.04645833 106.89871276 92.59422221 85.34570312 66.62207031 C84.00439266 65.00529478 82.68145145 63.37470708 81.359375 61.7421875 C74.45121844 53.30732455 66.94621593 45.46496623 59 38 C58.67 38 58.34 38 58 38 Z M-55.875 180.625 C-62.34993372 187.10376731 -68.22553754 193.79223625 -73.65087891 201.16796875 C-74.56647414 202.41129605 -75.49096716 203.64811033 -76.42333984 204.87890625 C-92.86666513 226.60582254 -116 262.68680249 -116 291 C-114.13571468 292.53170414 -112.26195361 293.95879634 -110.3125 295.375 C-105.29321692 299.12534361 -100.53901358 303.0591338 -95.9375 307.3125 C-95.13469604 308.04895752 -95.13469604 308.04895752 -94.31567383 308.80029297 C-91.92160559 311.03820154 -89.78223556 313.27684488 -87.75390625 315.85546875 C-87.17511719 316.56316406 -86.59632813 317.27085937 -86 318 C-85.34 318 -84.68 318 -84 318 C-82.46542633 316.48280017 -82.46542633 316.48280017 -80.875 314.5 C-61.64419666 292.10314977 -34.95478298 276.08530447 -7 267 C-12.64998981 235.05116786 -28.04822795 199.66493965 -48 174 C-50.72061877 174 -54.0503974 178.80814283 -55.875 180.625 Z M60 174 C43.78411393 196.77766323 32.67840449 222.35873473 23.875 248.75 C23.62862793 249.4875351 23.38225586 250.22507019 23.12841797 250.98495483 C20.1978834 258.83664253 20.1978834 258.83664253 19 267 C19.969375 267.3403125 20.93875 267.680625 21.9375 268.03125 C51.4308039 278.60411093 75.26755893 295.69228843 97 318 C99.936072 315.84112353 102.35968106 313.64414868 104.625 310.8125 C108.78247104 305.82139724 113.90807181 301.99078119 119 298 C119.89460938 297.29746094 120.78921875 296.59492188 121.7109375 295.87109375 C123.80112419 294.23916566 125.89677513 292.61506898 128 291 C119.19545597 246.80350594 94.1093344 204.48257909 61 174 C60.67 174 60.34 174 60 174 Z M151 192 C149.63129979 196.71799012 148.27845039 201.43980403 146.9453125 206.16796875 C145.7121828 210.53513897 144.44146664 214.88893977 143.14216614 219.23670959 C142.270948 222.17089667 141.42210394 225.11131342 140.57662964 228.05300903 C140.15309814 229.50888718 139.72051315 230.96216429 139.27859497 232.41256714 C136.73492522 240.78312013 135.08525365 246.80235494 139 255 C139.70337728 257.03536938 140.38271836 259.07914101 141.04296875 261.12890625 C141.39423828 262.18271484 141.74550781 263.23652344 142.10742188 264.32226562 C144.55371094 271.66113281 144.55371094 271.66113281 147 279 C147.6077124 278.72325439 148.2154248 278.44650879 148.84155273 278.16137695 C161.36217339 272.49484382 173.66934552 267.39976423 187 264 C182.26965129 240.20043305 170.82215348 218.67690304 157 199 C156.54689453 198.34547852 156.09378906 197.69095703 155.62695312 197.01660156 C154.44425869 195.32570486 153.22519951 193.66035658 152 192 C151.67 192 151.34 192 151 192 Z M-140 193 C-154.36694504 209.31088687 -164.74486193 230.57069773 -171.625 251 C-171.8727417 251.73516846 -172.1204834 252.47033691 -172.37573242 253.2277832 C-173.56157315 256.95464886 -174.10295063 260.10963807 -174 264 C-173.01157104 264.31638428 -173.01157104 264.31638428 -172.00317383 264.63916016 C-148.90142002 272.07416099 -148.90142002 272.07416099 -139.29296875 277.06640625 C-136.90331276 278.32923036 -136.90331276 278.32923036 -134 277 C-132.74936162 274.39727899 -132.74936162 274.39727899 -131.7734375 271.171875 C-131.3815625 269.97949219 -130.9896875 268.78710938 -130.5859375 267.55859375 C-130.18632812 266.30175781 -129.78671875 265.04492188 -129.375 263.75 C-128.96765625 262.50863281 -128.5603125 261.26726562 -128.140625 259.98828125 C-124.50161489 249.97238716 -124.50161489 249.97238716 -125.17163086 239.65893555 C-125.45199692 238.6182341 -125.73236298 237.57753265 -126.02122498 236.5052948 C-126.33261917 235.3936647 -126.64401337 234.28203461 -126.96484375 233.13671875 C-127.27700333 231.98959915 -127.5891629 230.84247955 -127.91078186 229.66059875 C-128.909451 226.00000662 -129.92326003 222.34380508 -130.9375 218.6875 C-131.61753823 216.20535237 -132.29658679 213.72293336 -132.97460938 211.24023438 C-134.63827152 205.15696153 -136.31438073 199.07722303 -138 193 C-138.66 193 -139.32 193 -140 193 Z M-62 324 C-62 324.33 -62 324.66 -62 325 C-17.12 325 27.76 325 74 325 C70.18890843 320.25008786 70.18890843 320.25008786 65.94140625 316.32421875 C65.12663818 315.67803589 65.12663818 315.67803589 64.29541016 315.01879883 C63.7235498 314.57947021 63.15168945 314.1401416 62.5625 313.6875 C61.95196777 313.21530029 61.34143555 312.74310059 60.71240234 312.2565918 C15.53780146 277.8050207 -21.61471606 284.882853 -62 324 Z M-176.1640625 287.94921875 C-192.14407098 304.69418021 -192.14407098 304.69418021 -201 325 C-170.64 325 -140.28 325 -109 325 C-124.70792952 306.67408223 -147.56967072 292.32968597 -171 286 C-174.11390197 285.66536946 -174.11390197 285.66536946 -176.1640625 287.94921875 Z M124.23046875 320.75 C121.97377178 322.79238201 121.97377178 322.79238201 121 325 C151.36 325 181.72 325 213 325 C207.23944332 313.2164331 207.23944332 313.2164331 200.0625 302.6875 C199.54888916 302.02234375 199.03527832 301.3571875 198.50610352 300.671875 C192.70405837 292.91529578 192.70405837 292.91529578 186 286 C164.44803841 286 139.15577936 306.69277046 124.23046875 320.75 Z M-222 294 C-221.23539233 297.82303833 -220.52385218 300.38393238 -218.9375 303.8125 C-218.57527344 304.60269531 -218.21304688 305.39289063 -217.83984375 306.20703125 C-217.56269531 306.79871094 -217.28554687 307.39039063 -217 308 C-214.45868642 305.69716746 -212.92889705 303.32686207 -211.3125 300.3125 C-210.1678125 298.1778125 -210.1678125 298.1778125 -209 296 C-213.29 295.34 -217.58 294.68 -222 294 Z M225.75 295 C223.39875 295.495 223.39875 295.495 221 296 C223.31 299.96 225.62 303.92 228 308 C231.16277272 306.41861364 231.43093689 303.67403949 232.625 300.4375 C233.07101562 299.23996094 233.51703125 298.04242188 233.9765625 296.80859375 C234.31429688 295.88175781 234.65203125 294.95492188 235 294 C231.6325319 294 229.00700022 294.31431574 225.75 295 Z " fill="#000000" transform="translate(250,63)"/>
<path d="M0 0 C3.17921096 2.41896486 4.6866752 4.09919119 6 7.875 C6 11.90306262 4.89929459 14.47273862 3 18 C-1.24219669 20.82813113 -5.0201555 20.77040656 -10 20 C-13.41421647 17.63095184 -14.64346607 16.02503506 -16 12.125 C-16 7.9960698 -15.08256898 5.56052116 -13 2 C-8.52732607 -1.25285376 -5.2750801 -1.53456876 0 0 Z " fill="#000000" transform="translate(261,429)"/>
</svg>
